<svg width="241" height="21" viewBox="0 0 241 21" fill="none" xmlns="http://www.w3.org/2000/svg">
<path d="M9.06325 16H4.48927V4.69211H0.398097V1.51573H13.1544V4.69211H9.06325V16ZM26.4845 4.31094L23.4352 14.0942C22.8422 15.9746 22.3086 17.3383 21.8343 18.1853C21.3599 19.0493 20.8856 19.6507 20.4112 19.9895C20.1402 20.1759 19.7082 20.3199 19.1153 20.4215C18.5393 20.5232 17.9125 20.574 17.2349 20.574C16.2184 20.574 15.4053 20.4808 14.7954 20.2945C14.7785 19.8879 14.7954 19.3881 14.8462 18.7952C14.8971 18.2192 14.9648 17.7279 15.0495 17.3214C15.761 17.3553 16.4556 17.3722 17.1332 17.3722C17.6414 17.3722 18.0226 17.3637 18.2767 17.3468C18.5308 16.8555 18.768 16.3388 18.9882 15.7967L17.2349 15.6951L13.3216 4.31094H17.921L19.9538 12.4933L19.9793 12.9761H20.0555L21.8851 4.31094H26.4845ZM35.5213 4.05683C36.741 4.05683 37.7066 4.46341 38.4181 5.27656C39.1466 6.07277 39.5108 7.47037 39.5108 9.46937C39.5108 10.9602 39.3668 12.1799 39.0788 13.1286C38.7908 14.0603 38.4605 14.6786 38.0878 14.9836C37.7151 15.2885 37.0629 15.5341 36.1311 15.7205C35.2163 15.9068 34.2676 16 33.2851 16C32.9971 16 32.5143 15.9831 31.8367 15.9492V19.5575L27.4914 19.7354V4.31094H31.0489L31.4809 6.11512C31.9214 5.48832 32.4804 4.98857 33.158 4.61587C33.8526 4.24318 34.6403 4.05683 35.5213 4.05683ZM34.5048 12.8999C34.6912 12.7643 34.8267 12.3832 34.9114 11.7564C34.9961 11.1126 35.0384 10.5028 35.0384 9.92677C35.0384 8.97809 34.9199 8.27506 34.6827 7.81766C34.4455 7.36026 33.9712 7.13156 33.2597 7.13156C32.7515 7.13156 32.2771 7.18238 31.8367 7.28403V12.9253L32.5482 13.0015C32.7684 13.0184 33.0818 13.0269 33.4884 13.0269C34.0644 13.0269 34.4032 12.9846 34.5048 12.8999ZM48.304 12.9507C48.7275 12.9507 49.5152 12.9083 50.6672 12.8236C50.8197 12.8236 51.0992 12.8067 51.5058 12.7728L51.8869 15.3901C50.5825 16 48.8884 16.3049 46.8047 16.3049C44.8566 16.3049 43.3573 15.8137 42.307 14.8311C41.2736 13.8485 40.7569 12.3662 40.7569 10.3842C40.7569 9.36773 40.884 8.38517 41.1381 7.43649C41.4091 6.48782 41.7141 5.82713 42.0529 5.45444C42.4086 5.08174 43.0693 4.75987 44.0349 4.48882C45.0006 4.21777 45.9577 4.08224 46.9064 4.08224C48.431 4.08224 49.5745 4.35329 50.3369 4.89539C51.0992 5.43749 51.5989 6.19135 51.8361 7.15697C52.0733 8.10565 52.1919 9.38467 52.1919 10.994C51.0399 11.0618 49.9133 11.0957 48.8122 11.0957H45.2038C45.2038 11.6378 45.314 12.0444 45.5342 12.3154C45.7714 12.5865 46.1017 12.7643 46.5252 12.849C46.9487 12.9168 47.5417 12.9507 48.304 12.9507ZM45.458 7.10615C45.3563 7.15697 45.2801 7.3772 45.2293 7.76684C45.1784 8.15647 45.1445 8.59693 45.1276 9.08821H46.449C47.2452 9.08821 47.8212 9.07974 48.1769 9.0628C48.1769 8.24965 48.0583 7.67366 47.8212 7.33485C47.6009 6.99604 47.2113 6.82663 46.6523 6.82663C46.1949 6.82663 45.7968 6.9198 45.458 7.10615ZM69.6385 4.31094L66.5892 14.0942C65.9963 15.9746 65.4626 17.3383 64.9883 18.1853C64.5139 19.0493 64.0396 19.6507 63.5653 19.9895C63.2942 20.1759 62.8622 20.3199 62.2693 20.4215C61.6933 20.5232 61.0665 20.574 60.3889 20.574C59.3725 20.574 58.5593 20.4808 57.9494 20.2945C57.9325 19.8879 57.9494 19.3881 58.0003 18.7952C58.0511 18.2192 58.1188 17.7279 58.2036 17.3214C58.9151 17.3553 59.6096 17.3722 60.2873 17.3722C60.7955 17.3722 61.1766 17.3637 61.4307 17.3468C61.6849 16.8555 61.922 16.3388 62.1423 15.7967L60.3889 15.6951L56.4756 4.31094H61.075L63.1079 12.4933L63.1333 12.9761H63.2095L65.0391 4.31094H69.6385ZM76.2867 16.3303C74.2538 16.3303 72.7291 15.856 71.7127 14.9073C70.7132 13.9417 70.2134 12.4255 70.2134 10.3588C70.2134 9.22373 70.3151 8.2327 70.5184 7.38567C70.7386 6.5217 71.0012 5.9203 71.3061 5.58149C71.6957 5.14103 72.4072 4.77681 73.4406 4.48882C74.4909 4.20083 75.4735 4.05683 76.3883 4.05683C78.5736 4.05683 80.1322 4.5227 81.0639 5.45444C81.9957 6.38617 82.4615 7.87695 82.4615 9.92677C82.4615 12.1291 81.9618 13.7469 80.9623 14.7803C79.9628 15.8137 78.4042 16.3303 76.2867 16.3303ZM76.3629 13.3573C77.0236 13.3573 77.4556 13.1286 77.6588 12.6712C77.8621 12.1968 77.9638 11.3667 77.9638 10.1809C77.9638 9.35079 77.9214 8.71551 77.8367 8.27506C77.752 7.81766 77.5911 7.48732 77.3539 7.28403C77.1337 7.0638 76.7864 6.95368 76.3121 6.95368C75.6344 6.95368 75.2448 7.01298 75.1432 7.13156C75.0076 7.25015 74.8975 7.62284 74.8128 8.24965C74.7281 8.87645 74.6858 9.52867 74.6858 10.2063C74.6858 11.3583 74.7959 12.1714 75.0161 12.6457C75.2533 13.1201 75.7022 13.3573 76.3629 13.3573ZM95.8092 4.31094V16H92.2771L91.7943 14.0434C90.5746 15.5172 89.1177 16.2541 87.4236 16.2541C86.8138 16.2541 86.2378 16.1694 85.6957 16C85.1705 15.8306 84.7724 15.585 84.5014 15.2631C84.3489 15.0767 84.2303 14.6109 84.1456 13.8655C84.0778 13.1201 84.044 11.9851 84.044 10.4604V4.31094H88.3892V10.4096C88.3892 10.7484 88.3977 11.1465 88.4146 11.6039C88.4316 12.0613 88.4824 12.3493 88.5671 12.4679C88.6857 12.6373 89.0245 12.722 89.5836 12.722L89.9901 12.6966C90.4645 12.6796 90.9557 12.5695 91.464 12.3662V4.31094H95.8092ZM105.135 4.05683C105.355 4.05683 105.584 4.08224 105.821 4.13306C106.075 4.18389 106.261 4.24318 106.38 4.31094C106.38 4.68364 106.338 5.30197 106.253 6.16594C106.168 7.01298 106.092 7.61437 106.024 7.97012C105.855 7.95318 105.541 7.94471 105.084 7.94471C104.017 7.94471 103.068 8.00401 102.238 8.12259V16H97.8927V4.31094H101.527L102.035 6.19135H102.06C102.551 5.54761 103.077 5.03092 103.636 4.64128C104.195 4.25165 104.694 4.05683 105.135 4.05683ZM118.305 16L117.899 14.3991C117.119 15.6697 116.035 16.3049 114.646 16.3049C113.511 16.3049 112.579 15.9915 111.851 15.3647C111.139 14.721 110.784 13.8231 110.784 12.6712C110.784 11.9597 110.987 11.3413 111.394 10.8162C111.817 10.2741 112.393 9.89289 113.121 9.67266C114.07 9.40161 115.536 9.24914 117.518 9.21526C117.518 8.09718 117.467 7.50426 117.365 7.43649C117.28 7.36873 117.009 7.33485 116.552 7.33485C116.264 7.33485 115.866 7.35179 115.358 7.38567C114.544 7.41955 113.443 7.51273 112.054 7.66519C111.919 6.7504 111.817 5.76784 111.749 4.71752C112.647 4.53117 113.587 4.3787 114.57 4.26012C115.552 4.12459 116.433 4.05683 117.213 4.05683C118.568 4.05683 119.584 4.28553 120.262 4.74293C120.94 5.18338 121.38 5.76784 121.583 6.49629C121.787 7.22473 121.88 8.148 121.863 9.26609L121.837 13.0015L121.914 16H118.305ZM116.12 13.4589C116.56 13.4589 117.026 13.3742 117.518 13.2048V11.3244H117.314C116.061 11.3244 115.366 11.3921 115.231 11.5277C115.146 11.6124 115.078 11.7394 115.027 11.9088C114.993 12.0782 114.976 12.2392 114.976 12.3916C114.976 12.7982 115.07 13.0777 115.256 13.2302C115.442 13.3827 115.73 13.4589 116.12 13.4589ZM135.133 5.04786C135.285 5.23421 135.395 5.70008 135.463 6.44546C135.548 7.19085 135.59 8.32588 135.59 9.85054V16H131.245V9.90136V8.85951C131.245 8.31741 131.203 7.97859 131.118 7.84307C130.982 7.67366 130.669 7.58896 130.178 7.58896C129.94 7.58896 129.763 7.59743 129.644 7.61437C129.17 7.63131 128.678 7.74143 128.17 7.94471V16H123.825V4.31094H127.357L127.84 6.26759C129.06 4.79375 130.516 4.05683 132.211 4.05683C132.82 4.05683 133.388 4.14153 133.913 4.31094C134.455 4.48035 134.862 4.72599 135.133 5.04786ZM147.05 12.0359C147.05 13.5436 146.568 14.6278 145.602 15.2885C144.653 15.9492 143.298 16.2795 141.536 16.2795C140.299 16.2795 138.876 16.1016 137.267 15.7459C137.301 15.4071 137.377 14.9243 137.496 14.2975C137.631 13.6537 137.741 13.1624 137.826 12.8236C138.436 12.9253 139.114 13.01 139.859 13.0777C140.604 13.1286 141.24 13.154 141.765 13.154C142.222 13.154 142.502 13.1286 142.603 13.0777C142.62 13.0608 142.637 13.0184 142.654 12.9507C142.688 12.866 142.705 12.7813 142.705 12.6966C142.705 12.3578 142.493 12.1291 142.07 12.0105C141.934 11.9766 141.418 11.8326 140.52 11.5785C139.622 11.3244 138.885 10.867 138.309 10.2063C137.75 9.52867 137.47 8.6901 137.47 7.6906C137.47 7.16544 137.589 6.58099 137.826 5.93724C138.063 5.2935 138.317 4.88692 138.588 4.71752C138.792 4.58199 139.283 4.44647 140.062 4.31094C140.842 4.15847 141.562 4.08224 142.222 4.08224C143.628 4.08224 145.043 4.18389 146.466 4.38717C146.466 4.69211 146.424 5.2088 146.339 5.93724C146.254 6.64875 146.178 7.09768 146.11 7.28403C144.67 7.09768 143.51 7.00451 142.629 7.00451C142.171 7.00451 141.875 7.02992 141.739 7.08074C141.706 7.09768 141.672 7.1485 141.638 7.23321C141.604 7.30097 141.587 7.39414 141.587 7.51273C141.587 7.7499 141.663 7.9193 141.816 8.02095C141.968 8.13953 142.366 8.28353 143.01 8.45293C143.772 8.67316 144.425 8.90186 144.967 9.13903C145.526 9.3762 146.008 9.73195 146.415 10.2063C146.839 10.6806 147.05 11.2905 147.05 12.0359ZM155.683 16H150.194L147.602 4.31094H152.049L153.192 13.0015H153.269L154.565 4.31094H159.266L160.638 12.9761H160.74L161.807 4.31094H166.279L163.687 16H158.173L156.953 8.93574H156.877L155.683 16ZM174.565 12.9507C174.988 12.9507 175.776 12.9083 176.928 12.8236C177.081 12.8236 177.36 12.8067 177.767 12.7728L178.148 15.3901C176.843 16 175.149 16.3049 173.066 16.3049C171.117 16.3049 169.618 15.8137 168.568 14.8311C167.534 13.8485 167.018 12.3662 167.018 10.3842C167.018 9.36773 167.145 8.38517 167.399 7.43649C167.67 6.48782 167.975 5.82713 168.314 5.45444C168.67 5.08174 169.33 4.75987 170.296 4.48882C171.261 4.21777 172.219 4.08224 173.167 4.08224C174.692 4.08224 175.835 4.35329 176.598 4.89539C177.36 5.43749 177.86 6.19135 178.097 7.15697C178.334 8.10565 178.453 9.38467 178.453 10.994C177.301 11.0618 176.174 11.0957 175.073 11.0957H171.465C171.465 11.6378 171.575 12.0444 171.795 12.3154C172.032 12.5865 172.363 12.7643 172.786 12.849C173.21 12.9168 173.803 12.9507 174.565 12.9507ZM171.719 7.10615C171.617 7.15697 171.541 7.3772 171.49 7.76684C171.439 8.15647 171.405 8.59693 171.388 9.08821H172.71C173.506 9.08821 174.082 9.07974 174.438 9.0628C174.438 8.24965 174.319 7.67366 174.082 7.33485C173.862 6.99604 173.472 6.82663 172.913 6.82663C172.456 6.82663 172.058 6.9198 171.719 7.10615ZM187.224 4.05683C187.445 4.05683 187.673 4.08224 187.91 4.13306C188.165 4.18389 188.351 4.24318 188.469 4.31094C188.469 4.68364 188.427 5.30197 188.342 6.16594C188.258 7.01298 188.181 7.61437 188.114 7.97012C187.944 7.95318 187.631 7.94471 187.173 7.94471C186.106 7.94471 185.158 8.00401 184.327 8.12259V16H179.982V4.31094H183.616L184.124 6.19135H184.15C184.641 5.54761 185.166 5.03092 185.725 4.64128C186.284 4.25165 186.784 4.05683 187.224 4.05683ZM204.74 5.04786C204.893 5.23421 205.003 5.70008 205.07 6.44546C205.155 7.19085 205.197 8.32588 205.197 9.85054V16H200.852V9.90136C200.852 9.8336 200.852 9.50325 200.852 8.91033C200.852 8.30047 200.81 7.92777 200.725 7.79225C200.674 7.72448 200.547 7.67366 200.344 7.63978C200.158 7.6059 199.937 7.58896 199.683 7.58896L199.251 7.61437C198.777 7.63131 198.286 7.74143 197.777 7.94471V16H193.432V0.753401L197.777 0.575523V3.54861C197.777 4.76834 197.735 5.58149 197.65 5.98807L197.676 6.01348C198.828 4.70905 200.208 4.05683 201.818 4.05683C202.428 4.05683 202.995 4.14153 203.52 4.31094C204.062 4.48035 204.469 4.72599 204.74 5.04786ZM214.294 12.9507C214.718 12.9507 215.506 12.9083 216.658 12.8236C216.81 12.8236 217.09 12.8067 217.496 12.7728L217.877 15.3901C216.573 16 214.879 16.3049 212.795 16.3049C210.847 16.3049 209.348 15.8137 208.297 14.8311C207.264 13.8485 206.747 12.3662 206.747 10.3842C206.747 9.36773 206.874 8.38517 207.128 7.43649C207.4 6.48782 207.704 5.82713 208.043 5.45444C208.399 5.08174 209.06 4.75987 210.025 4.48882C210.991 4.21777 211.948 4.08224 212.897 4.08224C214.421 4.08224 215.565 4.35329 216.327 4.89539C217.09 5.43749 217.589 6.19135 217.827 7.15697C218.064 8.10565 218.182 9.38467 218.182 10.994C217.03 11.0618 215.904 11.0957 214.803 11.0957H211.194C211.194 11.6378 211.304 12.0444 211.525 12.3154C211.762 12.5865 212.092 12.7643 212.516 12.849C212.939 12.9168 213.532 12.9507 214.294 12.9507ZM211.448 7.10615C211.347 7.15697 211.27 7.3772 211.22 7.76684C211.169 8.15647 211.135 8.59693 211.118 9.08821H212.439C213.236 9.08821 213.812 9.07974 214.167 9.0628C214.167 8.24965 214.049 7.67366 213.812 7.33485C213.591 6.99604 213.202 6.82663 212.643 6.82663C212.185 6.82663 211.787 6.9198 211.448 7.10615ZM226.954 4.05683C227.174 4.05683 227.403 4.08224 227.64 4.13306C227.894 4.18389 228.08 4.24318 228.199 4.31094C228.199 4.68364 228.157 5.30197 228.072 6.16594C227.987 7.01298 227.911 7.61437 227.843 7.97012C227.674 7.95318 227.36 7.94471 226.903 7.94471C225.836 7.94471 224.887 8.00401 224.057 8.12259V16H219.712V4.31094H223.345L223.854 6.19135H223.879C224.37 5.54761 224.896 5.03092 225.455 4.64128C226.014 4.25165 226.513 4.05683 226.954 4.05683ZM236.43 12.9507C236.853 12.9507 237.641 12.9083 238.793 12.8236C238.945 12.8236 239.225 12.8067 239.632 12.7728L240.013 15.3901C238.708 16 237.014 16.3049 234.93 16.3049C232.982 16.3049 231.483 15.8137 230.433 14.8311C229.399 13.8485 228.883 12.3662 228.883 10.3842C228.883 9.36773 229.01 8.38517 229.264 7.43649C229.535 6.48782 229.84 5.82713 230.179 5.45444C230.534 5.08174 231.195 4.75987 232.161 4.48882C233.126 4.21777 234.083 4.08224 235.032 4.08224C236.557 4.08224 237.7 4.35329 238.463 4.89539C239.225 5.43749 239.725 6.19135 239.962 7.15697C240.199 8.10565 240.318 9.38467 240.318 10.994C239.166 11.0618 238.039 11.0957 236.938 11.0957H233.33C233.33 11.6378 233.44 12.0444 233.66 12.3154C233.897 12.5865 234.227 12.7643 234.651 12.849C235.074 12.9168 235.667 12.9507 236.43 12.9507ZM233.584 7.10615C233.482 7.15697 233.406 7.3772 233.355 7.76684C233.304 8.15647 233.27 8.59693 233.253 9.08821H234.575C235.371 9.08821 235.947 9.07974 236.303 9.0628C236.303 8.24965 236.184 7.67366 235.947 7.33485C235.727 6.99604 235.337 6.82663 234.778 6.82663C234.321 6.82663 233.923 6.9198 233.584 7.10615Z" fill="#DBFF00"/>
</svg>
