<svg width="800" height="800" viewBox="0 0 800 800" fill="none" xmlns="http://www.w3.org/2000/svg">
<path d="M400 800C608.641 800 777.778 630.863 777.778 422.222C777.778 213.581 608.641 44.4445 400 44.4445C191.359 44.4445 22.2222 213.581 22.2222 422.222C22.2222 630.863 191.359 800 400 800Z" fill="#FCC900"/>
<path d="M400 755.556C608.641 755.556 777.778 586.419 777.778 377.778C777.778 169.137 608.641 0 400 0C191.359 0 22.2222 169.137 22.2222 377.778C22.2222 586.419 191.359 755.556 400 755.556Z" fill="#FFDB4D"/>
<path d="M400 711.111C571.822 711.111 711.111 571.822 711.111 400C711.111 228.178 571.822 88.8889 400 88.8889C228.178 88.8889 88.8887 228.178 88.8887 400C88.8887 571.822 228.178 711.111 400 711.111Z" fill="#FFF97F"/>
<path d="M400 688.889C571.822 688.889 711.111 549.6 711.111 377.778C711.111 205.956 571.822 66.6667 400 66.6667C228.178 66.6667 88.8887 205.956 88.8887 377.778C88.8887 549.6 228.178 688.889 400 688.889Z" fill="#FFEFBC"/>
<path d="M196.812 350.326L385.929 577.16C387.583 579.14 389.652 580.734 391.989 581.827C394.327 582.92 396.876 583.487 399.456 583.487C402.036 583.487 404.585 582.92 406.923 581.827C409.26 580.734 411.329 579.14 412.983 577.16L602.187 350.326H196.812Z" fill="#FFDB4D"/>
<path d="M510.537 218.139H288.462C282.08 218.131 275.814 219.857 270.336 223.132C264.857 226.407 260.37 231.108 257.354 236.733L196.812 350.326H602.187L541.646 236.733C538.63 231.108 534.143 226.407 528.664 223.132C523.185 219.857 516.92 218.131 510.537 218.139Z" fill="#FFE373"/>
<path d="M382.58 570.286L320.188 350.326H478.812L416.42 570.639C415.315 574.289 413.055 577.483 409.98 579.739C406.906 581.996 403.182 583.195 399.368 583.155C395.554 583.115 391.856 581.839 388.829 579.519C385.802 577.199 383.609 573.959 382.58 570.286Z" fill="#FFEA70"/>
<path d="M478.812 350.326H320.187L311.375 218.139H487.625L478.812 350.326Z" fill="#FFDB4A"/>
</svg>
