<svg width="236" height="26" viewBox="0 0 236 26" fill="none" xmlns="http://www.w3.org/2000/svg">
<path d="M5.92124 5.72896L7.1393 8.23386C7.22401 8.40808 7.38778 8.5288 7.57724 8.55669L10.3011 8.9584C10.7782 9.02882 10.9685 9.62372 10.6234 9.96507L8.65248 11.9149C8.51551 12.0504 8.45289 12.2459 8.48533 12.4373L8.95052 15.1905C9.03207 15.6727 8.53331 16.0403 8.10664 15.8128L5.67051 14.513C5.5011 14.4227 5.29858 14.4227 5.12917 14.513L2.69304 15.8128C2.26636 16.0405 1.7676 15.6727 1.84915 15.1905L2.31435 12.4373C2.34679 12.2459 2.28416 12.0504 2.14719 11.9149L0.176254 9.96507C-0.168869 9.62349 0.0214892 9.02859 0.498623 8.9584L3.22243 8.55669C3.41189 8.5288 3.57567 8.40808 3.66037 8.23386L4.87844 5.72896C5.09155 5.29022 5.7079 5.29022 5.92124 5.72896Z" fill="#DBFF00"/>
<path d="M25.3348 17.5172C24.708 17.7882 23.9796 17.9831 23.1495 18.1016C22.3194 18.2202 21.5486 18.2795 20.8371 18.2795C18.5332 18.2795 16.729 17.6781 15.4245 16.4753C14.1201 15.2726 13.4679 13.426 13.4679 10.9357C13.4679 8.39464 14.154 6.49729 15.5262 5.24368C16.8984 3.97313 18.8296 3.33785 21.3199 3.33785C22.5057 3.33785 23.7424 3.49879 25.0299 3.82066C25.0299 4.15948 24.996 4.6677 24.9283 5.34532C24.8605 6.00601 24.7927 6.47188 24.725 6.74293H23.1241C21.9552 6.74293 21.0319 6.76834 20.3543 6.81916C19.6936 6.85304 19.2955 6.92927 19.16 7.04786C18.9058 7.28503 18.711 7.76784 18.5755 8.49629C18.44 9.20779 18.3722 9.89389 18.3722 10.5546C18.3722 11.7065 18.5162 12.5959 18.8042 13.2227C19.0922 13.8326 19.4564 14.2392 19.8969 14.4425C20.3204 14.6457 21.0234 14.7474 22.006 14.7474C22.7853 14.7474 23.8017 14.6796 25.0553 14.5441L25.3348 17.5172ZM34.0685 18.3303C31.5443 18.3303 29.647 17.7374 28.3764 16.5516C27.1228 15.3488 26.496 13.426 26.496 10.7833C26.496 8.19135 27.1906 6.30247 28.5797 5.11662C29.9688 3.93078 31.8069 3.33785 34.0939 3.33785C38.905 3.33785 41.3106 5.73496 41.3106 10.5292C41.3106 12.9517 40.7177 14.8575 39.5318 16.2466C38.3629 17.6358 36.5418 18.3303 34.0685 18.3303ZM33.9668 15.3318C34.4412 15.3318 34.8393 15.2556 35.1611 15.1031C35.483 14.9337 35.7371 14.6457 35.9235 14.2392C36.2792 13.5446 36.4571 12.4096 36.4571 10.8341C36.4571 9.2925 36.2792 8.17441 35.9235 7.47985C35.5677 6.76834 34.9155 6.39564 33.9668 6.36176C33.6111 6.36176 33.2384 6.40411 32.8487 6.48882C32.4761 6.55658 32.2389 6.65822 32.1372 6.79375C31.9339 7.03092 31.773 7.53914 31.6544 8.31841C31.5528 9.08074 31.502 9.9193 31.502 10.8341C31.502 12.2571 31.6375 13.299 31.9085 13.9597C32.0949 14.4509 32.3575 14.8067 32.6963 15.0269C33.0351 15.2302 33.4586 15.3318 33.9668 15.3318ZM47.5764 12.1555V18H43.3328V3.51573H47.6272L51.4643 9.36026C52.0403 10.2242 52.4807 10.9527 52.7857 11.5456H52.8619V9.10615V3.51573H57.0801V18H52.7602L48.8215 11.9014L47.678 10.1734H47.6018L47.5764 12.1555ZM72.2415 9.97012V17.2123C71.1065 17.585 70.0308 17.856 69.0144 18.0254C67.9979 18.1948 67.1424 18.2795 66.4478 18.2795C64.1439 18.2795 62.3397 17.6781 61.0353 16.4753C59.7309 15.2726 59.0787 13.426 59.0787 10.9357C59.0787 8.39464 59.7647 6.49729 61.1369 5.24368C62.5091 3.97313 64.4404 3.33785 66.9307 3.33785C68.2351 3.33785 69.8021 3.53267 71.6317 3.92231C71.6317 4.26112 71.5978 4.76934 71.53 5.44697C71.4623 6.10765 71.3945 6.57352 71.3268 6.84457L70.412 6.81916C69.2939 6.78528 68.4214 6.76834 67.7946 6.76834C65.9142 6.76834 64.8893 6.87845 64.7199 7.09868C64.4488 7.42055 64.254 7.9203 64.1354 8.59793C64.0338 9.27556 63.983 9.92777 63.983 10.5546C63.983 11.6896 64.11 12.5705 64.3641 13.1973C64.6183 13.8241 65.0079 14.2646 65.533 14.5187C66.0582 14.7728 66.7697 14.8999 67.6676 14.8999H67.7692V9.97012H72.2415ZM87.59 18H82.7873L81.9233 14.3408C81.8895 14.2053 81.8302 13.9766 81.7455 13.6547C81.6777 13.3159 81.593 13.0703 81.4913 12.9178C81.3897 12.7484 81.2457 12.6383 81.0594 12.5875C80.585 12.6044 79.8905 12.6129 78.9757 12.6129V18H74.4017V3.64279C76.4515 3.49032 78.3658 3.41409 80.1446 3.41409C81.7539 3.41409 83.0584 3.54961 84.0579 3.82066C85.0574 4.07477 85.8027 4.5237 86.294 5.16745C86.8022 5.79425 87.0564 6.65822 87.0564 7.75937C87.0564 8.79275 86.8192 9.6059 86.3448 10.1988C85.8705 10.7748 85.1082 11.1221 84.0579 11.2407V11.3931C84.6508 11.444 85.1421 11.6388 85.5317 11.9776C85.9383 12.2995 86.2093 12.7145 86.3448 13.2227L87.59 18ZM78.9757 9.74143C79.1281 9.75837 79.4246 9.76684 79.865 9.76684C81.1695 9.76684 81.9318 9.65672 82.152 9.43649C82.3553 9.23321 82.457 8.75887 82.457 8.01348C82.457 7.31891 82.2706 6.84457 81.8979 6.59046C81.5422 6.33635 80.9492 6.2093 80.1192 6.2093C79.9328 6.2093 79.5516 6.22624 78.9757 6.26012V9.74143ZM97.5277 14.8236H93.3094L92.5471 18H87.8715L92.5471 3.51573H98.5187L102.991 18H98.29L97.5277 14.8236ZM95.3931 6.64128L93.8939 12.003H96.9178L95.4948 6.64128H95.3931ZM110.711 18H106.137V6.69211H102.046V3.51573H114.802V6.69211H110.711V18ZM129.809 3.51573V11.6218C129.809 13.299 129.623 14.6119 129.25 15.5605C128.895 16.4923 128.217 17.1784 127.217 17.6188C126.218 18.0593 124.761 18.2795 122.847 18.2795C121.441 18.2795 120.255 18.1355 119.289 17.8475C118.324 17.5426 117.553 16.9751 116.977 16.145C116.418 15.3149 116.138 14.146 116.138 12.6383V3.51573H120.712V11.6727C120.712 12.5705 120.755 13.2566 120.839 13.731C120.941 14.1884 121.161 14.5441 121.5 14.7982C121.839 15.0354 122.355 15.154 123.05 15.154C123.474 15.154 123.872 15.1116 124.244 15.0269C124.617 14.9422 124.871 14.8152 125.007 14.6457C125.159 14.4425 125.235 13.7055 125.235 12.435V3.51573H129.809ZM132.171 3.51573H136.745V14.6457H142.666V18H132.171V3.51573ZM152.692 14.8236H148.474L147.712 18H143.036L147.712 3.51573H153.683L158.156 18H153.455L152.692 14.8236ZM150.558 6.64128L149.059 12.003H152.083L150.659 6.64128H150.558ZM165.876 18H161.302V6.69211H157.211V3.51573H169.967V6.69211H165.876V18ZM171.455 3.51573H176.029V18H171.455V3.51573ZM185.666 18.3303C183.142 18.3303 181.244 17.7374 179.974 16.5516C178.72 15.3488 178.093 13.426 178.093 10.7833C178.093 8.19135 178.788 6.30247 180.177 5.11662C181.566 3.93078 183.404 3.33785 185.691 3.33785C190.502 3.33785 192.908 5.73496 192.908 10.5292C192.908 12.9517 192.315 14.8575 191.129 16.2466C189.96 17.6358 188.139 18.3303 185.666 18.3303ZM185.564 15.3318C186.039 15.3318 186.437 15.2556 186.759 15.1031C187.08 14.9337 187.335 14.6457 187.521 14.2392C187.877 13.5446 188.055 12.4096 188.055 10.8341C188.055 9.2925 187.877 8.17441 187.521 7.47985C187.165 6.76834 186.513 6.39564 185.564 6.36176C185.209 6.36176 184.836 6.40411 184.446 6.48882C184.074 6.55658 183.836 6.65822 183.735 6.79375C183.531 7.03092 183.37 7.53914 183.252 8.31841C183.15 9.08074 183.099 9.9193 183.099 10.8341C183.099 12.2571 183.235 13.299 183.506 13.9597C183.692 14.4509 183.955 14.8067 184.294 15.0269C184.633 15.2302 185.056 15.3318 185.564 15.3318ZM199.174 12.1555V18H194.93V3.51573H199.225L203.062 9.36026C203.638 10.2242 204.078 10.9527 204.383 11.5456H204.459V9.10615V3.51573H208.678V18H204.358L200.419 11.9014L199.275 10.1734H199.199L199.174 12.1555ZM215.352 7.42902C215.352 7.78478 215.53 8.0643 215.885 8.26759C216.258 8.47088 216.834 8.6911 217.613 8.92827C218.545 9.23321 219.307 9.52967 219.9 9.81766C220.51 10.1056 221.035 10.5546 221.476 11.1644C221.933 11.7743 222.162 12.5705 222.162 13.5531C222.162 16.704 220.112 18.2795 216.012 18.2795C215.335 18.2795 214.505 18.2202 213.522 18.1016C212.557 17.9831 211.676 17.8306 210.879 17.6442C210.913 17.2885 210.981 16.7718 211.083 16.0942C211.201 15.3996 211.311 14.8829 211.413 14.5441C212.006 14.6288 212.895 14.7305 214.081 14.849C215.284 14.9676 216.19 15.0269 216.8 15.0269C217.156 15.0269 217.368 15.0015 217.435 14.9507C217.537 14.8829 217.613 14.7728 217.664 14.6203C217.732 14.4509 217.766 14.3069 217.766 14.1884C217.766 13.8495 217.605 13.5954 217.283 13.426C216.961 13.2397 216.411 13.0194 215.631 12.7653C214.699 12.4773 213.929 12.1809 213.319 11.8759C212.709 11.571 212.175 11.0967 211.718 10.4529C211.261 9.80919 211.032 8.96215 211.032 7.91183C211.032 7.16644 211.201 6.438 211.54 5.72649C211.879 4.99804 212.226 4.50676 212.582 4.25265C212.853 4.0663 213.412 3.88843 214.259 3.71902C215.106 3.54961 215.902 3.46491 216.648 3.46491C218.545 3.46491 220.095 3.64279 221.298 3.99854C221.281 4.33735 221.222 4.80322 221.12 5.39614C221.035 5.98907 220.942 6.53117 220.84 7.02245L220.256 6.99704C218.054 6.84457 216.648 6.76834 216.038 6.76834C215.784 6.76834 215.64 6.77681 215.606 6.79375C215.538 6.82763 215.479 6.90386 215.428 7.02245C215.377 7.14103 215.352 7.27656 215.352 7.42902Z" fill="#DBFF00"/>
<path d="M231.121 5.72896L232.34 8.23386C232.424 8.40808 232.588 8.5288 232.777 8.55669L235.501 8.9584C235.978 9.02882 236.169 9.62372 235.824 9.96507L233.853 11.9149C233.716 12.0504 233.653 12.2459 233.686 12.4373L234.151 15.1905C234.232 15.6727 233.734 16.0403 233.307 15.8128L230.871 14.513C230.701 14.4227 230.499 14.4227 230.329 14.513L227.893 15.8128C227.467 16.0405 226.968 15.6727 227.049 15.1905L227.515 12.4373C227.547 12.2459 227.484 12.0504 227.347 11.9149L225.376 9.96507C225.031 9.62349 225.222 9.02859 225.699 8.9584L228.423 8.55669C228.612 8.5288 228.776 8.40808 228.861 8.23386L230.079 5.72896C230.292 5.29022 230.908 5.29022 231.121 5.72896Z" fill="#DBFF00"/>
</svg>
