<svg width="66" height="58" viewBox="0 0 66 58" fill="none" xmlns="http://www.w3.org/2000/svg">
<path fill-rule="evenodd" clip-rule="evenodd" d="M13.3228 5.80434C13.2578 5.8948 11.2543 8.18156 8.87051 10.8861C5.70961 14.4723 4.52108 15.871 4.48019 16.0529C4.35684 16.601 5.05432 17.1174 5.53179 16.8314C5.64081 16.766 7.83721 14.3147 10.4127 11.3839C12.9882 8.45319 15.126 6.05525 15.1634 6.05524C15.2416 6.0552 23.1495 10.7508 23.1484 10.7966C23.148 10.8133 22.7155 12.4286 22.1873 14.3864C21.659 16.344 20.6216 20.1885 19.882 22.9296C19.1423 25.6706 18.5106 27.9133 18.4782 27.9134C18.3967 27.9134 2.2915 20.8328 2.2275 20.7688C2.19913 20.7404 2.48816 20.3715 2.86961 19.949C3.25113 19.5264 3.5949 19.0765 3.63357 18.9491C3.77878 18.4701 3.1641 17.9334 2.67335 18.1105C2.28666 18.2501 0.681996 20.1227 0.523932 20.6189C0.373926 21.0899 0.496115 21.5695 0.889792 22.055C1.05827 22.2627 8.24442 30.371 16.859 40.0735C27.9027 52.5117 32.5885 57.7393 32.7476 57.7988C32.8716 57.8454 33.103 57.8562 33.2617 57.8231C33.5302 57.7671 34.099 57.1445 41.4417 48.8706C50.2079 38.9925 49.6765 39.6621 49.1993 39.0954C48.9317 38.7777 48.4637 38.7386 48.191 39.0113C48.0994 39.103 47.0639 40.2643 45.8901 41.5919C39.0777 49.2971 36.425 52.2693 36.425 52.1969C36.4251 52.1597 38.956 47.0512 42.0494 40.845L47.6737 29.5609L54.9245 26.3646C61.1597 23.6158 62.1464 23.2079 61.9693 23.4521C61.8561 23.6083 60.954 24.6428 59.9648 25.7511C58.1265 27.8109 55.0345 31.2902 52.0328 34.6772C51.1073 35.7214 50.3236 36.663 50.2913 36.7698C50.2138 37.0257 50.4335 37.4675 50.699 37.5895C50.8152 37.643 51.0352 37.6607 51.1879 37.6288C51.4417 37.5758 52.0444 36.9192 58.2051 29.9842C61.9119 25.8116 65.095 22.2107 65.2788 21.9824C65.6512 21.5197 65.7606 20.8942 65.553 20.4153C65.4884 20.2661 62.44 16.7257 58.7788 12.5478C53.4194 6.43205 52.024 4.88117 51.6187 4.59023C51.0339 4.17048 47.6763 2.9116 47.2441 2.95005C47.095 2.96325 46.8957 3.05151 46.8012 3.14607C46.5836 3.36359 46.578 3.96065 46.7915 4.17246C46.8809 4.26115 47.4911 4.52058 48.1474 4.749C48.8038 4.97735 49.3397 5.18027 49.3386 5.19989C49.3374 5.21945 47.6716 6.22484 45.6368 7.4342L41.9372 9.63286L33.0627 9.63643L24.1882 9.64L20.505 7.45194C18.4793 6.2485 16.822 5.2391 16.822 5.20874C16.822 5.17839 18.9071 4.37265 21.4555 3.41817L26.089 1.6828L32.7063 1.63076L39.3236 1.57872L41.527 2.3807C42.7389 2.82184 43.8656 3.19059 44.0306 3.20012C44.4599 3.22491 44.802 2.85698 44.7507 2.4257C44.729 2.24295 44.6551 2.03728 44.5866 1.96877C44.518 1.90018 43.3534 1.44709 41.9988 0.961969L39.5357 0.0798466L32.7045 0.126266L25.8733 0.172684L20.542 2.16694C17.6098 3.26376 15.0245 4.27331 14.797 4.41029C14.4196 4.63741 13.6137 5.39951 13.3228 5.80434ZM11.2883 26.417L18.4685 29.5736L24.1172 40.924C27.2241 47.1668 29.7659 52.3041 29.766 52.3403C29.7659 52.3765 29.6879 52.2983 29.5925 52.1665C29.4972 52.0346 23.7052 45.4959 16.7212 37.636C9.73726 29.7761 4.04222 23.3262 4.0656 23.3028C4.08897 23.2794 7.33919 24.6807 11.2883 26.417ZM33.09 11.1886L41.5365 11.1853L43.8067 19.558C45.0554 24.163 46.0799 28.0062 46.0835 28.0984C46.0884 28.2277 43.1102 28.2655 33.0255 28.2641C25.8402 28.263 19.9799 28.2173 20.0027 28.1625C20.0255 28.1076 21.0637 24.2834 22.3097 19.6642C23.5557 15.0451 24.5905 11.2491 24.6093 11.2288C24.6282 11.2085 28.4445 11.1904 33.09 11.1886ZM33.0998 29.7539C40.1239 29.7509 45.8685 29.7753 45.8658 29.8082C45.8516 29.979 33.1331 55.3665 33.0615 55.3665C32.972 55.3666 20.2357 29.8577 20.2944 29.7957C20.3134 29.7758 26.0759 29.7569 33.0998 29.7539ZM47.0758 8.32003C49.1268 7.09612 50.8639 6.08081 50.9361 6.06377C51.0334 6.04071 52.722 7.9207 57.4714 13.3402C60.9936 17.3593 63.8754 20.6784 63.8754 20.716C63.8754 20.7779 47.808 27.9001 47.6679 27.9002C47.6349 27.9002 46.5651 24.0443 45.2905 19.3316C43.223 11.6865 42.9934 10.7512 43.16 10.6542C43.2627 10.5943 45.0247 9.54401 47.0758 8.32003Z" fill="black"/>
</svg>
