<svg width="51" height="19" viewBox="0 0 51 19" fill="none" xmlns="http://www.w3.org/2000/svg">
<g clip-path="url(#clip0_165_6398)">
<path d="M15.5684 5.37531V5.32484C15.5684 2.02851 12.9564 0 9.22943 0C7.07954 0 5.37048 0.606114 4.00145 1.54452C3.2056 2.08994 3.13395 3.28571 3.71701 4.05521L4.14219 4.61636C4.72525 5.38553 5.76931 5.45866 6.6145 4.9918C7.38474 4.56629 8.16594 4.33595 8.89969 4.33595C10.1167 4.33595 10.8014 4.8682 10.8014 5.73059V5.7558C10.8014 6.84631 9.76168 8.40467 6.82037 8.65806L6.71908 8.77212C6.66316 8.83503 6.73373 9.66012 6.87629 10.6146L6.9933 11.3929C7.13586 12.3474 7.93863 13.1209 8.7857 13.1209C9.63277 13.1209 10.388 12.7576 10.4714 12.3097C10.5558 11.8616 10.6238 11.4982 10.6238 11.4982C13.4379 10.8131 15.5684 8.57035 15.5684 5.37531Z" fill="#DBFF00"/>
<path d="M7.95943 14.5913C6.99434 14.5913 6.2124 15.3737 6.2124 16.3387V17.1547C6.2124 18.1198 6.99474 18.9021 7.95943 18.9021H9.45973C10.4248 18.9021 11.2072 18.1198 11.2072 17.1547V16.3387C11.2072 15.3737 10.4245 14.5913 9.45973 14.5913H7.95943Z" fill="#DBFF00"/>
</g>
<g clip-path="url(#clip1_165_6398)">
<path d="M31.9742 5.37531V5.32484C31.9742 2.02851 29.3622 0 25.6352 0C23.4853 0 21.7762 0.606114 20.4072 1.54452C19.6114 2.08994 19.5397 3.28571 20.1228 4.05521L20.548 4.61636C21.131 5.38553 22.1751 5.45866 23.0203 4.9918C23.7905 4.56629 24.5717 4.33595 25.3055 4.33595C26.5225 4.33595 27.2071 4.8682 27.2071 5.73059V5.7558C27.2071 6.84631 26.1674 8.40467 23.2261 8.65806L23.1248 8.77212C23.0689 8.83503 23.1395 9.66012 23.282 10.6146L23.3991 11.3929C23.5416 12.3474 24.3444 13.1209 25.1915 13.1209C26.0385 13.1209 26.7937 12.7576 26.8771 12.3097C26.9615 11.8616 27.0296 11.4982 27.0296 11.4982C29.8436 10.8131 31.9742 8.57035 31.9742 5.37531Z" fill="#DBFF00"/>
<path d="M24.3647 14.5913C23.3996 14.5913 22.6177 15.3737 22.6177 16.3387V17.1547C22.6177 18.1198 23.4 18.9021 24.3647 18.9021H25.865C26.8301 18.9021 27.6124 18.1198 27.6124 17.1547V16.3387C27.6124 15.3737 26.8298 14.5913 25.865 14.5913H24.3647Z" fill="#DBFF00"/>
</g>
<g clip-path="url(#clip2_165_6398)">
<path d="M47.6661 5.37531V5.32484C47.6661 2.02851 45.0541 0 41.3271 0C39.1772 0 37.4681 0.606114 36.0991 1.54452C35.3033 2.08994 35.2316 3.28571 35.8147 4.05521L36.2398 4.61636C36.8229 5.38553 37.867 5.45866 38.7122 4.9918C39.4824 4.56629 40.2636 4.33595 40.9973 4.33595C42.2143 4.33595 42.899 4.8682 42.899 5.73059V5.7558C42.899 6.84631 41.8593 8.40467 38.918 8.65806L38.8167 8.77212C38.7608 8.83503 38.8314 9.66012 38.9739 10.6146L39.091 11.3929C39.2335 12.3474 40.0363 13.1209 40.8834 13.1209C41.7304 13.1209 42.4856 12.7576 42.569 12.3097C42.6534 11.8616 42.7215 11.4982 42.7215 11.4982C45.5355 10.8131 47.6661 8.57035 47.6661 5.37531Z" fill="#DBFF00"/>
<path d="M40.0566 14.5913C39.0915 14.5913 38.3096 15.3737 38.3096 16.3387V17.1547C38.3096 18.1198 39.0919 18.9021 40.0566 18.9021H41.5569C42.522 18.9021 43.3043 18.1198 43.3043 17.1547V16.3387C43.3043 15.3737 42.5217 14.5913 41.5569 14.5913H40.0566Z" fill="#DBFF00"/>
</g>
<defs>
<clipPath id="clip0_165_6398">
<rect width="18.902" height="18.902" fill="white"/>
</clipPath>
<clipPath id="clip1_165_6398">
<rect width="18.902" height="18.902" fill="white" transform="translate(16.4053)"/>
</clipPath>
<clipPath id="clip2_165_6398">
<rect width="18.902" height="18.902" fill="white" transform="translate(32.0977)"/>
</clipPath>
</defs>
</svg>
