<svg width="238" height="117" viewBox="0 0 238 117" fill="none" xmlns="http://www.w3.org/2000/svg">
<path d="M16.401 43.0441C16.8434 43.167 17.1998 43.4128 17.4702 43.7815C17.7488 44.142 17.8881 44.5557 17.8881 45.0228C17.8881 45.8093 17.6177 46.4197 17.0769 46.854C16.5444 47.28 15.7824 47.493 14.791 47.493H11.6694V38.8901H14.6681C15.5448 38.8901 16.233 39.1031 16.7328 39.5291C17.2408 39.947 17.4948 40.5164 17.4948 41.2374C17.4948 41.6553 17.3965 42.0281 17.1998 42.3558C17.0032 42.6754 16.7369 42.9048 16.401 43.0441ZM15.9217 41.2374C15.9217 40.4181 15.3932 40.0084 14.3363 40.0084H13.2302V42.5525H14.2994C14.8566 42.5525 15.2662 42.446 15.5284 42.2329C15.7906 42.0199 15.9217 41.6881 15.9217 41.2374ZM14.496 46.3747C14.9549 46.3747 15.3154 46.3337 15.5776 46.2518C15.8398 46.1616 16.0282 46.0223 16.1429 45.8339C16.2576 45.6373 16.315 45.3669 16.315 45.0228C16.315 44.5312 16.1716 44.1829 15.8848 43.9781C15.6062 43.7651 15.1351 43.6586 14.4715 43.6586H13.2302V46.3747H14.496ZM22.3502 40.6475C22.7107 40.6475 22.9729 40.7213 23.1368 40.8687C23.3088 41.0162 23.3949 41.2415 23.3949 41.5447C23.3949 41.6594 23.3785 41.7741 23.3457 41.8888C23.3129 41.9953 23.2679 42.0814 23.2105 42.1469C23.1204 42.0896 23.0098 42.0486 22.8787 42.024C22.7558 41.9994 22.5878 41.9871 22.3748 41.9871C21.8422 41.9871 21.4326 42.1715 21.1458 42.5402C20.859 42.9007 20.7156 43.421 20.7156 44.101V47.493H19.2285V40.7336H20.7156V41.7413C20.8877 41.3972 21.1171 41.1309 21.4039 40.9425C21.6906 40.7458 22.0061 40.6475 22.3502 40.6475ZM24.6086 40.7336H26.108V47.493H24.6086V40.7336ZM25.2845 39.4923C24.7356 39.4923 24.4611 39.2178 24.4611 38.6688V38.5091C24.4611 37.9601 24.7356 37.6856 25.2845 37.6856H25.432C25.981 37.6856 26.2554 37.9601 26.2554 38.5091V38.6688C26.2554 39.2178 25.981 39.4923 25.432 39.4923H25.2845ZM33.2249 45.2317C33.2249 45.8052 33.2536 46.2272 33.3109 46.4976C33.3683 46.7679 33.4748 47.0014 33.6305 47.1981C33.4912 47.3046 33.3109 47.3947 33.0897 47.4685C32.8767 47.534 32.6801 47.5668 32.4998 47.5668C32.1065 47.5668 31.8689 47.2431 31.787 46.5959C31.3363 47.2759 30.6358 47.6159 29.6854 47.6159C29.0791 47.6159 28.5875 47.4562 28.2106 47.1366C27.8419 46.8089 27.6576 46.3828 27.6576 45.8585C27.6576 45.1129 27.9894 44.5475 28.653 44.1625C29.3167 43.7692 30.345 43.5357 31.7378 43.4619V42.9089C31.7378 42.1059 31.3159 41.7045 30.472 41.7045C30.1688 41.7045 29.882 41.7659 29.6117 41.8888C29.3413 42.0035 29.0217 42.2043 28.653 42.491C28.5957 42.532 28.5383 42.5525 28.481 42.5525C28.3499 42.5525 28.2106 42.4787 28.0631 42.3313C27.9156 42.1756 27.7845 41.9667 27.6698 41.7045C28.0058 41.3767 28.4441 41.1145 28.9849 40.9179C29.5256 40.7131 30.0746 40.6107 30.6317 40.6107C31.4592 40.6107 32.0983 40.8114 32.549 41.2129C32.9996 41.6143 33.2249 42.1797 33.2249 42.9089V45.2317ZM30.1278 46.5959C30.7587 46.5959 31.2954 46.2026 31.7378 45.416V44.3099C30.0336 44.3837 29.1815 44.8548 29.1815 45.7233C29.1815 46.0019 29.2634 46.219 29.4273 46.3747C29.5912 46.5221 29.8247 46.5959 30.1278 46.5959ZM40.6288 45.8339C40.6288 46.2763 40.641 46.5959 40.6656 46.7925C40.6902 46.9892 40.7435 47.1653 40.8254 47.321C40.4403 47.4767 40.0347 47.5545 39.6087 47.5545C39.4366 47.5545 39.3137 47.4603 39.24 47.2718C39.1744 47.0752 39.1417 46.7311 39.1417 46.2395V42.9949C39.1417 42.5197 39.0638 42.1838 38.9082 41.9871C38.7525 41.7823 38.4903 41.6799 38.1216 41.6799C37.589 41.6799 37.0237 41.9421 36.4256 42.4664V47.493H34.9385V42.9703C34.9385 41.9052 34.8893 41.2252 34.791 40.9302C35.2662 40.7663 35.6677 40.6844 35.9954 40.6844C36.1511 40.6844 36.2617 40.7417 36.3273 40.8565C36.3928 40.9712 36.4256 41.1514 36.4256 41.3972V41.5447C36.8352 41.2006 37.1999 40.9589 37.5194 40.8196C37.8389 40.6803 38.1749 40.6107 38.5272 40.6107C39.2318 40.6107 39.7562 40.8032 40.1003 41.1883C40.4526 41.5652 40.6288 42.1428 40.6288 42.9212V45.8339ZM50.9789 47.493C50.856 46.7638 50.7126 46.0141 50.5488 45.244H46.8987C46.7348 46.0141 46.5914 46.7638 46.4685 47.493H44.9323C45.1781 45.9199 45.5468 44.4287 46.0384 43.0195C46.53 41.602 47.1649 40.2256 47.9433 38.8901H49.5164C50.2866 40.2174 50.9175 41.5898 51.4091 43.0072C51.9007 44.4165 52.2694 45.9117 52.5152 47.493H50.9789ZM50.2661 44.101C49.881 42.6836 49.3648 41.3562 48.7176 40.1191C48.0703 41.3726 47.5582 42.7 47.1813 44.101H50.2661ZM56.7117 40.6475C57.0722 40.6475 57.3344 40.7213 57.4983 40.8687C57.6703 41.0162 57.7564 41.2415 57.7564 41.5447C57.7564 41.6594 57.74 41.7741 57.7072 41.8888C57.6744 41.9953 57.6294 42.0814 57.572 42.1469C57.4819 42.0896 57.3713 42.0486 57.2402 42.024C57.1173 41.9994 56.9493 41.9871 56.7363 41.9871C56.2037 41.9871 55.7941 42.1715 55.5073 42.5402C55.2205 42.9007 55.0772 43.421 55.0772 44.101V47.493H53.5901V40.7336H55.0772V41.7413C55.2492 41.3972 55.4786 41.1309 55.7654 40.9425C56.0522 40.7458 56.3676 40.6475 56.7117 40.6475ZM66.1597 40.6107C66.7906 40.6107 67.2863 40.8032 67.6468 41.1883C68.0155 41.5652 68.1999 42.0773 68.1999 42.7245V47.493H66.7005V42.7614C66.7005 42.3353 66.6268 42.0363 66.4793 41.8642C66.34 41.6922 66.0942 41.6061 65.7419 41.6061C65.2011 41.6061 64.7218 41.8478 64.3039 42.3313C64.3121 42.3722 64.3162 42.4378 64.3162 42.5279V47.493H62.8169V42.6385C62.8169 42.278 62.7472 42.0158 62.6079 41.8519C62.4686 41.6881 62.2515 41.6061 61.9566 41.6061C61.6862 41.6061 61.424 41.6758 61.17 41.8151C60.9242 41.9462 60.6702 42.1592 60.408 42.4542V47.493H58.9209V43.1178C58.9209 41.9298 58.8718 41.2088 58.7735 40.9548C58.9127 40.8728 59.0807 40.8073 59.2773 40.7581C59.474 40.709 59.6501 40.6844 59.8058 40.6844C59.9943 40.6844 60.1376 40.7499 60.236 40.881C60.3343 41.0121 60.3875 41.217 60.3957 41.4955C60.7071 41.1842 61.0225 40.9589 61.3421 40.8196C61.6698 40.6803 62.0303 40.6107 62.4236 40.6107C62.8087 40.6107 63.1446 40.6926 63.4314 40.8565C63.7181 41.0121 63.9393 41.2374 64.095 41.5324C64.603 40.9179 65.2912 40.6107 66.1597 40.6107ZM72.1709 47.6159C71.6875 47.6159 71.2491 47.5586 70.8558 47.4439C70.4708 47.3292 70.1635 47.1735 69.9341 46.9769C69.7129 46.772 69.6023 46.5467 69.6023 46.3009C69.6023 46.1125 69.6678 45.9527 69.7989 45.8216C69.93 45.6823 70.1144 45.6004 70.352 45.5758C70.5568 45.9199 70.8067 46.178 71.1016 46.3501C71.4048 46.5139 71.7776 46.5959 72.22 46.5959C72.6461 46.5959 72.9574 46.5098 73.1541 46.3378C73.3589 46.1575 73.4613 45.9199 73.4613 45.625C73.4613 45.3546 73.3384 45.1498 73.0926 45.0105C72.855 44.8712 72.4822 44.7278 71.9742 44.5803C71.5072 44.441 71.1221 44.3058 70.819 44.1747C70.5158 44.0355 70.2577 43.8306 70.0447 43.5603C69.8317 43.2899 69.7252 42.9417 69.7252 42.5156C69.7252 42.1223 69.8399 41.7823 70.0693 41.4955C70.3069 41.2006 70.6141 40.9794 70.991 40.8319C71.3761 40.6844 71.7858 40.6107 72.22 40.6107C72.7936 40.6107 73.2975 40.7213 73.7317 40.9425C74.1741 41.1637 74.5224 41.4669 74.7763 41.8519C74.6698 42.024 74.5387 42.1715 74.3831 42.2944C74.2356 42.4091 74.1004 42.4664 73.9775 42.4664C73.8382 42.4664 73.7194 42.405 73.6211 42.2821C73.2442 41.8315 72.7854 41.6061 72.2446 41.6061C71.9005 41.6061 71.6301 41.6799 71.4335 41.8274C71.2368 41.9667 71.1385 42.1838 71.1385 42.4787C71.1385 42.6754 71.2041 42.8392 71.3352 42.9703C71.4663 43.0932 71.626 43.1916 71.8145 43.2653C72.0111 43.339 72.2856 43.4251 72.6379 43.5234C73.1049 43.6545 73.4859 43.7856 73.7809 43.9167C74.084 44.0396 74.3421 44.2321 74.5551 44.4943C74.7682 44.7565 74.8747 45.1047 74.8747 45.5389C74.8747 46.1944 74.6371 46.7065 74.1619 47.0752C73.6866 47.4357 73.023 47.6159 72.1709 47.6159ZM79.7298 46.4238C79.8035 46.4566 79.865 46.5139 79.9141 46.5959C79.9633 46.6696 79.9879 46.7597 79.9879 46.8663C79.9879 47.0301 79.9305 47.1612 79.8158 47.2595C79.6847 47.366 79.4881 47.4521 79.2259 47.5176C78.9719 47.5832 78.6892 47.6159 78.3779 47.6159C77.8207 47.6159 77.3742 47.4644 77.0383 47.1612C76.7105 46.8499 76.5467 46.4361 76.5467 45.9199V41.729H75.4283V40.7336H76.5467V38.8901H78.0338V40.7336H79.4717V41.729H78.0338V45.7602C78.0338 46.0715 78.0911 46.2968 78.2058 46.4361C78.3205 46.5672 78.5049 46.6327 78.7589 46.6327C79.0702 46.6327 79.3939 46.5631 79.7298 46.4238ZM84.1361 40.6475C84.4966 40.6475 84.7588 40.7213 84.9227 40.8687C85.0947 41.0162 85.1808 41.2415 85.1808 41.5447C85.1808 41.6594 85.1644 41.7741 85.1316 41.8888C85.0988 41.9953 85.0538 42.0814 84.9964 42.1469C84.9063 42.0896 84.7957 42.0486 84.6646 42.024C84.5417 41.9994 84.3737 41.9871 84.1607 41.9871C83.6281 41.9871 83.2185 42.1715 82.9317 42.5402C82.6449 42.9007 82.5016 43.421 82.5016 44.101V47.493H81.0145V40.7336H82.5016V41.7413C82.6736 41.3972 82.903 41.1309 83.1898 40.9425C83.4766 40.7458 83.792 40.6475 84.1361 40.6475ZM88.8279 47.6159C87.8447 47.6159 87.0909 47.3128 86.5666 46.7065C86.0422 46.1002 85.78 45.2317 85.78 44.101C85.78 42.9703 86.0422 42.1059 86.5666 41.5078C87.0909 40.9097 87.8447 40.6107 88.8279 40.6107C89.8111 40.6107 90.5608 40.9097 91.077 41.5078C91.6014 42.1059 91.8635 42.9703 91.8635 44.101C91.8635 45.2399 91.6014 46.1125 91.077 46.7188C90.5526 47.3169 89.8029 47.6159 88.8279 47.6159ZM88.8279 46.5959C89.3605 46.5959 89.7456 46.3992 89.9832 46.006C90.229 45.6045 90.3519 44.9695 90.3519 44.101C90.3519 43.2407 90.229 42.6139 89.9832 42.2206C89.7456 41.8274 89.3605 41.6307 88.8279 41.6307C88.2954 41.6307 87.9062 41.8274 87.6604 42.2206C87.4228 42.6057 87.304 43.2325 87.304 44.101C87.304 44.9777 87.4228 45.6127 87.6604 46.006C87.9062 46.3992 88.2954 46.5959 88.8279 46.5959ZM98.8141 45.8339C98.8141 46.2763 98.8264 46.5959 98.851 46.7925C98.8755 46.9892 98.9288 47.1653 99.0107 47.321C98.6256 47.4767 98.2201 47.5545 97.794 47.5545C97.622 47.5545 97.4991 47.4603 97.4253 47.2718C97.3598 47.0752 97.327 46.7311 97.327 46.2395V42.9949C97.327 42.5197 97.2492 42.1838 97.0935 41.9871C96.9378 41.7823 96.6756 41.6799 96.3069 41.6799C95.7744 41.6799 95.209 41.9421 94.6109 42.4664V47.493H93.1238V42.9703C93.1238 41.9052 93.0747 41.2252 92.9764 40.9302C93.4516 40.7663 93.853 40.6844 94.1808 40.6844C94.3364 40.6844 94.4471 40.7417 94.5126 40.8565C94.5781 40.9712 94.6109 41.1514 94.6109 41.3972V41.5447C95.0206 41.2006 95.3852 40.9589 95.7047 40.8196C96.0243 40.6803 96.3602 40.6107 96.7125 40.6107C97.4171 40.6107 97.9415 40.8032 98.2856 41.1883C98.6379 41.5652 98.8141 42.1428 98.8141 42.9212V45.8339ZM106.192 40.1313C106.455 40.1313 106.635 40.2215 106.733 40.4017C106.831 40.582 106.877 40.8892 106.868 41.3235C106.287 41.3235 105.873 41.3931 105.627 41.5324C105.922 41.9175 106.069 42.364 106.069 42.872C106.069 43.6422 105.824 44.228 105.332 44.6295C104.849 45.031 104.136 45.2317 103.194 45.2317C102.751 45.2317 102.44 45.2645 102.26 45.33C102.079 45.3874 101.989 45.4939 101.989 45.6495C101.989 45.8052 102.096 45.9117 102.309 45.9691C102.53 46.0264 102.948 46.0551 103.562 46.0551C104.521 46.0551 105.258 46.219 105.775 46.5467C106.299 46.8744 106.561 47.3374 106.561 47.9355C106.561 48.5828 106.27 49.0907 105.689 49.4594C105.115 49.8281 104.324 50.0125 103.317 50.0125C102.317 50.0125 101.551 49.8527 101.018 49.5332C100.486 49.2218 100.219 48.7753 100.219 48.1936C100.219 47.8249 100.346 47.5258 100.6 47.2964C100.863 47.067 101.244 46.9113 101.743 46.8294V46.7925C101.432 46.727 101.19 46.6123 101.018 46.4484C100.846 46.2763 100.76 46.0674 100.76 45.8216C100.76 45.6086 100.846 45.4201 101.018 45.2563C101.199 45.0924 101.436 44.9736 101.731 44.8999C101.346 44.695 101.043 44.4287 100.822 44.101C100.6 43.7733 100.49 43.4128 100.49 43.0195C100.49 42.2411 100.74 41.6471 101.24 41.2374C101.748 40.8196 102.477 40.6107 103.427 40.6107C103.943 40.6107 104.402 40.7049 104.804 40.8933C105 40.6639 105.226 40.4796 105.48 40.3403C105.734 40.201 105.971 40.1313 106.192 40.1313ZM103.267 44.2116C103.71 44.2116 104.033 44.1092 104.238 43.9044C104.443 43.6995 104.546 43.3718 104.546 42.9212C104.546 42.4623 104.443 42.1305 104.238 41.9257C104.033 41.7127 103.71 41.6061 103.267 41.6061C102.833 41.6061 102.514 41.7127 102.309 41.9257C102.104 42.1387 102.002 42.4705 102.002 42.9212C102.002 43.3554 102.104 43.6791 102.309 43.8921C102.522 44.1051 102.841 44.2116 103.267 44.2116ZM103.366 47.0629C102.284 47.0629 101.743 47.3783 101.743 48.0092C101.743 48.3451 101.87 48.595 102.124 48.7589C102.387 48.9228 102.784 49.0047 103.317 49.0047C103.898 49.0047 104.341 48.9187 104.644 48.7466C104.955 48.5828 105.111 48.337 105.111 48.0092C105.111 47.6815 104.967 47.4439 104.681 47.2964C104.402 47.1407 103.964 47.0629 103.366 47.0629Z" fill="white"/>
<rect x="0.6" y="30.6" width="116.508" height="25.4806" rx="12.7403" stroke="white" stroke-width="1.2"/>
<path d="M23.8453 8.89006C23.6486 10.5205 23.3086 12.0404 22.8252 13.4496C22.35 14.8589 21.715 16.2067 20.9203 17.493H19.5069C18.7122 16.2231 18.0731 14.8835 17.5897 13.4742C17.1145 12.065 16.7744 10.5369 16.5696 8.89006H18.1796C18.3435 10.2583 18.5974 11.5324 18.9416 12.7122C19.2857 13.8921 19.7076 14.9449 20.2074 15.8708C20.7072 14.9449 21.1292 13.8921 21.4733 12.7122C21.8174 11.5324 22.0714 10.2583 22.2353 8.89006H23.8453ZM25.1443 10.7336H26.6436V17.493H25.1443V10.7336ZM25.8202 9.49227C25.2713 9.49227 24.9968 9.21779 24.9968 8.66884V8.50907C24.9968 7.96012 25.2713 7.68564 25.8202 7.68564H25.9677C26.5166 7.68564 26.7911 7.96012 26.7911 8.50907V8.66884C26.7911 9.21779 26.5166 9.49227 25.9677 9.49227H25.8202ZM32.1137 16.4238C32.1875 16.4566 32.2489 16.5139 32.2981 16.5959C32.3472 16.6696 32.3718 16.7597 32.3718 16.8663C32.3718 17.0301 32.3145 17.1612 32.1998 17.2595C32.0687 17.366 31.872 17.4521 31.6098 17.5176C31.3558 17.5832 31.0732 17.6159 30.7618 17.6159C30.2047 17.6159 29.7582 17.4644 29.4222 17.1612C29.0945 16.8499 28.9306 16.4361 28.9306 15.9199V11.729H27.8122V10.7336H28.9306V8.89006H30.4177V10.7336H31.8556V11.729H30.4177V15.7602C30.4177 16.0715 30.4751 16.2968 30.5898 16.4361C30.7045 16.5672 30.8888 16.6327 31.1428 16.6327C31.4542 16.6327 31.7778 16.5631 32.1137 16.4238ZM38.6094 15.2317C38.6094 15.8052 38.638 16.2272 38.6954 16.4976C38.7527 16.7679 38.8593 17.0014 39.0149 17.1981C38.8756 17.3046 38.6954 17.3947 38.4742 17.4685C38.2611 17.534 38.0645 17.5668 37.8843 17.5668C37.491 17.5668 37.2534 17.2431 37.1714 16.5959C36.7208 17.2759 36.0203 17.6159 35.0699 17.6159C34.4635 17.6159 33.9719 17.4562 33.5951 17.1366C33.2264 16.8089 33.042 16.3828 33.042 15.8585C33.042 15.1129 33.3738 14.5475 34.0375 14.1625C34.7012 13.7692 35.7294 13.5357 37.1223 13.4619V12.9089C37.1223 12.1059 36.7003 11.7045 35.8564 11.7045C35.5533 11.7045 35.2665 11.7659 34.9961 11.8888C34.7257 12.0035 34.4062 12.2043 34.0375 12.491C33.9801 12.532 33.9228 12.5525 33.8654 12.5525C33.7343 12.5525 33.5951 12.4787 33.4476 12.3313C33.3001 12.1756 33.169 11.9667 33.0543 11.7045C33.3902 11.3767 33.8286 11.1145 34.3693 10.9179C34.9101 10.7131 35.459 10.6107 36.0162 10.6107C36.8437 10.6107 37.4828 10.8114 37.9334 11.2129C38.384 11.6143 38.6094 12.1797 38.6094 12.9089V15.2317ZM35.5123 16.5959C36.1432 16.5959 36.6798 16.2026 37.1223 15.416V14.3099C35.4181 14.3837 34.566 14.8548 34.566 15.7233C34.566 16.0019 34.6479 16.219 34.8118 16.3747C34.9756 16.5221 35.2091 16.5959 35.5123 16.5959ZM40.3598 7.77167H41.8592V17.493H40.3598V7.77167ZM43.7713 10.7336H45.2706V17.493H43.7713V10.7336ZM44.4472 9.49227C43.8982 9.49227 43.6238 9.21779 43.6238 8.66884V8.50907C43.6238 7.96012 43.8982 7.68564 44.4472 7.68564H44.5947C45.1436 7.68564 45.4181 7.96012 45.4181 8.50907V8.66884C45.4181 9.21779 45.1436 9.49227 44.5947 9.49227H44.4472ZM53.4445 17.493C53.3544 17.493 53.1004 17.5053 52.6825 17.5299C52.4695 17.5463 52.3384 17.5545 52.2893 17.5545C52.1172 17.5545 51.9779 17.5217 51.8714 17.4562C51.7649 17.3906 51.6707 17.2923 51.5887 17.1612L50.4212 15.1457C50.2983 14.9326 50.1426 14.7811 49.9542 14.6909C49.7657 14.5926 49.4953 14.5557 49.143 14.5803L48.7375 14.6049V17.493H47.2504V7.77167H48.7375V13.5111L49.0816 13.4988C49.3438 13.4824 49.5404 13.4333 49.6715 13.3513C49.8108 13.2612 49.946 13.1014 50.0771 12.872L51.3429 10.7336H53.0267L51.4044 13.2407C51.2979 13.421 51.1995 13.5643 51.1094 13.6709C51.0275 13.7692 50.9169 13.8552 50.7776 13.9289C50.9988 13.9863 51.1791 14.0723 51.3184 14.187C51.4658 14.3017 51.5969 14.4533 51.7116 14.6418L53.4445 17.493ZM62.46 13.0441C62.9024 13.167 63.2588 13.4128 63.5292 13.7815C63.8078 14.142 63.9471 14.5557 63.9471 15.0228C63.9471 15.8093 63.6767 16.4197 63.1359 16.854C62.6034 17.28 61.8414 17.493 60.85 17.493H57.7283V8.89006H60.7271C61.6038 8.89006 62.292 9.10309 62.7918 9.52914C63.2998 9.947 63.5538 10.5164 63.5538 11.2374C63.5538 11.6553 63.4555 12.0281 63.2588 12.3558C63.0622 12.6754 62.7959 12.9048 62.46 13.0441ZM61.9807 11.2374C61.9807 10.4181 61.4522 10.0084 60.3953 10.0084H59.2892V12.5525H60.3584C60.9155 12.5525 61.3252 12.446 61.5874 12.2329C61.8496 12.0199 61.9807 11.6881 61.9807 11.2374ZM60.555 16.3747C61.0139 16.3747 61.3744 16.3337 61.6366 16.2518C61.8987 16.1616 62.0872 16.0223 62.2019 15.8339C62.3166 15.6373 62.3739 15.3669 62.3739 15.0228C62.3739 14.5312 62.2306 14.1829 61.9438 13.9781C61.6652 13.7651 61.1941 13.6586 60.5305 13.6586H59.2892V16.3747H60.555ZM71.0884 15.9445C71.0884 16.2804 71.1007 16.5549 71.1253 16.7679C71.158 16.981 71.2072 17.1653 71.2728 17.321C70.9614 17.4767 70.6255 17.5545 70.265 17.5545C70.052 17.5545 69.8922 17.493 69.7857 17.3701C69.6873 17.2472 69.6218 17.0342 69.589 16.7311C69.3514 17.0096 69.0483 17.2268 68.6796 17.3824C68.3191 17.5381 67.9258 17.6159 67.4997 17.6159C66.7951 17.6159 66.2584 17.4234 65.8897 17.0383C65.5292 16.6532 65.349 16.0879 65.349 15.3423V10.7336H66.8361V15.2563C66.8361 15.7479 66.918 16.1002 67.0819 16.3132C67.2457 16.518 67.5161 16.6205 67.893 16.6205C68.2289 16.6205 68.5403 16.5344 68.8271 16.3624C69.1138 16.1903 69.3637 15.9404 69.5767 15.6127V10.7336H71.0884V15.9445ZM76.5089 16.4238C76.5826 16.4566 76.644 16.5139 76.6932 16.5959C76.7424 16.6696 76.7669 16.7597 76.7669 16.8663C76.7669 17.0301 76.7096 17.1612 76.5949 17.2595C76.4638 17.366 76.2672 17.4521 76.005 17.5176C75.751 17.5832 75.4683 17.6159 75.157 17.6159C74.5998 17.6159 74.1533 17.4644 73.8174 17.1612C73.4896 16.8499 73.3258 16.4361 73.3258 15.9199V11.729H72.2074V10.7336H73.3258V8.89006H74.8128V10.7336H76.2508V11.729H74.8128V15.7602C74.8128 16.0715 74.8702 16.2968 74.9849 16.4361C75.0996 16.5672 75.284 16.6327 75.5379 16.6327C75.8493 16.6327 76.1729 16.5631 76.5089 16.4238ZM83.5453 13.6586C83.5453 13.7979 83.5289 14.0314 83.4961 14.3591H78.9734C79.0144 15.0637 79.1782 15.6086 79.465 15.9937C79.7517 16.3788 80.1409 16.5713 80.6325 16.5713C80.9685 16.5713 81.2429 16.5057 81.456 16.3747C81.6772 16.2354 81.9271 15.9691 82.2056 15.5758C82.2548 15.5021 82.3408 15.4652 82.4637 15.4652C82.6931 15.4652 83.0086 15.6086 83.4101 15.8953C83.1807 16.4525 82.8242 16.8785 82.3408 17.1735C81.8656 17.4685 81.2962 17.6159 80.6325 17.6159C79.6411 17.6159 78.8587 17.3046 78.2851 16.6819C77.7198 16.051 77.4371 15.1907 77.4371 14.101C77.4371 13.0195 77.7239 12.1674 78.2974 11.5447C78.871 10.922 79.6575 10.6107 80.6571 10.6107C81.5748 10.6107 82.2835 10.8769 82.7833 11.4095C83.2913 11.9421 83.5453 12.6918 83.5453 13.6586ZM82.0336 13.4496C82.0336 12.2288 81.5625 11.6184 80.6202 11.6184C80.1532 11.6184 79.7804 11.7741 79.5019 12.0855C79.2315 12.3886 79.0635 12.8433 78.998 13.4496H82.0336ZM87.9603 10.6475C88.3208 10.6475 88.583 10.7213 88.7469 10.8687C88.9189 11.0162 89.005 11.2415 89.005 11.5447C89.005 11.6594 88.9886 11.7741 88.9558 11.8888C88.923 11.9953 88.878 12.0814 88.8206 12.1469C88.7305 12.0896 88.6199 12.0486 88.4888 12.024C88.3659 11.9994 88.1979 11.9871 87.9849 11.9871C87.4523 11.9871 87.0427 12.1715 86.7559 12.5402C86.4691 12.9007 86.3258 13.421 86.3258 14.101V17.493H84.8387V10.7336H86.3258V11.7413C86.4978 11.3972 86.7272 11.1309 87.014 10.9425C87.3008 10.7458 87.6162 10.6475 87.9603 10.6475ZM90.2187 10.7336H91.7181V17.493H90.2187V10.7336ZM90.8947 9.49227C90.3457 9.49227 90.0712 9.21779 90.0712 8.66884V8.50907C90.0712 7.96012 90.3457 7.68564 90.8947 7.68564H91.0421C91.5911 7.68564 91.8656 7.96012 91.8656 8.50907V8.66884C91.8656 9.21779 91.5911 9.49227 91.0421 9.49227H90.8947ZM99.2898 15.8339C99.2898 16.2763 99.3021 16.5959 99.3266 16.7925C99.3512 16.9892 99.4045 17.1653 99.4864 17.321C99.1013 17.4767 98.6958 17.5545 98.2697 17.5545C98.0976 17.5545 97.9747 17.4603 97.901 17.2718C97.8355 17.0752 97.8027 16.7311 97.8027 16.2395V12.9949C97.8027 12.5197 97.7248 12.1838 97.5692 11.9871C97.4135 11.7823 97.1513 11.6799 96.7826 11.6799C96.25 11.6799 95.6847 11.9421 95.0866 12.4664V17.493H93.5995V12.9703C93.5995 11.9052 93.5504 11.2252 93.452 10.9302C93.9272 10.7663 94.3287 10.6844 94.6564 10.6844C94.8121 10.6844 94.9227 10.7417 94.9883 10.8565C95.0538 10.9712 95.0866 11.1514 95.0866 11.3972V11.5447C95.4963 11.2006 95.8609 10.9589 96.1804 10.8196C96.4999 10.6803 96.8359 10.6107 97.1882 10.6107C97.8928 10.6107 98.4172 10.8032 98.7613 11.1883C99.1136 11.5652 99.2898 12.1428 99.2898 12.9212V15.8339Z" fill="white"/>
<rect x="0.6" y="0.6" width="116.508" height="25.4806" rx="12.7403" stroke="white" stroke-width="1.2"/>
<path d="M129.664 47.6159C129.025 47.6159 128.464 47.5381 127.98 47.3824C127.497 47.2186 127.124 46.9892 126.862 46.6942C126.6 46.3992 126.469 46.0592 126.469 45.6741C126.469 45.4201 126.567 45.2235 126.764 45.0842C126.968 44.9449 127.251 44.8712 127.612 44.863C127.685 45.371 127.902 45.7643 128.263 46.0428C128.623 46.3214 129.099 46.4607 129.689 46.4607C130.254 46.4607 130.688 46.346 130.991 46.1166C131.303 45.8872 131.458 45.5594 131.458 45.1334C131.458 44.7892 131.307 44.5107 131.004 44.2976C130.709 44.0764 130.184 43.8634 129.43 43.6586C128.431 43.38 127.714 43.0441 127.28 42.6508C126.845 42.2575 126.628 41.7454 126.628 41.1145C126.628 40.3853 126.903 39.8118 127.452 39.3939C128.009 38.9761 128.771 38.7672 129.738 38.7672C130.541 38.7672 131.217 38.9556 131.766 39.3325C132.323 39.7094 132.704 40.2338 132.909 40.9056C132.802 41.0121 132.65 41.1064 132.454 41.1883C132.257 41.2702 132.081 41.3112 131.925 41.3112C131.786 41.3112 131.675 41.2825 131.594 41.2252C131.512 41.1596 131.43 41.0531 131.348 40.9056C131.02 40.242 130.483 39.9101 129.738 39.9101C128.714 39.9101 128.201 40.2706 128.201 40.9916C128.201 41.2293 128.251 41.4259 128.349 41.5816C128.447 41.729 128.619 41.8642 128.865 41.9871C129.111 42.11 129.471 42.2452 129.947 42.3927C130.791 42.6549 131.43 42.9007 131.864 43.1301C132.298 43.3513 132.605 43.5971 132.786 43.8675C132.966 44.1297 133.056 44.4656 133.056 44.8753C133.056 45.416 132.917 45.8953 132.638 46.3132C132.36 46.7229 131.962 47.0424 131.446 47.2718C130.938 47.5012 130.344 47.6159 129.664 47.6159ZM139.602 45.2317C139.602 45.8052 139.63 46.2272 139.688 46.4976C139.745 46.7679 139.852 47.0014 140.007 47.1981C139.868 47.3046 139.688 47.3947 139.466 47.4685C139.253 47.534 139.057 47.5668 138.877 47.5668C138.483 47.5668 138.246 47.2431 138.164 46.5959C137.713 47.2759 137.013 47.6159 136.062 47.6159C135.456 47.6159 134.964 47.4562 134.587 47.1366C134.219 46.8089 134.034 46.3828 134.034 45.8585C134.034 45.1129 134.366 44.5475 135.03 44.1625C135.693 43.7692 136.722 43.5357 138.115 43.4619V42.9089C138.115 42.1059 137.693 41.7045 136.849 41.7045C136.546 41.7045 136.259 41.7659 135.988 41.8888C135.718 42.0035 135.399 42.2043 135.03 42.491C134.972 42.532 134.915 42.5525 134.858 42.5525C134.727 42.5525 134.587 42.4787 134.44 42.3313C134.292 42.1756 134.161 41.9667 134.047 41.7045C134.383 41.3767 134.821 41.1145 135.362 40.9179C135.902 40.7131 136.451 40.6107 137.009 40.6107C137.836 40.6107 138.475 40.8114 138.926 41.2129C139.376 41.6143 139.602 42.1797 139.602 42.9089V45.2317ZM136.505 46.5959C137.135 46.5959 137.672 46.2026 138.115 45.416V44.3099C136.41 44.3837 135.558 44.8548 135.558 45.7233C135.558 46.0019 135.64 46.219 135.804 46.3747C135.968 46.5221 136.201 46.5959 136.505 46.5959ZM144.904 46.4238C144.978 46.4566 145.039 46.5139 145.088 46.5959C145.137 46.6696 145.162 46.7597 145.162 46.8663C145.162 47.0301 145.105 47.1612 144.99 47.2595C144.859 47.366 144.662 47.4521 144.4 47.5176C144.146 47.5832 143.863 47.6159 143.552 47.6159C142.995 47.6159 142.548 47.4644 142.212 47.1612C141.885 46.8499 141.721 46.4361 141.721 45.9199V41.729H140.602V40.7336H141.721V38.8901H143.208V40.7336H144.646V41.729H143.208V45.7602C143.208 46.0715 143.265 46.2968 143.38 46.4361C143.495 46.5672 143.679 46.6327 143.933 46.6327C144.244 46.6327 144.568 46.5631 144.904 46.4238ZM148.757 47.6159C147.774 47.6159 147.02 47.3128 146.496 46.7065C145.972 46.1002 145.709 45.2317 145.709 44.101C145.709 42.9703 145.972 42.1059 146.496 41.5078C147.02 40.9097 147.774 40.6107 148.757 40.6107C149.74 40.6107 150.49 40.9097 151.006 41.5078C151.531 42.1059 151.793 42.9703 151.793 44.101C151.793 45.2399 151.531 46.1125 151.006 46.7188C150.482 47.3169 149.732 47.6159 148.757 47.6159ZM148.757 46.5959C149.29 46.5959 149.675 46.3992 149.912 46.006C150.158 45.6045 150.281 44.9695 150.281 44.101C150.281 43.2407 150.158 42.6139 149.912 42.2206C149.675 41.8274 149.29 41.6307 148.757 41.6307C148.225 41.6307 147.835 41.8274 147.59 42.2206C147.352 42.6057 147.233 43.2325 147.233 44.101C147.233 44.9777 147.352 45.6127 147.59 46.006C147.835 46.3992 148.225 46.5959 148.757 46.5959ZM155.204 47.6159C154.72 47.6159 154.282 47.5586 153.889 47.4439C153.504 47.3292 153.197 47.1735 152.967 46.9769C152.746 46.772 152.635 46.5467 152.635 46.3009C152.635 46.1125 152.701 45.9527 152.832 45.8216C152.963 45.6823 153.147 45.6004 153.385 45.5758C153.59 45.9199 153.84 46.178 154.135 46.3501C154.438 46.5139 154.811 46.5959 155.253 46.5959C155.679 46.5959 155.99 46.5098 156.187 46.3378C156.392 46.1575 156.494 45.9199 156.494 45.625C156.494 45.3546 156.371 45.1498 156.126 45.0105C155.888 44.8712 155.515 44.7278 155.007 44.5803C154.54 44.441 154.155 44.3058 153.852 44.1747C153.549 44.0355 153.291 43.8306 153.078 43.5603C152.865 43.2899 152.758 42.9417 152.758 42.5156C152.758 42.1223 152.873 41.7823 153.102 41.4955C153.34 41.2006 153.647 40.9794 154.024 40.8319C154.409 40.6844 154.819 40.6107 155.253 40.6107C155.827 40.6107 156.33 40.7213 156.765 40.9425C157.207 41.1637 157.555 41.4669 157.809 41.8519C157.703 42.024 157.572 42.1715 157.416 42.2944C157.269 42.4091 157.133 42.4664 157.011 42.4664C156.871 42.4664 156.752 42.405 156.654 42.2821C156.277 41.8315 155.818 41.6061 155.278 41.6061C154.934 41.6061 154.663 41.6799 154.467 41.8274C154.27 41.9667 154.172 42.1838 154.172 42.4787C154.172 42.6754 154.237 42.8392 154.368 42.9703C154.499 43.0932 154.659 43.1916 154.847 43.2653C155.044 43.339 155.319 43.4251 155.671 43.5234C156.138 43.6545 156.519 43.7856 156.814 43.9167C157.117 44.0396 157.375 44.2321 157.588 44.4943C157.801 44.7565 157.908 45.1047 157.908 45.5389C157.908 46.1944 157.67 46.7065 157.195 47.0752C156.72 47.4357 156.056 47.6159 155.204 47.6159ZM162.984 40.6107C163.607 40.6107 164.102 40.7991 164.471 41.176C164.84 41.5529 165.024 42.065 165.024 42.7122V47.493H163.525V42.872C163.525 42.4787 163.439 42.1879 163.267 41.9994C163.103 41.8028 162.845 41.7045 162.492 41.7045C162.189 41.7045 161.874 41.77 161.546 41.9011C161.227 42.0322 160.911 42.2247 160.6 42.4787V47.493H159.1V37.7717H160.6V41.5201C160.919 41.2333 161.288 41.0121 161.706 40.8565C162.132 40.6926 162.558 40.6107 162.984 40.6107ZM167.075 40.7336H168.575V47.493H167.075V40.7336ZM167.751 39.4923C167.202 39.4923 166.928 39.2178 166.928 38.6688V38.5091C166.928 37.9601 167.202 37.6856 167.751 37.6856H167.899C168.448 37.6856 168.722 37.9601 168.722 38.5091V38.6688C168.722 39.2178 168.448 39.4923 167.899 39.4923H167.751ZM180.384 45.8093C180.384 46.0633 180.392 46.3624 180.409 46.7065C180.425 46.9359 180.433 47.0875 180.433 47.1612C180.433 47.3824 180.327 47.493 180.114 47.493H178.848V46.9892C178.848 46.5795 178.688 46.1248 178.368 45.625L175.198 41.0408V47.493H173.661V38.8901H175.026C175.132 38.8901 175.218 38.9064 175.284 38.9392C175.349 38.9638 175.419 39.0293 175.493 39.1359L178.848 43.9535V38.8901H180.384V45.8093ZM187.429 45.2317C187.429 45.8052 187.458 46.2272 187.515 46.4976C187.573 46.7679 187.679 47.0014 187.835 47.1981C187.696 47.3046 187.515 47.3947 187.294 47.4685C187.081 47.534 186.885 47.5668 186.704 47.5668C186.311 47.5668 186.073 47.2431 185.991 46.5959C185.541 47.2759 184.84 47.6159 183.89 47.6159C183.284 47.6159 182.792 47.4562 182.415 47.1366C182.046 46.8089 181.862 46.3828 181.862 45.8585C181.862 45.1129 182.194 44.5475 182.857 44.1625C183.521 43.7692 184.549 43.5357 185.942 43.4619V42.9089C185.942 42.1059 185.52 41.7045 184.676 41.7045C184.373 41.7045 184.086 41.7659 183.816 41.8888C183.546 42.0035 183.226 42.2043 182.857 42.491C182.8 42.532 182.743 42.5525 182.685 42.5525C182.554 42.5525 182.415 42.4787 182.268 42.3313C182.12 42.1756 181.989 41.9667 181.874 41.7045C182.21 41.3767 182.649 41.1145 183.189 40.9179C183.73 40.7131 184.279 40.6107 184.836 40.6107C185.664 40.6107 186.303 40.8114 186.753 41.2129C187.204 41.6143 187.429 42.1797 187.429 42.9089V45.2317ZM184.332 46.5959C184.963 46.5959 185.5 46.2026 185.942 45.416V44.3099C184.238 44.3837 183.386 44.8548 183.386 45.7233C183.386 46.0019 183.468 46.219 183.632 46.3747C183.796 46.5221 184.029 46.5959 184.332 46.5959ZM195.435 47.493C195.345 47.493 195.091 47.5053 194.673 47.5299C194.46 47.5463 194.329 47.5545 194.28 47.5545C194.108 47.5545 193.969 47.5217 193.862 47.4562C193.756 47.3906 193.662 47.2923 193.58 47.1612L192.412 45.1457C192.289 44.9326 192.134 44.7811 191.945 44.6909C191.757 44.5926 191.486 44.5557 191.134 44.5803L190.728 44.6049V47.493H189.241V37.7717H190.728V43.5111L191.072 43.4988C191.335 43.4824 191.531 43.4333 191.662 43.3513C191.802 43.2612 191.937 43.1014 192.068 42.872L193.334 40.7336H195.018L193.395 43.2407C193.289 43.421 193.19 43.5643 193.1 43.6709C193.018 43.7692 192.908 43.8552 192.768 43.9289C192.99 43.9863 193.17 44.0723 193.309 44.187C193.457 44.3017 193.588 44.4533 193.703 44.6418L195.435 47.493ZM201.676 45.2317C201.676 45.8052 201.704 46.2272 201.762 46.4976C201.819 46.7679 201.926 47.0014 202.081 47.1981C201.942 47.3046 201.762 47.3947 201.54 47.4685C201.327 47.534 201.131 47.5668 200.951 47.5668C200.557 47.5668 200.32 47.2431 200.238 46.5959C199.787 47.2759 199.087 47.6159 198.136 47.6159C197.53 47.6159 197.038 47.4562 196.661 47.1366C196.293 46.8089 196.108 46.3828 196.108 45.8585C196.108 45.1129 196.44 44.5475 197.104 44.1625C197.767 43.7692 198.796 43.5357 200.189 43.4619V42.9089C200.189 42.1059 199.767 41.7045 198.923 41.7045C198.62 41.7045 198.333 41.7659 198.062 41.8888C197.792 42.0035 197.472 42.2043 197.104 42.491C197.046 42.532 196.989 42.5525 196.932 42.5525C196.801 42.5525 196.661 42.4787 196.514 42.3313C196.366 42.1756 196.235 41.9667 196.121 41.7045C196.457 41.3767 196.895 41.1145 197.436 40.9179C197.976 40.7131 198.525 40.6107 199.082 40.6107C199.91 40.6107 200.549 40.8114 201 41.2129C201.45 41.6143 201.676 42.1797 201.676 42.9089V45.2317ZM198.579 46.5959C199.209 46.5959 199.746 46.2026 200.189 45.416V44.3099C198.484 44.3837 197.632 44.8548 197.632 45.7233C197.632 46.0019 197.714 46.219 197.878 46.3747C198.042 46.5221 198.275 46.5959 198.579 46.5959ZM210.739 40.6107C211.37 40.6107 211.865 40.8032 212.226 41.1883C212.594 41.5652 212.779 42.0773 212.779 42.7245V47.493H211.279V42.7614C211.279 42.3353 211.206 42.0363 211.058 41.8642C210.919 41.6922 210.673 41.6061 210.321 41.6061C209.78 41.6061 209.301 41.8478 208.883 42.3313C208.891 42.3722 208.895 42.4378 208.895 42.5279V47.493H207.396V42.6385C207.396 42.278 207.326 42.0158 207.187 41.8519C207.048 41.6881 206.83 41.6061 206.535 41.6061C206.265 41.6061 206.003 41.6758 205.749 41.8151C205.503 41.9462 205.249 42.1592 204.987 42.4542V47.493H203.5V43.1178C203.5 41.9298 203.451 41.2088 203.352 40.9548C203.492 40.8728 203.66 40.8073 203.856 40.7581C204.053 40.709 204.229 40.6844 204.385 40.6844C204.573 40.6844 204.717 40.7499 204.815 40.881C204.913 41.0121 204.966 41.217 204.975 41.4955C205.286 41.1842 205.601 40.9589 205.921 40.8196C206.249 40.6803 206.609 40.6107 207.002 40.6107C207.388 40.6107 207.724 40.6926 208.01 40.8565C208.297 41.0121 208.518 41.2374 208.674 41.5324C209.182 40.9179 209.87 40.6107 210.739 40.6107ZM217.192 47.6159C216.209 47.6159 215.455 47.3128 214.931 46.7065C214.406 46.1002 214.144 45.2317 214.144 44.101C214.144 42.9703 214.406 42.1059 214.931 41.5078C215.455 40.9097 216.209 40.6107 217.192 40.6107C218.175 40.6107 218.925 40.9097 219.441 41.5078C219.966 42.1059 220.228 42.9703 220.228 44.101C220.228 45.2399 219.966 46.1125 219.441 46.7188C218.917 47.3169 218.167 47.6159 217.192 47.6159ZM217.192 46.5959C217.725 46.5959 218.11 46.3992 218.347 46.006C218.593 45.6045 218.716 44.9695 218.716 44.101C218.716 43.2407 218.593 42.6139 218.347 42.2206C218.11 41.8274 217.725 41.6307 217.192 41.6307C216.66 41.6307 216.27 41.8274 216.025 42.2206C215.787 42.6057 215.668 43.2325 215.668 44.101C215.668 44.9777 215.787 45.6127 216.025 46.006C216.27 46.3992 216.66 46.5959 217.192 46.5959ZM225.077 46.4238C225.151 46.4566 225.212 46.5139 225.261 46.5959C225.31 46.6696 225.335 46.7597 225.335 46.8663C225.335 47.0301 225.278 47.1612 225.163 47.2595C225.032 47.366 224.835 47.4521 224.573 47.5176C224.319 47.5832 224.036 47.6159 223.725 47.6159C223.168 47.6159 222.721 47.4644 222.385 47.1612C222.058 46.8499 221.894 46.4361 221.894 45.9199V41.729H220.775V40.7336H221.894V38.8901H223.381V40.7336H224.819V41.729H223.381V45.7602C223.381 46.0715 223.438 46.2968 223.553 46.4361C223.668 46.5672 223.852 46.6327 224.106 46.6327C224.417 46.6327 224.741 46.5631 225.077 46.4238ZM228.93 47.6159C227.947 47.6159 227.193 47.3128 226.669 46.7065C226.144 46.1002 225.882 45.2317 225.882 44.101C225.882 42.9703 226.144 42.1059 226.669 41.5078C227.193 40.9097 227.947 40.6107 228.93 40.6107C229.913 40.6107 230.663 40.9097 231.179 41.5078C231.704 42.1059 231.966 42.9703 231.966 44.101C231.966 45.2399 231.704 46.1125 231.179 46.7188C230.655 47.3169 229.905 47.6159 228.93 47.6159ZM228.93 46.5959C229.463 46.5959 229.848 46.3992 230.085 46.006C230.331 45.6045 230.454 44.9695 230.454 44.101C230.454 43.2407 230.331 42.6139 230.085 42.2206C229.848 41.8274 229.463 41.6307 228.93 41.6307C228.398 41.6307 228.008 41.8274 227.763 42.2206C227.525 42.6057 227.406 43.2325 227.406 44.101C227.406 44.9777 227.525 45.6127 227.763 46.006C228.008 46.3992 228.398 46.5959 228.93 46.5959Z" fill="white"/>
<rect x="120.6" y="30.6" width="116.508" height="25.4806" rx="12.7403" stroke="white" stroke-width="1.2"/>
<path d="M133.991 17.6159C132.729 17.6159 131.758 17.235 131.078 16.473C130.398 15.7028 130.058 14.6131 130.058 13.2038C130.058 11.8028 130.402 10.7131 131.09 9.93471C131.778 9.15634 132.745 8.76716 133.991 8.76716C134.49 8.76716 134.966 8.85319 135.416 9.02525C135.875 9.19731 136.248 9.43082 136.535 9.72578C136.494 9.95519 136.403 10.16 136.264 10.3403C136.125 10.5205 135.99 10.6107 135.859 10.6107C135.744 10.6107 135.637 10.5738 135.539 10.5C135.277 10.3034 135.023 10.16 134.777 10.0699C134.531 9.97977 134.261 9.93471 133.966 9.93471C133.204 9.93471 132.626 10.2092 132.233 10.7581C131.848 11.3071 131.655 12.1223 131.655 13.2038C131.655 14.2772 131.848 15.0883 132.233 15.6373C132.626 16.178 133.204 16.4484 133.966 16.4484C134.728 16.4484 135.379 16.178 135.92 15.6373C136.084 15.7028 136.215 15.8011 136.313 15.9322C136.412 16.0633 136.461 16.2067 136.461 16.3624C136.461 16.5836 136.346 16.7925 136.117 16.9892C135.887 17.1776 135.584 17.3292 135.207 17.4439C134.83 17.5586 134.425 17.6159 133.991 17.6159ZM141.746 10.6107C142.369 10.6107 142.864 10.7991 143.233 11.176C143.602 11.5529 143.786 12.065 143.786 12.7122V17.493H142.287V12.872C142.287 12.4787 142.201 12.1879 142.029 11.9994C141.865 11.8028 141.607 11.7045 141.254 11.7045C140.951 11.7045 140.636 11.77 140.308 11.9011C139.989 12.0322 139.673 12.2247 139.362 12.4787V17.493H137.862V7.77167H139.362V11.5201C139.681 11.2333 140.05 11.0121 140.468 10.8565C140.894 10.6926 141.32 10.6107 141.746 10.6107ZM150.913 15.2317C150.913 15.8052 150.942 16.2272 150.999 16.4976C151.056 16.7679 151.163 17.0014 151.319 17.1981C151.179 17.3046 150.999 17.3947 150.778 17.4685C150.565 17.534 150.368 17.5668 150.188 17.5668C149.795 17.5668 149.557 17.2431 149.475 16.5959C149.024 17.2759 148.324 17.6159 147.373 17.6159C146.767 17.6159 146.276 17.4562 145.899 17.1366C145.53 16.8089 145.346 16.3828 145.346 15.8585C145.346 15.1129 145.677 14.5475 146.341 14.1625C147.005 13.7692 148.033 13.5357 149.426 13.4619V12.9089C149.426 12.1059 149.004 11.7045 148.16 11.7045C147.857 11.7045 147.57 11.7659 147.3 11.8888C147.029 12.0035 146.71 12.2043 146.341 12.491C146.284 12.532 146.226 12.5525 146.169 12.5525C146.038 12.5525 145.899 12.4787 145.751 12.3313C145.604 12.1756 145.473 11.9667 145.358 11.7045C145.694 11.3767 146.132 11.1145 146.673 10.9179C147.214 10.7131 147.763 10.6107 148.32 10.6107C149.147 10.6107 149.786 10.8114 150.237 11.2129C150.688 11.6143 150.913 12.1797 150.913 12.9089V15.2317ZM147.816 16.5959C148.447 16.5959 148.983 16.2026 149.426 15.416V14.3099C147.722 14.3837 146.87 14.8548 146.87 15.7233C146.87 16.0019 146.951 16.219 147.115 16.3747C147.279 16.5221 147.513 16.5959 147.816 16.5959ZM158.317 15.8339C158.317 16.2763 158.329 16.5959 158.354 16.7925C158.378 16.9892 158.431 17.1653 158.513 17.321C158.128 17.4767 157.723 17.5545 157.297 17.5545C157.125 17.5545 157.002 17.4603 156.928 17.2718C156.862 17.0752 156.83 16.7311 156.83 16.2395V12.9949C156.83 12.5197 156.752 12.1838 156.596 11.9871C156.441 11.7823 156.178 11.6799 155.81 11.6799C155.277 11.6799 154.712 11.9421 154.114 12.4664V17.493H152.627V12.9703C152.627 11.9052 152.577 11.2252 152.479 10.9302C152.954 10.7663 153.356 10.6844 153.683 10.6844C153.839 10.6844 153.95 10.7417 154.015 10.8565C154.081 10.9712 154.114 11.1514 154.114 11.3972V11.5447C154.523 11.2006 154.888 10.9589 155.207 10.8196C155.527 10.6803 155.863 10.6107 156.215 10.6107C156.92 10.6107 157.444 10.8032 157.788 11.1883C158.141 11.5652 158.317 12.1428 158.317 12.9212V15.8339ZM165.695 10.1313C165.957 10.1313 166.138 10.2215 166.236 10.4017C166.334 10.582 166.379 10.8892 166.371 11.3235C165.789 11.3235 165.376 11.3931 165.13 11.5324C165.425 11.9175 165.572 12.364 165.572 12.872C165.572 13.6422 165.326 14.228 164.835 14.6295C164.351 15.031 163.639 15.2317 162.696 15.2317C162.254 15.2317 161.943 15.2645 161.762 15.33C161.582 15.3874 161.492 15.4939 161.492 15.6495C161.492 15.8052 161.598 15.9117 161.811 15.9691C162.033 16.0264 162.451 16.0551 163.065 16.0551C164.024 16.0551 164.761 16.219 165.277 16.5467C165.802 16.8744 166.064 17.3374 166.064 17.9355C166.064 18.5828 165.773 19.0907 165.191 19.4594C164.618 19.8281 163.827 20.0125 162.819 20.0125C161.82 20.0125 161.054 19.8527 160.521 19.5332C159.988 19.2218 159.722 18.7753 159.722 18.1936C159.722 17.8249 159.849 17.5258 160.103 17.2964C160.365 17.067 160.746 16.9113 161.246 16.8294V16.7925C160.935 16.727 160.693 16.6123 160.521 16.4484C160.349 16.2763 160.263 16.0674 160.263 15.8216C160.263 15.6086 160.349 15.4201 160.521 15.2563C160.701 15.0924 160.939 14.9736 161.234 14.8999C160.849 14.695 160.546 14.4287 160.324 14.101C160.103 13.7733 159.993 13.4128 159.993 13.0195C159.993 12.2411 160.242 11.6471 160.742 11.2374C161.25 10.8196 161.979 10.6107 162.93 10.6107C163.446 10.6107 163.905 10.7049 164.306 10.8933C164.503 10.6639 164.728 10.4796 164.982 10.3403C165.236 10.201 165.474 10.1313 165.695 10.1313ZM162.77 14.2116C163.213 14.2116 163.536 14.1092 163.741 13.9044C163.946 13.6995 164.048 13.3718 164.048 12.9212C164.048 12.4623 163.946 12.1305 163.741 11.9257C163.536 11.7127 163.213 11.6061 162.77 11.6061C162.336 11.6061 162.016 11.7127 161.811 11.9257C161.607 12.1387 161.504 12.4705 161.504 12.9212C161.504 13.3554 161.607 13.6791 161.811 13.8921C162.024 14.1051 162.344 14.2116 162.77 14.2116ZM162.868 17.0629C161.787 17.0629 161.246 17.3783 161.246 18.0092C161.246 18.3451 161.373 18.595 161.627 18.7589C161.889 18.9228 162.287 19.0047 162.819 19.0047C163.401 19.0047 163.843 18.9187 164.147 18.7466C164.458 18.5828 164.614 18.337 164.614 18.0092C164.614 17.6815 164.47 17.4439 164.183 17.2964C163.905 17.1407 163.467 17.0629 162.868 17.0629ZM170.697 10.6107C171.582 10.6107 172.253 10.9015 172.712 11.4832C173.179 12.0568 173.413 12.9007 173.413 14.015C173.413 14.736 173.282 15.3669 173.019 15.9076C172.765 16.4484 172.401 16.8704 171.926 17.1735C171.45 17.4685 170.901 17.6159 170.279 17.6159C169.828 17.6159 169.349 17.5299 168.841 17.3579V20.2583H167.354V13.2161C167.354 12.5852 167.329 12.1059 167.28 11.7782C167.239 11.4505 167.157 11.2006 167.034 11.0285C167.231 10.922 167.432 10.8401 167.636 10.7827C167.849 10.7172 168.042 10.6844 168.214 10.6844C168.37 10.6844 168.493 10.7417 168.583 10.8565C168.681 10.9712 168.751 11.1514 168.792 11.3972C169.291 10.8728 169.926 10.6107 170.697 10.6107ZM170.107 16.5959C170.68 16.5959 171.119 16.3747 171.422 15.9322C171.733 15.4898 171.889 14.8507 171.889 14.015C171.889 13.1956 171.77 12.5893 171.532 12.1961C171.295 11.8028 170.926 11.6061 170.426 11.6061C170.123 11.6061 169.828 11.6758 169.541 11.8151C169.263 11.9544 169.029 12.1387 168.841 12.3681V16.3255C169.226 16.5057 169.648 16.5959 170.107 16.5959ZM180.438 13.6586C180.438 13.7979 180.422 14.0314 180.389 14.3591H175.866C175.907 15.0637 176.071 15.6086 176.358 15.9937C176.645 16.3788 177.034 16.5713 177.526 16.5713C177.862 16.5713 178.136 16.5057 178.349 16.3747C178.57 16.2354 178.82 15.9691 179.099 15.5758C179.148 15.5021 179.234 15.4652 179.357 15.4652C179.586 15.4652 179.902 15.6086 180.303 15.8953C180.074 16.4525 179.717 16.8785 179.234 17.1735C178.759 17.4685 178.189 17.6159 177.526 17.6159C176.534 17.6159 175.752 17.3046 175.178 16.6819C174.613 16.051 174.33 15.1907 174.33 14.101C174.33 13.0195 174.617 12.1674 175.191 11.5447C175.764 10.922 176.551 10.6107 177.55 10.6107C178.468 10.6107 179.177 10.8769 179.676 11.4095C180.184 11.9421 180.438 12.6918 180.438 13.6586ZM178.927 13.4496C178.927 12.2288 178.456 11.6184 177.513 11.6184C177.046 11.6184 176.674 11.7741 176.395 12.0855C176.125 12.3886 175.957 12.8433 175.891 13.4496H178.927ZM187.397 15.8339C187.397 16.2763 187.41 16.5959 187.434 16.7925C187.459 16.9892 187.512 17.1653 187.594 17.321C187.209 17.4767 186.803 17.5545 186.377 17.5545C186.205 17.5545 186.082 17.4603 186.009 17.2718C185.943 17.0752 185.91 16.7311 185.91 16.2395V12.9949C185.91 12.5197 185.833 12.1838 185.677 11.9871C185.521 11.7823 185.259 11.6799 184.89 11.6799C184.358 11.6799 183.792 11.9421 183.194 12.4664V17.493H181.707V12.9703C181.707 11.9052 181.658 11.2252 181.56 10.9302C182.035 10.7663 182.436 10.6844 182.764 10.6844C182.92 10.6844 183.03 10.7417 183.096 10.8565C183.162 10.9712 183.194 11.1514 183.194 11.3972V11.5447C183.604 11.2006 183.969 10.9589 184.288 10.8196C184.608 10.6803 184.944 10.6107 185.296 10.6107C186 10.6107 186.525 10.8032 186.869 11.1883C187.221 11.5652 187.397 12.1428 187.397 12.9212V15.8339ZM194.776 10.1313C195.038 10.1313 195.218 10.2215 195.317 10.4017C195.415 10.582 195.46 10.8892 195.452 11.3235C194.87 11.3235 194.456 11.3931 194.21 11.5324C194.505 11.9175 194.653 12.364 194.653 12.872C194.653 13.6422 194.407 14.228 193.915 14.6295C193.432 15.031 192.719 15.2317 191.777 15.2317C191.335 15.2317 191.023 15.2645 190.843 15.33C190.663 15.3874 190.573 15.4939 190.573 15.6495C190.573 15.8052 190.679 15.9117 190.892 15.9691C191.113 16.0264 191.531 16.0551 192.146 16.0551C193.104 16.0551 193.842 16.219 194.358 16.5467C194.882 16.8744 195.144 17.3374 195.144 17.9355C195.144 18.5828 194.854 19.0907 194.272 19.4594C193.698 19.8281 192.908 20.0125 191.9 20.0125C190.9 20.0125 190.134 19.8527 189.602 19.5332C189.069 19.2218 188.803 18.7753 188.803 18.1936C188.803 17.8249 188.93 17.5258 189.184 17.2964C189.446 17.067 189.827 16.9113 190.327 16.8294V16.7925C190.015 16.727 189.774 16.6123 189.602 16.4484C189.43 16.2763 189.344 16.0674 189.344 15.8216C189.344 15.6086 189.43 15.4201 189.602 15.2563C189.782 15.0924 190.02 14.9736 190.314 14.8999C189.929 14.695 189.626 14.4287 189.405 14.101C189.184 13.7733 189.073 13.4128 189.073 13.0195C189.073 12.2411 189.323 11.6471 189.823 11.2374C190.331 10.8196 191.06 10.6107 192.011 10.6107C192.527 10.6107 192.986 10.7049 193.387 10.8933C193.584 10.6639 193.809 10.4796 194.063 10.3403C194.317 10.201 194.555 10.1313 194.776 10.1313ZM191.851 14.2116C192.293 14.2116 192.617 14.1092 192.822 13.9044C193.026 13.6995 193.129 13.3718 193.129 12.9212C193.129 12.4623 193.026 12.1305 192.822 11.9257C192.617 11.7127 192.293 11.6061 191.851 11.6061C191.416 11.6061 191.097 11.7127 190.892 11.9257C190.687 12.1387 190.585 12.4705 190.585 12.9212C190.585 13.3554 190.687 13.6791 190.892 13.8921C191.105 14.1051 191.425 14.2116 191.851 14.2116ZM191.949 17.0629C190.868 17.0629 190.327 17.3783 190.327 18.0092C190.327 18.3451 190.454 18.595 190.708 18.7589C190.97 18.9228 191.367 19.0047 191.9 19.0047C192.482 19.0047 192.924 18.9187 193.227 18.7466C193.539 18.5828 193.694 18.337 193.694 18.0092C193.694 17.6815 193.551 17.4439 193.264 17.2964C192.986 17.1407 192.547 17.0629 191.949 17.0629ZM205.281 16.4238V17.493H199.283V16.4238L203.499 9.95929H199.259V8.89006H205.183V10.0084L201.029 16.4238H205.281ZM210.505 10.6107C211.128 10.6107 211.623 10.7991 211.992 11.176C212.361 11.5529 212.545 12.065 212.545 12.7122V17.493H211.046V12.872C211.046 12.4787 210.96 12.1879 210.788 11.9994C210.624 11.8028 210.366 11.7045 210.013 11.7045C209.71 11.7045 209.395 11.77 209.067 11.9011C208.748 12.0322 208.432 12.2247 208.121 12.4787V17.493H206.621V7.77167H208.121V11.5201C208.44 11.2333 208.809 11.0121 209.227 10.8565C209.653 10.6926 210.079 10.6107 210.505 10.6107ZM219.672 15.2317C219.672 15.8052 219.701 16.2272 219.758 16.4976C219.815 16.7679 219.922 17.0014 220.078 17.1981C219.938 17.3046 219.758 17.3947 219.537 17.4685C219.324 17.534 219.127 17.5668 218.947 17.5668C218.554 17.5668 218.316 17.2431 218.234 16.5959C217.783 17.2759 217.083 17.6159 216.132 17.6159C215.526 17.6159 215.035 17.4562 214.658 17.1366C214.289 16.8089 214.105 16.3828 214.105 15.8585C214.105 15.1129 214.436 14.5475 215.1 14.1625C215.764 13.7692 216.792 13.5357 218.185 13.4619V12.9089C218.185 12.1059 217.763 11.7045 216.919 11.7045C216.616 11.7045 216.329 11.7659 216.059 11.8888C215.788 12.0035 215.469 12.2043 215.1 12.491C215.043 12.532 214.985 12.5525 214.928 12.5525C214.797 12.5525 214.658 12.4787 214.51 12.3313C214.363 12.1756 214.232 11.9667 214.117 11.7045C214.453 11.3767 214.891 11.1145 215.432 10.9179C215.973 10.7131 216.522 10.6107 217.079 10.6107C217.906 10.6107 218.545 10.8114 218.996 11.2129C219.447 11.6143 219.672 12.1797 219.672 12.9089V15.2317ZM216.575 16.5959C217.206 16.5959 217.742 16.2026 218.185 15.416V14.3099C216.481 14.3837 215.629 14.8548 215.629 15.7233C215.629 16.0019 215.711 16.219 215.874 16.3747C216.038 16.5221 216.272 16.5959 216.575 16.5959ZM223.979 17.6159C222.996 17.6159 222.242 17.3128 221.717 16.7065C221.193 16.1002 220.931 15.2317 220.931 14.101C220.931 12.9703 221.193 12.1059 221.717 11.5078C222.242 10.9097 222.996 10.6107 223.979 10.6107C224.962 10.6107 225.712 10.9097 226.228 11.5078C226.752 12.1059 227.014 12.9703 227.014 14.101C227.014 15.2399 226.752 16.1125 226.228 16.7188C225.703 17.3169 224.954 17.6159 223.979 17.6159ZM223.979 16.5959C224.511 16.5959 224.896 16.3992 225.134 16.006C225.38 15.6045 225.503 14.9695 225.503 14.101C225.503 13.2407 225.38 12.6139 225.134 12.2206C224.896 11.8274 224.511 11.6307 223.979 11.6307C223.446 11.6307 223.057 11.8274 222.811 12.2206C222.574 12.6057 222.455 13.2325 222.455 14.101C222.455 14.9777 222.574 15.6127 222.811 16.006C223.057 16.3992 223.446 16.5959 223.979 16.5959Z" fill="white"/>
<rect x="120.6" y="0.6" width="116.508" height="25.4806" rx="12.7403" stroke="white" stroke-width="1.2"/>
<path d="M23.1465 77.4439C22.9416 77.5504 22.6098 77.6037 22.151 77.6037C21.9379 77.6037 21.7659 77.5709 21.6348 77.5053C21.5119 77.448 21.4095 77.3538 21.3275 77.2227L19.6192 74.4451C19.48 74.2157 19.3571 74.0518 19.2505 73.9535C19.1522 73.847 19.0334 73.7774 18.8941 73.7446C18.7548 73.7036 18.5582 73.6832 18.3042 73.6832H18.083V77.493H16.5222V68.8901H18.083V72.5893H18.7098H18.8081L21.3644 68.8901H23.0481L20.1354 72.9826C20.4631 73.2038 20.7704 73.5521 21.0572 74.0273L23.1465 77.4439ZM26.826 77.6159C25.8428 77.6159 25.089 77.3128 24.5646 76.7065C24.0402 76.1002 23.778 75.2317 23.778 74.101C23.778 72.9703 24.0402 72.1059 24.5646 71.5078C25.089 70.9097 25.8428 70.6107 26.826 70.6107C27.8092 70.6107 28.5588 70.9097 29.075 71.5078C29.5994 72.1059 29.8616 72.9703 29.8616 74.101C29.8616 75.2399 29.5994 76.1125 29.075 76.7188C28.5507 77.3169 27.801 77.6159 26.826 77.6159ZM26.826 76.5959C27.3585 76.5959 27.7436 76.3992 27.9812 76.006C28.227 75.6045 28.3499 74.9695 28.3499 74.101C28.3499 73.2407 28.227 72.6139 27.9812 72.2206C27.7436 71.8274 27.3585 71.6307 26.826 71.6307C26.2934 71.6307 25.9042 71.8274 25.6584 72.2206C25.4208 72.6057 25.302 73.2325 25.302 74.101C25.302 74.9777 25.4208 75.6127 25.6584 76.006C25.9042 76.3992 26.2934 76.5959 26.826 76.5959ZM33.2726 77.6159C32.7892 77.6159 32.3509 77.5586 31.9576 77.4439C31.5725 77.3292 31.2653 77.1735 31.0359 76.9769C30.8146 76.772 30.704 76.5467 30.704 76.3009C30.704 76.1125 30.7696 75.9527 30.9007 75.8216C31.0318 75.6823 31.2161 75.6004 31.4537 75.5758C31.6585 75.9199 31.9084 76.178 32.2034 76.3501C32.5066 76.5139 32.8793 76.5959 33.3218 76.5959C33.7478 76.5959 34.0592 76.5098 34.2558 76.3378C34.4607 76.1575 34.5631 75.9199 34.5631 75.625C34.5631 75.3546 34.4402 75.1498 34.1944 75.0105C33.9568 74.8712 33.584 74.7278 33.076 74.5803C32.609 74.441 32.2239 74.3058 31.9207 74.1747C31.6176 74.0355 31.3595 73.8306 31.1465 73.5603C30.9334 73.2899 30.8269 72.9417 30.8269 72.5156C30.8269 72.1223 30.9416 71.7823 31.171 71.4955C31.4086 71.2006 31.7159 70.9794 32.0928 70.8319C32.4779 70.6844 32.8875 70.6107 33.3218 70.6107C33.8953 70.6107 34.3992 70.7213 34.8335 70.9425C35.2759 71.1637 35.6241 71.4669 35.8781 71.8519C35.7716 72.024 35.6405 72.1715 35.4848 72.2944C35.3373 72.4091 35.2022 72.4664 35.0793 72.4664C34.94 72.4664 34.8212 72.405 34.7228 72.2821C34.346 71.8315 33.8871 71.6061 33.3464 71.6061C33.0022 71.6061 32.7319 71.6799 32.5352 71.8274C32.3386 71.9667 32.2403 72.1838 32.2403 72.4787C32.2403 72.6754 32.3058 72.8392 32.4369 72.9703C32.568 73.0932 32.7278 73.1916 32.9162 73.2653C33.1129 73.339 33.3873 73.4251 33.7396 73.5234C34.2067 73.6545 34.5877 73.7856 34.8826 73.9167C35.1858 74.0396 35.4439 74.2321 35.6569 74.4943C35.8699 74.7565 35.9764 75.1047 35.9764 75.5389C35.9764 76.1944 35.7388 76.7065 35.2636 77.0752C34.7884 77.4357 34.1247 77.6159 33.2726 77.6159ZM40.8315 76.4238C40.9053 76.4566 40.9667 76.5139 41.0159 76.5959C41.065 76.6696 41.0896 76.7597 41.0896 76.8663C41.0896 77.0301 41.0323 77.1612 40.9176 77.2595C40.7865 77.366 40.5898 77.4521 40.3276 77.5176C40.0737 77.5832 39.791 77.6159 39.4796 77.6159C38.9225 77.6159 38.476 77.4644 38.14 77.1612C37.8123 76.8499 37.6484 76.4361 37.6484 75.9199V71.729H36.53V70.7336H37.6484V68.8901H39.1355V70.7336H40.5734V71.729H39.1355V75.7602C39.1355 76.0715 39.1929 76.2968 39.3076 76.4361C39.4223 76.5672 39.6066 76.6327 39.8606 76.6327C40.172 76.6327 40.4956 76.5631 40.8315 76.4238ZM47.3272 75.2317C47.3272 75.8052 47.3558 76.2272 47.4132 76.4976C47.4706 76.7679 47.5771 77.0014 47.7327 77.1981C47.5935 77.3046 47.4132 77.3947 47.192 77.4685C46.979 77.534 46.7823 77.5668 46.6021 77.5668C46.2088 77.5668 45.9712 77.2431 45.8892 76.5959C45.4386 77.2759 44.7381 77.6159 43.7877 77.6159C43.1814 77.6159 42.6898 77.4562 42.3129 77.1366C41.9442 76.8089 41.7598 76.3828 41.7598 75.8585C41.7598 75.1129 42.0916 74.5475 42.7553 74.1625C43.419 73.7692 44.4472 73.5357 45.8401 73.4619V72.9089C45.8401 72.1059 45.4181 71.7045 44.5742 71.7045C44.2711 71.7045 43.9843 71.7659 43.7139 71.8888C43.4435 72.0035 43.124 72.2043 42.7553 72.491C42.6979 72.532 42.6406 72.5525 42.5832 72.5525C42.4522 72.5525 42.3129 72.4787 42.1654 72.3313C42.0179 72.1756 41.8868 71.9667 41.7721 71.7045C42.108 71.3767 42.5464 71.1145 43.0871 70.9179C43.6279 70.7131 44.1768 70.6107 44.734 70.6107C45.5615 70.6107 46.2006 70.8114 46.6512 71.2129C47.1019 71.6143 47.3272 72.1797 47.3272 72.9089V75.2317ZM44.2301 76.5959C44.861 76.5959 45.3976 76.2026 45.8401 75.416V74.3099C44.1359 74.3837 43.2838 74.8548 43.2838 75.7233C43.2838 76.0019 43.3657 76.219 43.5296 76.3747C43.6934 76.5221 43.9269 76.5959 44.2301 76.5959ZM51.1915 77.6159C50.7081 77.6159 50.2698 77.5586 49.8765 77.4439C49.4914 77.3292 49.1841 77.1735 48.9547 76.9769C48.7335 76.772 48.6229 76.5467 48.6229 76.3009C48.6229 76.1125 48.6884 75.9527 48.8195 75.8216C48.9506 75.6823 49.135 75.6004 49.3726 75.5758C49.5774 75.9199 49.8273 76.178 50.1223 76.3501C50.4254 76.5139 50.7982 76.5959 51.2407 76.5959C51.6667 76.5959 51.9781 76.5098 52.1747 76.3378C52.3795 76.1575 52.482 75.9199 52.482 75.625C52.482 75.3546 52.3591 75.1498 52.1133 75.0105C51.8756 74.8712 51.5029 74.7278 50.9949 74.5803C50.5278 74.441 50.1428 74.3058 49.8396 74.1747C49.5365 74.0355 49.2784 73.8306 49.0653 73.5603C48.8523 73.2899 48.7458 72.9417 48.7458 72.5156C48.7458 72.1223 48.8605 71.7823 49.0899 71.4955C49.3275 71.2006 49.6348 70.9794 50.0117 70.8319C50.3968 70.6844 50.8064 70.6107 51.2407 70.6107C51.8142 70.6107 52.3181 70.7213 52.7523 70.9425C53.1948 71.1637 53.543 71.4669 53.797 71.8519C53.6905 72.024 53.5594 72.1715 53.4037 72.2944C53.2562 72.4091 53.121 72.4664 52.9981 72.4664C52.8588 72.4664 52.74 72.405 52.6417 72.2821C52.2648 71.8315 51.806 71.6061 51.2652 71.6061C50.9211 71.6061 50.6507 71.6799 50.4541 71.8274C50.2575 71.9667 50.1591 72.1838 50.1591 72.4787C50.1591 72.6754 50.2247 72.8392 50.3558 72.9703C50.4869 73.0932 50.6466 73.1916 50.8351 73.2653C51.0317 73.339 51.3062 73.4251 51.6585 73.5234C52.1255 73.6545 52.5065 73.7856 52.8015 73.9167C53.1046 74.0396 53.3627 74.2321 53.5758 74.4943C53.7888 74.7565 53.8953 75.1047 53.8953 75.5389C53.8953 76.1944 53.6577 76.7065 53.1825 77.0752C52.7073 77.4357 52.0436 77.6159 51.1915 77.6159ZM65.2372 77.4439C65.0324 77.5504 64.7006 77.6037 64.2417 77.6037C64.0287 77.6037 63.8566 77.5709 63.7256 77.5053C63.6027 77.448 63.5002 77.3538 63.4183 77.2227L61.71 74.4451C61.5707 74.2157 61.4478 74.0518 61.3413 73.9535C61.243 73.847 61.1242 73.7774 60.9849 73.7446C60.8456 73.7036 60.649 73.6832 60.395 73.6832H60.1737V77.493H58.6129V68.8901H60.1737V72.5893H60.8005H60.8989L63.4552 68.8901H65.1389L62.2262 72.9826C62.5539 73.2038 62.8612 73.5521 63.1479 74.0273L65.2372 77.4439ZM69.4698 70.6475C69.8303 70.6475 70.0925 70.7213 70.2563 70.8687C70.4284 71.0162 70.5144 71.2415 70.5144 71.5447C70.5144 71.6594 70.498 71.7741 70.4653 71.8888C70.4325 71.9953 70.3874 72.0814 70.3301 72.1469C70.2399 72.0896 70.1293 72.0486 69.9982 72.024C69.8753 71.9994 69.7074 71.9871 69.4943 71.9871C68.9618 71.9871 68.5521 72.1715 68.2654 72.5402C67.9786 72.9007 67.8352 73.421 67.8352 74.101V77.493H66.3481V70.7336H67.8352V71.7413C68.0073 71.3972 68.2367 71.1309 68.5234 70.9425C68.8102 70.7458 69.1256 70.6475 69.4698 70.6475ZM77.062 70.7336L74.4442 78.0092C74.1902 78.7384 73.8748 79.2587 73.4979 79.57C73.121 79.8814 72.6253 80.0371 72.0108 80.0371C71.6339 80.0371 71.3308 79.9674 71.1014 79.8281C70.8719 79.6889 70.7572 79.5045 70.7572 79.2751C70.7572 79.1604 70.7777 79.0539 70.8187 78.9555C70.8678 78.8572 70.9457 78.7507 71.0522 78.636C71.1423 78.7016 71.257 78.7507 71.3963 78.7835C71.5438 78.8245 71.6913 78.8449 71.8388 78.8449C72.1583 78.8449 72.4164 78.7343 72.613 78.5131C72.8179 78.3001 73.0022 77.9232 73.1661 77.3824L70.7572 70.7336H72.2935L73.9281 75.5635L75.5258 70.7336H77.062ZM81.3091 70.6107C82.194 70.6107 82.8659 70.9015 83.3247 71.4832C83.7917 72.0568 84.0252 72.9007 84.0252 74.015C84.0252 74.736 83.8941 75.3669 83.6319 75.9076C83.378 76.4484 83.0134 76.8704 82.5381 77.1735C82.0629 77.4685 81.514 77.6159 80.8913 77.6159C80.4406 77.6159 79.9613 77.5299 79.4534 77.3579V80.2583H77.9663V73.2161C77.9663 72.5852 77.9417 72.1059 77.8925 71.7782C77.8516 71.4505 77.7696 71.2006 77.6467 71.0285C77.8434 70.922 78.0441 70.8401 78.2489 70.7827C78.462 70.7172 78.6545 70.6844 78.8266 70.6844C78.9822 70.6844 79.1051 70.7417 79.1953 70.8565C79.2936 70.9712 79.3632 71.1514 79.4042 71.3972C79.904 70.8728 80.539 70.6107 81.3091 70.6107ZM80.7192 76.5959C81.2928 76.5959 81.7311 76.3747 82.0342 75.9322C82.3456 75.4898 82.5013 74.8507 82.5013 74.015C82.5013 73.1956 82.3825 72.5893 82.1449 72.1961C81.9073 71.8028 81.5386 71.6061 81.0388 71.6061C80.7356 71.6061 80.4406 71.6758 80.1539 71.8151C79.8753 71.9544 79.6418 72.1387 79.4534 72.3681V76.3255C79.8384 76.5057 80.2604 76.5959 80.7192 76.5959ZM88.8633 76.4238C88.937 76.4566 88.9984 76.5139 89.0476 76.5959C89.0968 76.6696 89.1213 76.7597 89.1213 76.8663C89.1213 77.0301 89.064 77.1612 88.9493 77.2595C88.8182 77.366 88.6216 77.4521 88.3594 77.5176C88.1054 77.5832 87.8227 77.6159 87.5114 77.6159C86.9542 77.6159 86.5077 77.4644 86.1718 77.1612C85.844 76.8499 85.6802 76.4361 85.6802 75.9199V71.729H84.5618V70.7336H85.6802V68.8901H87.1672V70.7336H88.6052V71.729H87.1672V75.7602C87.1672 76.0715 87.2246 76.2968 87.3393 76.4361C87.454 76.5672 87.6384 76.6327 87.8923 76.6327C88.2037 76.6327 88.5273 76.5631 88.8633 76.4238ZM92.7165 77.6159C91.7333 77.6159 90.9796 77.3128 90.4552 76.7065C89.9308 76.1002 89.6686 75.2317 89.6686 74.101C89.6686 72.9703 89.9308 72.1059 90.4552 71.5078C90.9796 70.9097 91.7333 70.6107 92.7165 70.6107C93.6997 70.6107 94.4494 70.9097 94.9656 71.5078C95.49 72.1059 95.7522 72.9703 95.7522 74.101C95.7522 75.2399 95.49 76.1125 94.9656 76.7188C94.4412 77.3169 93.6915 77.6159 92.7165 77.6159ZM92.7165 76.5959C93.2491 76.5959 93.6342 76.3992 93.8718 76.006C94.1176 75.6045 94.2405 74.9695 94.2405 74.101C94.2405 73.2407 94.1176 72.6139 93.8718 72.2206C93.6342 71.8274 93.2491 71.6307 92.7165 71.6307C92.184 71.6307 91.7948 71.8274 91.549 72.2206C91.3114 72.6057 91.1926 73.2325 91.1926 74.101C91.1926 74.9777 91.3114 75.6127 91.549 76.006C91.7948 76.3992 92.184 76.5959 92.7165 76.5959ZM99.1632 77.6159C98.6798 77.6159 98.2415 77.5586 97.8482 77.4439C97.4631 77.3292 97.1558 77.1735 96.9264 76.9769C96.7052 76.772 96.5946 76.5467 96.5946 76.3009C96.5946 76.1125 96.6602 75.9527 96.7912 75.8216C96.9223 75.6823 97.1067 75.6004 97.3443 75.5758C97.5491 75.9199 97.799 76.178 98.094 76.3501C98.3971 76.5139 98.7699 76.5959 99.2124 76.5959C99.6384 76.5959 99.9498 76.5098 100.146 76.3378C100.351 76.1575 100.454 75.9199 100.454 75.625C100.454 75.3546 100.331 75.1498 100.085 75.0105C99.8474 74.8712 99.4746 74.7278 98.9666 74.5803C98.4996 74.441 98.1145 74.3058 97.8113 74.1747C97.5082 74.0355 97.2501 73.8306 97.037 73.5603C96.824 73.2899 96.7175 72.9417 96.7175 72.5156C96.7175 72.1223 96.8322 71.7823 97.0616 71.4955C97.2992 71.2006 97.6065 70.9794 97.9834 70.8319C98.3685 70.6844 98.7781 70.6107 99.2124 70.6107C99.7859 70.6107 100.29 70.7213 100.724 70.9425C101.166 71.1637 101.515 71.4669 101.769 71.8519C101.662 72.024 101.531 72.1715 101.375 72.2944C101.228 72.4091 101.093 72.4664 100.97 72.4664C100.831 72.4664 100.712 72.405 100.613 72.2821C100.237 71.8315 99.7777 71.6061 99.237 71.6061C98.8928 71.6061 98.6225 71.6799 98.4258 71.8274C98.2292 71.9667 98.1309 72.1838 98.1309 72.4787C98.1309 72.6754 98.1964 72.8392 98.3275 72.9703C98.4586 73.0932 98.6184 73.1916 98.8068 73.2653C99.0034 73.339 99.2779 73.4251 99.6302 73.5234C100.097 73.6545 100.478 73.7856 100.773 73.9167C101.076 74.0396 101.334 74.2321 101.547 74.4943C101.76 74.7565 101.867 75.1047 101.867 75.5389C101.867 76.1944 101.629 76.7065 101.154 77.0752C100.679 77.4357 100.015 77.6159 99.1632 77.6159Z" fill="white"/>
<rect x="0.6" y="60.6" width="116.508" height="25.4806" rx="12.7403" stroke="white" stroke-width="1.2"/>
<path d="M147.701 77.6159C147.062 77.6159 146.501 77.5381 146.017 77.3824C145.534 77.2186 145.161 76.9892 144.899 76.6942C144.637 76.3992 144.506 76.0592 144.506 75.6741C144.506 75.4201 144.604 75.2235 144.801 75.0842C145.005 74.9449 145.288 74.8712 145.649 74.863C145.722 75.371 145.939 75.7643 146.3 76.0428C146.66 76.3214 147.136 76.4607 147.726 76.4607C148.291 76.4607 148.725 76.346 149.028 76.1166C149.34 75.8872 149.495 75.5594 149.495 75.1334C149.495 74.7892 149.344 74.5107 149.041 74.2976C148.746 74.0764 148.221 73.8634 147.467 73.6586C146.468 73.38 145.751 73.0441 145.317 72.6508C144.882 72.2575 144.665 71.7454 144.665 71.1145C144.665 70.3853 144.94 69.8118 145.489 69.3939C146.046 68.9761 146.808 68.7672 147.775 68.7672C148.578 68.7672 149.254 68.9556 149.803 69.3325C150.36 69.7094 150.741 70.2338 150.946 70.9056C150.839 71.0121 150.687 71.1064 150.491 71.1883C150.294 71.2702 150.118 71.3112 149.962 71.3112C149.823 71.3112 149.712 71.2825 149.63 71.2252C149.549 71.1596 149.467 71.0531 149.385 70.9056C149.057 70.242 148.52 69.9101 147.775 69.9101C146.751 69.9101 146.238 70.2706 146.238 70.9916C146.238 71.2293 146.288 71.4259 146.386 71.5816C146.484 71.729 146.656 71.8642 146.902 71.9871C147.148 72.11 147.508 72.2452 147.984 72.3927C148.828 72.6549 149.467 72.9007 149.901 73.1301C150.335 73.3513 150.642 73.5971 150.823 73.8675C151.003 74.1297 151.093 74.4656 151.093 74.8753C151.093 75.416 150.954 75.8953 150.675 76.3132C150.397 76.7229 149.999 77.0424 149.483 77.2718C148.975 77.5012 148.381 77.6159 147.701 77.6159ZM152.563 70.7336H154.062V77.493H152.563V70.7336ZM153.239 69.4923C152.69 69.4923 152.415 69.2178 152.415 68.6688V68.5091C152.415 67.9601 152.69 67.6856 153.239 67.6856H153.386C153.935 67.6856 154.21 67.9601 154.21 68.5091V68.6688C154.21 69.2178 153.935 69.4923 153.386 69.4923H153.239ZM155.981 67.7717H157.48V77.493H155.981V67.7717ZM164.861 70.7336C164.763 72.0281 164.525 73.2325 164.148 74.3468C163.771 75.4529 163.214 76.5017 162.477 77.493H161.063C160.326 76.4935 159.761 75.4406 159.367 74.3345C158.974 73.2202 158.724 72.0199 158.618 70.7336H160.166C160.224 71.7577 160.379 72.704 160.633 73.5725C160.887 74.441 161.272 75.289 161.789 76.1166C162.288 75.2972 162.657 74.4574 162.895 73.5971C163.132 72.7286 163.272 71.7741 163.313 70.7336H164.861ZM166.125 70.7336H167.624V77.493H166.125V70.7336ZM166.801 69.4923C166.252 69.4923 165.978 69.2178 165.978 68.6688V68.5091C165.978 67.9601 166.252 67.6856 166.801 67.6856H166.949C167.497 67.6856 167.772 67.9601 167.772 68.5091V68.6688C167.772 69.2178 167.497 69.4923 166.949 69.4923H166.801ZM172.099 77.6159C171.116 77.6159 170.362 77.3128 169.838 76.7065C169.313 76.1002 169.051 75.2317 169.051 74.101C169.051 72.9703 169.313 72.1059 169.838 71.5078C170.362 70.9097 171.116 70.6107 172.099 70.6107C173.082 70.6107 173.832 70.9097 174.348 71.5078C174.873 72.1059 175.135 72.9703 175.135 74.101C175.135 75.2399 174.873 76.1125 174.348 76.7188C173.824 77.3169 173.074 77.6159 172.099 77.6159ZM172.099 76.5959C172.632 76.5959 173.017 76.3992 173.254 76.006C173.5 75.6045 173.623 74.9695 173.623 74.101C173.623 73.2407 173.5 72.6139 173.254 72.2206C173.017 71.8274 172.632 71.6307 172.099 71.6307C171.566 71.6307 171.177 71.8274 170.932 72.2206C170.694 72.6057 170.575 73.2325 170.575 74.101C170.575 74.9777 170.694 75.6127 170.932 76.006C171.177 76.3992 171.566 76.5959 172.099 76.5959ZM186.741 77.493C186.724 76.0101 186.675 74.7483 186.593 73.7077C186.511 72.659 186.38 71.6307 186.2 70.6229C185.881 71.4669 185.606 72.2616 185.377 73.0072C185.147 73.7528 184.84 74.8507 184.455 76.3009H183.238C182.902 74.9736 182.616 73.9208 182.378 73.1424C182.148 72.3558 181.866 71.516 181.53 70.6229C181.358 71.6307 181.227 72.659 181.137 73.7077C181.055 74.7565 180.997 76.0182 180.965 77.493H179.428C179.461 75.7561 179.559 74.2075 179.723 72.8474C179.895 71.4791 180.158 70.16 180.51 68.8901H182.243C182.677 69.947 183.001 70.8032 183.214 71.4587C183.435 72.1059 183.644 72.8351 183.84 73.6463C184.045 72.8515 184.258 72.1346 184.479 71.4955C184.709 70.8483 185.045 69.9798 185.487 68.8901H187.22C187.589 70.1682 187.859 71.4914 188.031 72.8597C188.203 74.228 188.298 75.7724 188.314 77.493H186.741ZM190.045 70.7336H191.544V77.493H190.045V70.7336ZM190.721 69.4923C190.172 69.4923 189.897 69.2178 189.897 68.6688V68.5091C189.897 67.9601 190.172 67.6856 190.721 67.6856H190.868C191.417 67.6856 191.692 67.9601 191.692 68.5091V68.6688C191.692 69.2178 191.417 69.4923 190.868 69.4923H190.721ZM196.289 77.6159C195.2 77.6159 194.372 77.3169 193.807 76.7188C193.25 76.1125 192.971 75.2317 192.971 74.0764C192.971 73.0031 193.258 72.1592 193.831 71.5447C194.405 70.922 195.191 70.6107 196.191 70.6107C196.986 70.6107 197.633 70.8073 198.133 71.2006C198.641 71.5857 198.94 72.1182 199.03 72.7983C198.653 73.0195 198.325 73.1301 198.047 73.1301C197.932 73.1301 197.838 73.0973 197.764 73.0318C197.699 72.958 197.637 72.8351 197.58 72.6631C197.473 72.3108 197.305 72.0527 197.076 71.8888C196.855 71.7168 196.56 71.6307 196.191 71.6307C195.658 71.6307 195.241 71.8478 194.937 72.2821C194.642 72.7081 194.495 73.3063 194.495 74.0764C194.495 74.8958 194.647 75.5185 194.95 75.9445C195.261 76.3624 195.708 76.5713 196.289 76.5713C196.715 76.5713 197.059 76.4484 197.322 76.2026C197.592 75.9486 197.793 75.5553 197.924 75.0228C198.26 75.0228 198.506 75.0965 198.661 75.244C198.825 75.3833 198.907 75.5963 198.907 75.8831C198.907 76.1862 198.784 76.473 198.538 76.7434C198.301 77.0055 197.981 77.2186 197.58 77.3824C197.178 77.5381 196.748 77.6159 196.289 77.6159ZM205.646 75.2317C205.646 75.8052 205.675 76.2272 205.732 76.4976C205.79 76.7679 205.896 77.0014 206.052 77.1981C205.913 77.3046 205.732 77.3947 205.511 77.4685C205.298 77.534 205.102 77.5668 204.921 77.5668C204.528 77.5668 204.29 77.2431 204.208 76.5959C203.758 77.2759 203.057 77.6159 202.107 77.6159C201.501 77.6159 201.009 77.4562 200.632 77.1366C200.263 76.8089 200.079 76.3828 200.079 75.8585C200.079 75.1129 200.411 74.5475 201.075 74.1625C201.738 73.7692 202.766 73.5357 204.159 73.4619V72.9089C204.159 72.1059 203.737 71.7045 202.893 71.7045C202.59 71.7045 202.303 71.7659 202.033 71.8888C201.763 72.0035 201.443 72.2043 201.075 72.491C201.017 72.532 200.96 72.5525 200.902 72.5525C200.771 72.5525 200.632 72.4787 200.485 72.3313C200.337 72.1756 200.206 71.9667 200.091 71.7045C200.427 71.3767 200.866 71.1145 201.406 70.9179C201.947 70.7131 202.496 70.6107 203.053 70.6107C203.881 70.6107 204.52 70.8114 204.97 71.2129C205.421 71.6143 205.646 72.1797 205.646 72.9089V75.2317ZM202.549 76.5959C203.18 76.5959 203.717 76.2026 204.159 75.416V74.3099C202.455 74.3837 201.603 74.8548 201.603 75.7233C201.603 76.0019 201.685 76.219 201.849 76.3747C202.013 76.5221 202.246 76.5959 202.549 76.5959ZM207.397 67.7717H208.896V77.493H207.397V67.7717ZM210.808 70.7336H212.308V77.493H210.808V70.7336ZM211.484 69.4923C210.935 69.4923 210.661 69.2178 210.661 68.6688V68.5091C210.661 67.9601 210.935 67.6856 211.484 67.6856H211.632C212.181 67.6856 212.455 67.9601 212.455 68.5091V68.6688C212.455 69.2178 212.181 69.4923 211.632 69.4923H211.484Z" fill="white"/>
<rect x="120.6" y="60.6" width="116.508" height="25.4806" rx="12.7403" stroke="white" stroke-width="1.2"/>
<path d="M155.225 106.375C155.225 106.809 155.18 107.104 155.09 107.26C155 107.415 154.832 107.493 154.586 107.493H149.83V98.8901H155.127V100.008H151.378V102.516H154.537V103.622H151.378V106.375H155.225ZM156.707 97.7717H158.206V107.493H156.707V97.7717ZM162.552 107.616C161.568 107.616 160.815 107.313 160.29 106.706C159.766 106.1 159.504 105.232 159.504 104.101C159.504 102.97 159.766 102.106 160.29 101.508C160.815 100.91 161.568 100.611 162.552 100.611C163.535 100.611 164.284 100.91 164.801 101.508C165.325 102.106 165.587 102.97 165.587 104.101C165.587 105.24 165.325 106.112 164.801 106.719C164.276 107.317 163.527 107.616 162.552 107.616ZM162.552 106.596C163.084 106.596 163.469 106.399 163.707 106.006C163.953 105.604 164.075 104.97 164.075 104.101C164.075 103.241 163.953 102.614 163.707 102.221C163.469 101.827 163.084 101.631 162.552 101.631C162.019 101.631 161.63 101.827 161.384 102.221C161.146 102.606 161.028 103.233 161.028 104.101C161.028 104.978 161.146 105.613 161.384 106.006C161.63 106.399 162.019 106.596 162.552 106.596ZM172.538 105.834C172.538 106.276 172.55 106.596 172.575 106.793C172.599 106.989 172.652 107.165 172.734 107.321C172.349 107.477 171.944 107.554 171.518 107.554C171.346 107.554 171.223 107.46 171.149 107.272C171.083 107.075 171.051 106.731 171.051 106.239V102.995C171.051 102.52 170.973 102.184 170.817 101.987C170.661 101.782 170.399 101.68 170.031 101.68C169.498 101.68 168.933 101.942 168.335 102.466V107.493H166.847V102.97C166.847 101.905 166.798 101.225 166.7 100.93C167.175 100.766 167.577 100.684 167.904 100.684C168.06 100.684 168.171 100.742 168.236 100.856C168.302 100.971 168.335 101.151 168.335 101.397V101.545C168.744 101.201 169.109 100.959 169.428 100.82C169.748 100.68 170.084 100.611 170.436 100.611C171.141 100.611 171.665 100.803 172.009 101.188C172.362 101.565 172.538 102.143 172.538 102.921V105.834ZM184.695 107.493C184.678 106.01 184.629 104.748 184.547 103.708C184.465 102.659 184.334 101.631 184.154 100.623C183.834 101.467 183.56 102.262 183.33 103.007C183.101 103.753 182.794 104.851 182.409 106.301H181.192C180.856 104.974 180.569 103.921 180.332 103.142C180.102 102.356 179.819 101.516 179.484 100.623C179.312 101.631 179.18 102.659 179.09 103.708C179.008 104.756 178.951 106.018 178.918 107.493H177.382C177.415 105.756 177.513 104.208 177.677 102.847C177.849 101.479 178.111 100.16 178.463 98.8901H180.196C180.631 99.947 180.954 100.803 181.167 101.459C181.389 102.106 181.597 102.835 181.794 103.646C181.999 102.852 182.212 102.135 182.433 101.496C182.663 100.848 182.998 99.9798 183.441 98.8901H185.174C185.543 100.168 185.813 101.491 185.985 102.86C186.157 104.228 186.251 105.772 186.268 107.493H184.695ZM193.664 105.945C193.664 106.28 193.677 106.555 193.701 106.768C193.734 106.981 193.783 107.165 193.849 107.321C193.537 107.477 193.201 107.554 192.841 107.554C192.628 107.554 192.468 107.493 192.362 107.37C192.263 107.247 192.198 107.034 192.165 106.731C191.927 107.01 191.624 107.227 191.255 107.382C190.895 107.538 190.502 107.616 190.076 107.616C189.371 107.616 188.834 107.423 188.466 107.038C188.105 106.653 187.925 106.088 187.925 105.342V100.734H189.412V105.256C189.412 105.748 189.494 106.1 189.658 106.313C189.822 106.518 190.092 106.62 190.469 106.62C190.805 106.62 191.116 106.534 191.403 106.362C191.69 106.19 191.94 105.94 192.153 105.613V100.734H193.664V105.945ZM197.647 107.616C197.163 107.616 196.725 107.559 196.332 107.444C195.947 107.329 195.639 107.174 195.41 106.977C195.189 106.772 195.078 106.547 195.078 106.301C195.078 106.112 195.144 105.953 195.275 105.822C195.406 105.682 195.59 105.6 195.828 105.576C196.033 105.92 196.283 106.178 196.578 106.35C196.881 106.514 197.254 106.596 197.696 106.596C198.122 106.596 198.433 106.51 198.63 106.338C198.835 106.158 198.937 105.92 198.937 105.625C198.937 105.355 198.814 105.15 198.569 105.01C198.331 104.871 197.958 104.728 197.45 104.58C196.983 104.441 196.598 104.306 196.295 104.175C195.992 104.035 195.734 103.831 195.521 103.56C195.308 103.29 195.201 102.942 195.201 102.516C195.201 102.122 195.316 101.782 195.545 101.496C195.783 101.201 196.09 100.979 196.467 100.832C196.852 100.684 197.262 100.611 197.696 100.611C198.269 100.611 198.773 100.721 199.208 100.942C199.65 101.164 199.998 101.467 200.252 101.852C200.146 102.024 200.015 102.171 199.859 102.294C199.712 102.409 199.576 102.466 199.453 102.466C199.314 102.466 199.195 102.405 199.097 102.282C198.72 101.831 198.261 101.606 197.721 101.606C197.376 101.606 197.106 101.68 196.909 101.827C196.713 101.967 196.614 102.184 196.614 102.479C196.614 102.675 196.68 102.839 196.811 102.97C196.942 103.093 197.102 103.192 197.29 103.265C197.487 103.339 197.762 103.425 198.114 103.523C198.581 103.654 198.962 103.786 199.257 103.917C199.56 104.04 199.818 104.232 200.031 104.494C200.244 104.756 200.351 105.105 200.351 105.539C200.351 106.194 200.113 106.706 199.638 107.075C199.163 107.436 198.499 107.616 197.647 107.616ZM207.91 107.493C207.819 107.493 207.565 107.505 207.148 107.53C206.934 107.546 206.803 107.554 206.754 107.554C206.582 107.554 206.443 107.522 206.336 107.456C206.23 107.391 206.136 107.292 206.054 107.161L204.886 105.146C204.763 104.933 204.608 104.781 204.419 104.691C204.231 104.593 203.96 104.556 203.608 104.58L203.202 104.605V107.493H201.715V97.7717H203.202V103.511L203.547 103.499C203.809 103.482 204.005 103.433 204.136 103.351C204.276 103.261 204.411 103.101 204.542 102.872L205.808 100.734H207.492L205.869 103.241C205.763 103.421 205.665 103.564 205.574 103.671C205.492 103.769 205.382 103.855 205.243 103.929C205.464 103.986 205.644 104.072 205.783 104.187C205.931 104.302 206.062 104.453 206.177 104.642L207.91 107.493Z" fill="white"/>
<rect x="120.6" y="90.6" width="116.508" height="25.4806" rx="12.7403" stroke="white" stroke-width="1.2"/>
<path d="M23.5349 107.493C23.5186 106.01 23.4694 104.748 23.3875 103.708C23.3055 102.659 23.1744 101.631 22.9942 100.623C22.6746 101.467 22.4002 102.262 22.1708 103.007C21.9413 103.753 21.6341 104.851 21.249 106.301H20.0323C19.6964 104.974 19.4096 103.921 19.172 103.142C18.9426 102.356 18.6599 101.516 18.324 100.623C18.1519 101.631 18.0208 102.659 17.9307 103.708C17.8488 104.756 17.7914 106.018 17.7587 107.493H16.2224C16.2552 105.756 16.3535 104.208 16.5174 102.847C16.6894 101.479 16.9516 100.16 17.3039 98.8901H19.0368C19.4711 99.947 19.7947 100.803 20.0077 101.459C20.2289 102.106 20.4379 102.835 20.6345 103.646C20.8393 102.852 21.0524 102.135 21.2736 101.496C21.503 100.848 21.8389 99.9798 22.2814 98.8901H24.0142C24.3829 100.168 24.6533 101.491 24.8254 102.86C24.9974 104.228 25.0917 105.772 25.1081 107.493H23.5349ZM26.839 100.734H28.3384V107.493H26.839V100.734ZM27.515 99.4923C26.966 99.4923 26.6915 99.2178 26.6915 98.6688V98.5091C26.6915 97.9601 26.966 97.6856 27.515 97.6856H27.6624C28.2114 97.6856 28.4859 97.9601 28.4859 98.5091V98.6688C28.4859 99.2178 28.2114 99.4923 27.6624 99.4923H27.515ZM33.0834 107.616C31.9937 107.616 31.1661 107.317 30.6008 106.719C30.0437 106.112 29.7651 105.232 29.7651 104.076C29.7651 103.003 30.0519 102.159 30.6254 101.545C31.1989 100.922 31.9855 100.611 32.9851 100.611C33.7798 100.611 34.4271 100.807 34.9269 101.201C35.4349 101.586 35.7339 102.118 35.824 102.798C35.4472 103.019 35.1194 103.13 34.8408 103.13C34.7261 103.13 34.6319 103.097 34.5582 103.032C34.4926 102.958 34.4312 102.835 34.3738 102.663C34.2673 102.311 34.0994 102.053 33.8699 101.889C33.6487 101.717 33.3538 101.631 32.9851 101.631C32.4525 101.631 32.0346 101.848 31.7315 102.282C31.4365 102.708 31.289 103.306 31.289 104.076C31.289 104.896 31.4406 105.518 31.7438 105.945C32.0551 106.362 32.5017 106.571 33.0834 106.571C33.5094 106.571 33.8536 106.448 34.1157 106.203C34.3861 105.949 34.5869 105.555 34.7179 105.023C35.0539 105.023 35.2997 105.096 35.4553 105.244C35.6192 105.383 35.7011 105.596 35.7011 105.883C35.7011 106.186 35.5782 106.473 35.3324 106.743C35.0948 107.006 34.7753 107.219 34.3738 107.382C33.9724 107.538 33.5422 107.616 33.0834 107.616ZM41.0148 100.611C41.6375 100.611 42.1332 100.799 42.5019 101.176C42.8706 101.553 43.055 102.065 43.055 102.712V107.493H41.5556V102.872C41.5556 102.479 41.4696 102.188 41.2975 101.999C41.1336 101.803 40.8755 101.704 40.5232 101.704C40.2201 101.704 39.9046 101.77 39.5769 101.901C39.2574 102.032 38.9419 102.225 38.6306 102.479V107.493H37.1312V97.7717H38.6306V101.52C38.9501 101.233 39.3188 101.012 39.7367 100.856C40.1627 100.693 40.5888 100.611 41.0148 100.611ZM50.1817 105.232C50.1817 105.805 50.2104 106.227 50.2677 106.498C50.3251 106.768 50.4316 107.001 50.5873 107.198C50.448 107.305 50.2677 107.395 50.0465 107.468C49.8335 107.534 49.6369 107.567 49.4566 107.567C49.0633 107.567 48.8257 107.243 48.7438 106.596C48.2932 107.276 47.5926 107.616 46.6422 107.616C46.0359 107.616 45.5443 107.456 45.1674 107.137C44.7987 106.809 44.6144 106.383 44.6144 105.858C44.6144 105.113 44.9462 104.548 45.6098 104.162C46.2735 103.769 47.3018 103.536 48.6946 103.462V102.909C48.6946 102.106 48.2727 101.704 47.4288 101.704C47.1256 101.704 46.8388 101.766 46.5685 101.889C46.2981 102.004 45.9785 102.204 45.6098 102.491C45.5525 102.532 45.4951 102.552 45.4378 102.552C45.3067 102.552 45.1674 102.479 45.0199 102.331C44.8724 102.176 44.7414 101.967 44.6266 101.704C44.9626 101.377 45.4009 101.115 45.9417 100.918C46.4824 100.713 47.0314 100.611 47.5885 100.611C48.4161 100.611 49.0551 100.811 49.5058 101.213C49.9564 101.614 50.1817 102.18 50.1817 102.909V105.232ZM47.0846 106.596C47.7155 106.596 48.2522 106.203 48.6946 105.416V104.31C46.9904 104.384 46.1383 104.855 46.1383 105.723C46.1383 106.002 46.2202 106.219 46.3841 106.375C46.548 106.522 46.7815 106.596 47.0846 106.596ZM57.6716 103.659C57.6716 103.798 57.6552 104.031 57.6224 104.359H53.0997C53.1407 105.064 53.3045 105.609 53.5913 105.994C53.8781 106.379 54.2673 106.571 54.7589 106.571C55.0948 106.571 55.3693 106.506 55.5823 106.375C55.8035 106.235 56.0534 105.969 56.332 105.576C56.3811 105.502 56.4672 105.465 56.5901 105.465C56.8195 105.465 57.1349 105.609 57.5364 105.895C57.307 106.452 56.9506 106.879 56.4672 107.174C55.992 107.468 55.4225 107.616 54.7589 107.616C53.7675 107.616 52.985 107.305 52.4115 106.682C51.8461 106.051 51.5635 105.191 51.5635 104.101C51.5635 103.019 51.8502 102.167 52.4238 101.545C52.9973 100.922 53.7839 100.611 54.7834 100.611C55.7011 100.611 56.4098 100.877 56.9096 101.41C57.4176 101.942 57.6716 102.692 57.6716 103.659ZM56.1599 103.45C56.1599 102.229 55.6888 101.618 54.7466 101.618C54.2796 101.618 53.9068 101.774 53.6282 102.085C53.3578 102.389 53.1898 102.843 53.1243 103.45H56.1599ZM58.9773 97.7717H60.4767V107.493H58.9773V97.7717ZM68.5806 107.616C67.9415 107.616 67.3803 107.538 66.8968 107.382C66.4134 107.219 66.0406 106.989 65.7785 106.694C65.5163 106.399 65.3852 106.059 65.3852 105.674C65.3852 105.42 65.4835 105.223 65.6801 105.084C65.885 104.945 66.1676 104.871 66.5281 104.863C66.6019 105.371 66.819 105.764 67.1795 106.043C67.54 106.321 68.0152 106.461 68.6052 106.461C69.1705 106.461 69.6047 106.346 69.9079 106.117C70.2192 105.887 70.3749 105.559 70.3749 105.133C70.3749 104.789 70.2233 104.511 69.9202 104.298C69.6252 104.076 69.1008 103.863 68.3471 103.659C67.3475 103.38 66.6306 103.044 66.1963 102.651C65.7621 102.258 65.5449 101.745 65.5449 101.115C65.5449 100.385 65.8194 99.8118 66.3684 99.3939C66.9255 98.9761 67.6875 98.7672 68.6543 98.7672C69.4573 98.7672 70.1332 98.9556 70.6822 99.3325C71.2393 99.7094 71.6203 100.234 71.8251 100.906C71.7186 101.012 71.567 101.106 71.3704 101.188C71.1738 101.27 70.9976 101.311 70.8419 101.311C70.7026 101.311 70.592 101.283 70.5101 101.225C70.4282 101.16 70.3462 101.053 70.2643 100.906C69.9366 100.242 69.3999 99.9101 68.6543 99.9101C67.6301 99.9101 67.1181 100.271 67.1181 100.992C67.1181 101.229 67.1672 101.426 67.2655 101.582C67.3639 101.729 67.5359 101.864 67.7817 101.987C68.0275 102.11 68.388 102.245 68.8632 102.393C69.7072 102.655 70.3462 102.901 70.7805 103.13C71.2147 103.351 71.522 103.597 71.7022 103.867C71.8825 104.13 71.9726 104.466 71.9726 104.875C71.9726 105.416 71.8333 105.895 71.5547 106.313C71.2762 106.723 70.8788 107.042 70.3626 107.272C69.8546 107.501 69.2606 107.616 68.5806 107.616ZM78.5183 105.232C78.5183 105.805 78.5469 106.227 78.6043 106.498C78.6616 106.768 78.7682 107.001 78.9238 107.198C78.7845 107.305 78.6043 107.395 78.3831 107.468C78.17 107.534 77.9734 107.567 77.7932 107.567C77.3999 107.567 77.1623 107.243 77.0803 106.596C76.6297 107.276 75.9292 107.616 74.9788 107.616C74.3724 107.616 73.8808 107.456 73.504 107.137C73.1353 106.809 72.9509 106.383 72.9509 105.858C72.9509 105.113 73.2827 104.548 73.9464 104.162C74.6101 103.769 75.6383 103.536 77.0312 103.462V102.909C77.0312 102.106 76.6092 101.704 75.7653 101.704C75.4622 101.704 75.1754 101.766 74.905 101.889C74.6346 102.004 74.3151 102.204 73.9464 102.491C73.889 102.532 73.8317 102.552 73.7743 102.552C73.6432 102.552 73.504 102.479 73.3565 102.331C73.209 102.176 73.0779 101.967 72.9632 101.704C73.2991 101.377 73.7375 101.115 74.2782 100.918C74.819 100.713 75.3679 100.611 75.9251 100.611C76.7526 100.611 77.3917 100.811 77.8423 101.213C78.2929 101.614 78.5183 102.18 78.5183 102.909V105.232ZM75.4212 106.596C76.0521 106.596 76.5887 106.203 77.0312 105.416V104.31C75.327 104.384 74.4749 104.855 74.4749 105.723C74.4749 106.002 74.5568 106.219 74.7207 106.375C74.8845 106.522 75.118 106.596 75.4212 106.596ZM85.7255 100.734L83.1077 108.009C82.8537 108.738 82.5383 109.259 82.1614 109.57C81.7845 109.881 81.2888 110.037 80.6743 110.037C80.2974 110.037 79.9942 109.967 79.7648 109.828C79.5354 109.689 79.4207 109.505 79.4207 109.275C79.4207 109.16 79.4412 109.054 79.4822 108.956C79.5313 108.857 79.6092 108.751 79.7157 108.636C79.8058 108.702 79.9205 108.751 80.0598 108.783C80.2073 108.824 80.3547 108.845 80.5022 108.845C80.8218 108.845 81.0799 108.734 81.2765 108.513C81.4813 108.3 81.6657 107.923 81.8295 107.382L79.4207 100.734H80.957L82.5915 105.564L84.1892 100.734H85.7255ZM86.6297 97.7717H88.1291V107.493H86.6297V97.7717ZM92.4746 107.616C91.4914 107.616 90.7376 107.313 90.2132 106.706C89.6889 106.1 89.4267 105.232 89.4267 104.101C89.4267 102.97 89.6889 102.106 90.2132 101.508C90.7376 100.91 91.4914 100.611 92.4746 100.611C93.4578 100.611 94.2075 100.91 94.7237 101.508C95.248 102.106 95.5102 102.97 95.5102 104.101C95.5102 105.24 95.248 106.112 94.7237 106.719C94.1993 107.317 93.4496 107.616 92.4746 107.616ZM92.4746 106.596C93.0072 106.596 93.3922 106.399 93.6298 106.006C93.8756 105.604 93.9985 104.97 93.9985 104.101C93.9985 103.241 93.8756 102.614 93.6298 102.221C93.3922 101.827 93.0072 101.631 92.4746 101.631C91.942 101.631 91.5528 101.827 91.307 102.221C91.0694 102.606 90.9506 103.233 90.9506 104.101C90.9506 104.978 91.0694 105.613 91.307 106.006C91.5528 106.399 91.942 106.596 92.4746 106.596ZM99.9167 100.648C100.277 100.648 100.539 100.721 100.703 100.869C100.875 101.016 100.961 101.242 100.961 101.545C100.961 101.659 100.945 101.774 100.912 101.889C100.879 101.995 100.834 102.081 100.777 102.147C100.687 102.09 100.576 102.049 100.445 102.024C100.322 101.999 100.154 101.987 99.9413 101.987C99.4087 101.987 98.9991 102.171 98.7123 102.54C98.4255 102.901 98.2822 103.421 98.2822 104.101V107.493H96.7951V100.734H98.2822V101.741C98.4542 101.397 98.6836 101.131 98.9704 100.942C99.2572 100.746 99.5726 100.648 99.9167 100.648Z" fill="white"/>
<rect x="0.6" y="90.6" width="116.508" height="25.4806" rx="12.7403" stroke="white" stroke-width="1.2"/>
</svg>
