<svg width="238" height="57" viewBox="0 0 238 57" fill="none" xmlns="http://www.w3.org/2000/svg">
<path d="M27.534 47.6159C26.8949 47.6159 26.3337 47.5381 25.8503 47.3824C25.3668 47.2186 24.9941 46.9892 24.7319 46.6942C24.4697 46.3992 24.3386 46.0592 24.3386 45.6741C24.3386 45.4201 24.4369 45.2235 24.6335 45.0842C24.8384 44.9449 25.121 44.8712 25.4816 44.863C25.5553 45.371 25.7724 45.7643 26.1329 46.0428C26.4934 46.3214 26.9686 46.4607 27.5586 46.4607C28.1239 46.4607 28.5581 46.346 28.8613 46.1166C29.1726 45.8872 29.3283 45.5594 29.3283 45.1334C29.3283 44.7892 29.1767 44.5107 28.8736 44.2976C28.5786 44.0764 28.0543 43.8634 27.3005 43.6586C26.3009 43.38 25.584 43.0441 25.1497 42.6508C24.7155 42.2575 24.4984 41.7454 24.4984 41.1145C24.4984 40.3853 24.7728 39.8118 25.3218 39.3939C25.8789 38.9761 26.6409 38.7672 27.6077 38.7672C28.4107 38.7672 29.0866 38.9556 29.6356 39.3325C30.1927 39.7094 30.5737 40.2338 30.7785 40.9056C30.672 41.0121 30.5204 41.1064 30.3238 41.1883C30.1272 41.2702 29.951 41.3112 29.7953 41.3112C29.656 41.3112 29.5454 41.2825 29.4635 41.2252C29.3816 41.1596 29.2996 41.0531 29.2177 40.9056C28.89 40.242 28.3533 39.9101 27.6077 39.9101C26.5836 39.9101 26.0715 40.2706 26.0715 40.9916C26.0715 41.2293 26.1206 41.4259 26.219 41.5816C26.3173 41.729 26.4893 41.8642 26.7351 41.9871C26.9809 42.11 27.3414 42.2452 27.8166 42.3927C28.6606 42.6549 29.2996 42.9007 29.7339 43.1301C30.1681 43.3513 30.4754 43.5971 30.6556 43.8675C30.8359 44.1297 30.926 44.4656 30.926 44.8753C30.926 45.416 30.7867 45.8953 30.5082 46.3132C30.2296 46.7229 29.8322 47.0424 29.316 47.2718C28.808 47.5012 28.214 47.6159 27.534 47.6159ZM32.3959 40.7336H33.8953V47.493H32.3959V40.7336ZM33.0719 39.4923C32.5229 39.4923 32.2484 39.2178 32.2484 38.6688V38.5091C32.2484 37.9601 32.5229 37.6856 33.0719 37.6856H33.2193C33.7683 37.6856 34.0428 37.9601 34.0428 38.5091V38.6688C34.0428 39.2178 33.7683 39.4923 33.2193 39.4923H33.0719ZM35.8136 37.7717H37.313V47.493H35.8136V37.7717ZM44.694 40.7336C44.5957 42.0281 44.3581 43.2325 43.9812 44.3468C43.6043 45.4529 43.0472 46.5017 42.3098 47.493H40.8964C40.159 46.4935 39.5937 45.4406 39.2004 44.3345C38.8071 43.2202 38.5573 42.0199 38.4507 40.7336H39.9993C40.0566 41.7577 40.2123 42.704 40.4663 43.5725C40.7203 44.441 41.1054 45.289 41.6216 46.1166C42.1213 45.2972 42.49 44.4574 42.7277 43.5971C42.9653 42.7286 43.1045 41.7741 43.1455 40.7336H44.694ZM45.9581 40.7336H47.4575V47.493H45.9581V40.7336ZM46.634 39.4923C46.0851 39.4923 45.8106 39.2178 45.8106 38.6688V38.5091C45.8106 37.9601 46.0851 37.6856 46.634 37.6856H46.7815C47.3305 37.6856 47.6049 37.9601 47.6049 38.5091V38.6688C47.6049 39.2178 47.3305 39.4923 46.7815 39.4923H46.634ZM51.9321 47.6159C50.9489 47.6159 50.1951 47.3128 49.6707 46.7065C49.1463 46.1002 48.8842 45.2317 48.8842 44.101C48.8842 42.9703 49.1463 42.1059 49.6707 41.5078C50.1951 40.9097 50.9489 40.6107 51.9321 40.6107C52.9153 40.6107 53.665 40.9097 54.1811 41.5078C54.7055 42.1059 54.9677 42.9703 54.9677 44.101C54.9677 45.2399 54.7055 46.1125 54.1811 46.7188C53.6568 47.3169 52.9071 47.6159 51.9321 47.6159ZM51.9321 46.5959C52.4646 46.5959 52.8497 46.3992 53.0873 46.006C53.3331 45.6045 53.456 44.9695 53.456 44.101C53.456 43.2407 53.3331 42.6139 53.0873 42.2206C52.8497 41.8274 52.4646 41.6307 51.9321 41.6307C51.3995 41.6307 51.0103 41.8274 50.7645 42.2206C50.5269 42.6057 50.4081 43.2325 50.4081 44.101C50.4081 44.9777 50.5269 45.6127 50.7645 46.006C51.0103 46.3992 51.3995 46.5959 51.9321 46.5959ZM66.5738 47.493C66.5575 46.0101 66.5083 44.7483 66.4264 43.7077C66.3444 42.659 66.2133 41.6307 66.0331 40.6229C65.7136 41.4669 65.4391 42.2616 65.2097 43.0072C64.9802 43.7528 64.673 44.8507 64.2879 46.3009H63.0712C62.7353 44.9736 62.4485 43.9208 62.2109 43.1424C61.9815 42.3558 61.6988 41.516 61.3629 40.6229C61.1908 41.6307 61.0597 42.659 60.9696 43.7077C60.8877 44.7565 60.8303 46.0182 60.7976 47.493H59.2613C59.2941 45.7561 59.3924 44.2075 59.5563 42.8474C59.7283 41.4791 59.9905 40.16 60.3428 38.8901H62.0757C62.51 39.947 62.8336 40.8032 63.0466 41.4587C63.2678 42.1059 63.4768 42.8351 63.6734 43.6463C63.8782 42.8515 64.0913 42.1346 64.3125 41.4955C64.5419 40.8483 64.8778 39.9798 65.3203 38.8901H67.0532C67.4219 40.1682 67.6922 41.4914 67.8643 42.8597C68.0364 44.228 68.1306 45.7724 68.147 47.493H66.5738ZM69.8779 40.7336H71.3773V47.493H69.8779V40.7336ZM70.5539 39.4923C70.0049 39.4923 69.7304 39.2178 69.7304 38.6688V38.5091C69.7304 37.9601 70.0049 37.6856 70.5539 37.6856H70.7014C71.2503 37.6856 71.5248 37.9601 71.5248 38.5091V38.6688C71.5248 39.2178 71.2503 39.4923 70.7014 39.4923H70.5539ZM76.1223 47.6159C75.0326 47.6159 74.2051 47.3169 73.6397 46.7188C73.0826 46.1125 72.804 45.2317 72.804 44.0764C72.804 43.0031 73.0908 42.1592 73.6643 41.5447C74.2378 40.922 75.0244 40.6107 76.024 40.6107C76.8187 40.6107 77.466 40.8073 77.9658 41.2006C78.4738 41.5857 78.7728 42.1182 78.863 42.7983C78.4861 43.0195 78.1583 43.1301 77.8798 43.1301C77.7651 43.1301 77.6708 43.0973 77.5971 43.0318C77.5315 42.958 77.4701 42.8351 77.4127 42.6631C77.3062 42.3108 77.1383 42.0527 76.9089 41.8888C76.6876 41.7168 76.3927 41.6307 76.024 41.6307C75.4914 41.6307 75.0735 41.8478 74.7704 42.2821C74.4754 42.7081 74.328 43.3063 74.328 44.0764C74.328 44.8958 74.4795 45.5185 74.7827 45.9445C75.094 46.3624 75.5406 46.5713 76.1223 46.5713C76.5483 46.5713 76.8925 46.4484 77.1546 46.2026C77.425 45.9486 77.6258 45.5553 77.7569 45.0228C78.0928 45.0228 78.3386 45.0965 78.4943 45.244C78.6581 45.3833 78.7401 45.5963 78.7401 45.8831C78.7401 46.1862 78.6172 46.473 78.3714 46.7434C78.1338 47.0055 77.8142 47.2186 77.4127 47.3824C77.0113 47.5381 76.5811 47.6159 76.1223 47.6159ZM85.4794 45.2317C85.4794 45.8052 85.5081 46.2272 85.5654 46.4976C85.6228 46.7679 85.7293 47.0014 85.8849 47.1981C85.7457 47.3046 85.5654 47.3947 85.3442 47.4685C85.1312 47.534 84.9345 47.5668 84.7543 47.5668C84.361 47.5668 84.1234 47.2431 84.0415 46.5959C83.5908 47.2759 82.8903 47.6159 81.9399 47.6159C81.3336 47.6159 80.842 47.4562 80.4651 47.1366C80.0964 46.8089 79.912 46.3828 79.912 45.8585C79.912 45.1129 80.2439 44.5475 80.9075 44.1625C81.5712 43.7692 82.5994 43.5357 83.9923 43.4619V42.9089C83.9923 42.1059 83.5703 41.7045 82.7264 41.7045C82.4233 41.7045 82.1365 41.7659 81.8661 41.8888C81.5957 42.0035 81.2762 42.2043 80.9075 42.491C80.8502 42.532 80.7928 42.5525 80.7354 42.5525C80.6044 42.5525 80.4651 42.4787 80.3176 42.3313C80.1701 42.1756 80.039 41.9667 79.9243 41.7045C80.2602 41.3767 80.6986 41.1145 81.2393 40.9179C81.7801 40.7131 82.329 40.6107 82.8862 40.6107C83.7137 40.6107 84.3528 40.8114 84.8034 41.2129C85.2541 41.6143 85.4794 42.1797 85.4794 42.9089V45.2317ZM82.3823 46.5959C83.0132 46.5959 83.5499 46.2026 83.9923 45.416V44.3099C82.2881 44.3837 81.436 44.8548 81.436 45.7233C81.436 46.0019 81.5179 46.219 81.6818 46.3747C81.8456 46.5221 82.0792 46.5959 82.3823 46.5959ZM87.2298 37.7717H88.7292V47.493H87.2298V37.7717ZM90.6413 40.7336H92.1406V47.493H90.6413V40.7336ZM91.3172 39.4923C90.7683 39.4923 90.4938 39.2178 90.4938 38.6688V38.5091C90.4938 37.9601 90.7683 37.6856 91.3172 37.6856H91.4647C92.0136 37.6856 92.2881 37.9601 92.2881 38.5091V38.6688C92.2881 39.2178 92.0136 39.4923 91.4647 39.4923H91.3172Z" fill="white"/>
<rect x="0.6" y="30.6" width="116.508" height="25.4806" rx="12.7403" stroke="white" stroke-width="1.2"/>
<path d="M23.8453 8.89006C23.6486 10.5205 23.3086 12.0404 22.8252 13.4496C22.35 14.8589 21.715 16.2067 20.9203 17.493H19.5069C18.7122 16.2231 18.0731 14.8835 17.5897 13.4742C17.1145 12.065 16.7744 10.5369 16.5696 8.89006H18.1796C18.3435 10.2583 18.5974 11.5324 18.9416 12.7122C19.2857 13.8921 19.7076 14.9449 20.2074 15.8708C20.7072 14.9449 21.1292 13.8921 21.4733 12.7122C21.8174 11.5324 22.0714 10.2583 22.2353 8.89006H23.8453ZM25.1443 10.7336H26.6436V17.493H25.1443V10.7336ZM25.8202 9.49227C25.2713 9.49227 24.9968 9.21779 24.9968 8.66884V8.50907C24.9968 7.96012 25.2713 7.68564 25.8202 7.68564H25.9677C26.5166 7.68564 26.7911 7.96012 26.7911 8.50907V8.66884C26.7911 9.21779 26.5166 9.49227 25.9677 9.49227H25.8202ZM32.1137 16.4238C32.1875 16.4566 32.2489 16.5139 32.2981 16.5959C32.3472 16.6696 32.3718 16.7597 32.3718 16.8663C32.3718 17.0301 32.3145 17.1612 32.1998 17.2595C32.0687 17.366 31.872 17.4521 31.6098 17.5176C31.3558 17.5832 31.0732 17.6159 30.7618 17.6159C30.2047 17.6159 29.7582 17.4644 29.4222 17.1612C29.0945 16.8499 28.9306 16.4361 28.9306 15.9199V11.729H27.8122V10.7336H28.9306V8.89006H30.4177V10.7336H31.8556V11.729H30.4177V15.7602C30.4177 16.0715 30.4751 16.2968 30.5898 16.4361C30.7045 16.5672 30.8888 16.6327 31.1428 16.6327C31.4542 16.6327 31.7778 16.5631 32.1137 16.4238ZM38.6094 15.2317C38.6094 15.8052 38.638 16.2272 38.6954 16.4976C38.7527 16.7679 38.8593 17.0014 39.0149 17.1981C38.8756 17.3046 38.6954 17.3947 38.4742 17.4685C38.2611 17.534 38.0645 17.5668 37.8843 17.5668C37.491 17.5668 37.2534 17.2431 37.1714 16.5959C36.7208 17.2759 36.0203 17.6159 35.0699 17.6159C34.4635 17.6159 33.9719 17.4562 33.5951 17.1366C33.2264 16.8089 33.042 16.3828 33.042 15.8585C33.042 15.1129 33.3738 14.5475 34.0375 14.1625C34.7012 13.7692 35.7294 13.5357 37.1223 13.4619V12.9089C37.1223 12.1059 36.7003 11.7045 35.8564 11.7045C35.5533 11.7045 35.2665 11.7659 34.9961 11.8888C34.7257 12.0035 34.4062 12.2043 34.0375 12.491C33.9801 12.532 33.9228 12.5525 33.8654 12.5525C33.7343 12.5525 33.5951 12.4787 33.4476 12.3313C33.3001 12.1756 33.169 11.9667 33.0543 11.7045C33.3902 11.3767 33.8286 11.1145 34.3693 10.9179C34.9101 10.7131 35.459 10.6107 36.0162 10.6107C36.8437 10.6107 37.4828 10.8114 37.9334 11.2129C38.384 11.6143 38.6094 12.1797 38.6094 12.9089V15.2317ZM35.5123 16.5959C36.1432 16.5959 36.6798 16.2026 37.1223 15.416V14.3099C35.4181 14.3837 34.566 14.8548 34.566 15.7233C34.566 16.0019 34.6479 16.219 34.8118 16.3747C34.9756 16.5221 35.2091 16.5959 35.5123 16.5959ZM40.3598 7.77167H41.8592V17.493H40.3598V7.77167ZM43.7713 10.7336H45.2706V17.493H43.7713V10.7336ZM44.4472 9.49227C43.8982 9.49227 43.6238 9.21779 43.6238 8.66884V8.50907C43.6238 7.96012 43.8982 7.68564 44.4472 7.68564H44.5947C45.1436 7.68564 45.4181 7.96012 45.4181 8.50907V8.66884C45.4181 9.21779 45.1436 9.49227 44.5947 9.49227H44.4472ZM53.4445 17.493C53.3544 17.493 53.1004 17.5053 52.6825 17.5299C52.4695 17.5463 52.3384 17.5545 52.2893 17.5545C52.1172 17.5545 51.9779 17.5217 51.8714 17.4562C51.7649 17.3906 51.6707 17.2923 51.5887 17.1612L50.4212 15.1457C50.2983 14.9326 50.1426 14.7811 49.9542 14.6909C49.7657 14.5926 49.4953 14.5557 49.143 14.5803L48.7375 14.6049V17.493H47.2504V7.77167H48.7375V13.5111L49.0816 13.4988C49.3438 13.4824 49.5404 13.4333 49.6715 13.3513C49.8108 13.2612 49.946 13.1014 50.0771 12.872L51.3429 10.7336H53.0267L51.4044 13.2407C51.2979 13.421 51.1995 13.5643 51.1094 13.6709C51.0275 13.7692 50.9169 13.8552 50.7776 13.9289C50.9988 13.9863 51.1791 14.0723 51.3184 14.187C51.4658 14.3017 51.5969 14.4533 51.7116 14.6418L53.4445 17.493ZM62.46 13.0441C62.9024 13.167 63.2588 13.4128 63.5292 13.7815C63.8078 14.142 63.9471 14.5557 63.9471 15.0228C63.9471 15.8093 63.6767 16.4197 63.1359 16.854C62.6034 17.28 61.8414 17.493 60.85 17.493H57.7283V8.89006H60.7271C61.6038 8.89006 62.292 9.10309 62.7918 9.52914C63.2998 9.947 63.5538 10.5164 63.5538 11.2374C63.5538 11.6553 63.4555 12.0281 63.2588 12.3558C63.0622 12.6754 62.7959 12.9048 62.46 13.0441ZM61.9807 11.2374C61.9807 10.4181 61.4522 10.0084 60.3953 10.0084H59.2892V12.5525H60.3584C60.9155 12.5525 61.3252 12.446 61.5874 12.2329C61.8496 12.0199 61.9807 11.6881 61.9807 11.2374ZM60.555 16.3747C61.0139 16.3747 61.3744 16.3337 61.6366 16.2518C61.8987 16.1616 62.0872 16.0223 62.2019 15.8339C62.3166 15.6373 62.3739 15.3669 62.3739 15.0228C62.3739 14.5312 62.2306 14.1829 61.9438 13.9781C61.6652 13.7651 61.1941 13.6586 60.5305 13.6586H59.2892V16.3747H60.555ZM71.0884 15.9445C71.0884 16.2804 71.1007 16.5549 71.1253 16.7679C71.158 16.981 71.2072 17.1653 71.2728 17.321C70.9614 17.4767 70.6255 17.5545 70.265 17.5545C70.052 17.5545 69.8922 17.493 69.7857 17.3701C69.6873 17.2472 69.6218 17.0342 69.589 16.7311C69.3514 17.0096 69.0483 17.2268 68.6796 17.3824C68.3191 17.5381 67.9258 17.6159 67.4997 17.6159C66.7951 17.6159 66.2584 17.4234 65.8897 17.0383C65.5292 16.6532 65.349 16.0879 65.349 15.3423V10.7336H66.8361V15.2563C66.8361 15.7479 66.918 16.1002 67.0819 16.3132C67.2457 16.518 67.5161 16.6205 67.893 16.6205C68.2289 16.6205 68.5403 16.5344 68.8271 16.3624C69.1138 16.1903 69.3637 15.9404 69.5767 15.6127V10.7336H71.0884V15.9445ZM76.5089 16.4238C76.5826 16.4566 76.644 16.5139 76.6932 16.5959C76.7424 16.6696 76.7669 16.7597 76.7669 16.8663C76.7669 17.0301 76.7096 17.1612 76.5949 17.2595C76.4638 17.366 76.2672 17.4521 76.005 17.5176C75.751 17.5832 75.4683 17.6159 75.157 17.6159C74.5998 17.6159 74.1533 17.4644 73.8174 17.1612C73.4896 16.8499 73.3258 16.4361 73.3258 15.9199V11.729H72.2074V10.7336H73.3258V8.89006H74.8128V10.7336H76.2508V11.729H74.8128V15.7602C74.8128 16.0715 74.8702 16.2968 74.9849 16.4361C75.0996 16.5672 75.284 16.6327 75.5379 16.6327C75.8493 16.6327 76.1729 16.5631 76.5089 16.4238ZM83.5453 13.6586C83.5453 13.7979 83.5289 14.0314 83.4961 14.3591H78.9734C79.0144 15.0637 79.1782 15.6086 79.465 15.9937C79.7517 16.3788 80.1409 16.5713 80.6325 16.5713C80.9685 16.5713 81.2429 16.5057 81.456 16.3747C81.6772 16.2354 81.9271 15.9691 82.2056 15.5758C82.2548 15.5021 82.3408 15.4652 82.4637 15.4652C82.6931 15.4652 83.0086 15.6086 83.4101 15.8953C83.1807 16.4525 82.8242 16.8785 82.3408 17.1735C81.8656 17.4685 81.2962 17.6159 80.6325 17.6159C79.6411 17.6159 78.8587 17.3046 78.2851 16.6819C77.7198 16.051 77.4371 15.1907 77.4371 14.101C77.4371 13.0195 77.7239 12.1674 78.2974 11.5447C78.871 10.922 79.6575 10.6107 80.6571 10.6107C81.5748 10.6107 82.2835 10.8769 82.7833 11.4095C83.2913 11.9421 83.5453 12.6918 83.5453 13.6586ZM82.0336 13.4496C82.0336 12.2288 81.5625 11.6184 80.6202 11.6184C80.1532 11.6184 79.7804 11.7741 79.5019 12.0855C79.2315 12.3886 79.0635 12.8433 78.998 13.4496H82.0336ZM87.9603 10.6475C88.3208 10.6475 88.583 10.7213 88.7469 10.8687C88.9189 11.0162 89.005 11.2415 89.005 11.5447C89.005 11.6594 88.9886 11.7741 88.9558 11.8888C88.923 11.9953 88.878 12.0814 88.8206 12.1469C88.7305 12.0896 88.6199 12.0486 88.4888 12.024C88.3659 11.9994 88.1979 11.9871 87.9849 11.9871C87.4523 11.9871 87.0427 12.1715 86.7559 12.5402C86.4691 12.9007 86.3258 13.421 86.3258 14.101V17.493H84.8387V10.7336H86.3258V11.7413C86.4978 11.3972 86.7272 11.1309 87.014 10.9425C87.3008 10.7458 87.6162 10.6475 87.9603 10.6475ZM90.2187 10.7336H91.7181V17.493H90.2187V10.7336ZM90.8947 9.49227C90.3457 9.49227 90.0712 9.21779 90.0712 8.66884V8.50907C90.0712 7.96012 90.3457 7.68564 90.8947 7.68564H91.0421C91.5911 7.68564 91.8656 7.96012 91.8656 8.50907V8.66884C91.8656 9.21779 91.5911 9.49227 91.0421 9.49227H90.8947ZM99.2898 15.8339C99.2898 16.2763 99.3021 16.5959 99.3266 16.7925C99.3512 16.9892 99.4045 17.1653 99.4864 17.321C99.1013 17.4767 98.6958 17.5545 98.2697 17.5545C98.0976 17.5545 97.9747 17.4603 97.901 17.2718C97.8355 17.0752 97.8027 16.7311 97.8027 16.2395V12.9949C97.8027 12.5197 97.7248 12.1838 97.5692 11.9871C97.4135 11.7823 97.1513 11.6799 96.7826 11.6799C96.25 11.6799 95.6847 11.9421 95.0866 12.4664V17.493H93.5995V12.9703C93.5995 11.9052 93.5504 11.2252 93.452 10.9302C93.9272 10.7663 94.3287 10.6844 94.6564 10.6844C94.8121 10.6844 94.9227 10.7417 94.9883 10.8565C95.0538 10.9712 95.0866 11.1514 95.0866 11.3972V11.5447C95.4963 11.2006 95.8609 10.9589 96.1804 10.8196C96.4999 10.6803 96.8359 10.6107 97.1882 10.6107C97.8928 10.6107 98.4172 10.8032 98.7613 11.1883C99.1136 11.5652 99.2898 12.1428 99.2898 12.9212V15.8339Z" fill="white"/>
<rect x="0.6" y="0.6" width="116.508" height="25.4806" rx="12.7403" stroke="white" stroke-width="1.2"/>
<path d="M129.664 47.6159C129.025 47.6159 128.464 47.5381 127.98 47.3824C127.497 47.2186 127.124 46.9892 126.862 46.6942C126.6 46.3992 126.469 46.0592 126.469 45.6741C126.469 45.4201 126.567 45.2235 126.764 45.0842C126.968 44.9449 127.251 44.8712 127.612 44.863C127.685 45.371 127.902 45.7643 128.263 46.0428C128.623 46.3214 129.099 46.4607 129.689 46.4607C130.254 46.4607 130.688 46.346 130.991 46.1166C131.303 45.8872 131.458 45.5594 131.458 45.1334C131.458 44.7892 131.307 44.5107 131.004 44.2976C130.709 44.0764 130.184 43.8634 129.43 43.6586C128.431 43.38 127.714 43.0441 127.28 42.6508C126.845 42.2575 126.628 41.7454 126.628 41.1145C126.628 40.3853 126.903 39.8118 127.452 39.3939C128.009 38.9761 128.771 38.7672 129.738 38.7672C130.541 38.7672 131.217 38.9556 131.766 39.3325C132.323 39.7094 132.704 40.2338 132.909 40.9056C132.802 41.0121 132.65 41.1064 132.454 41.1883C132.257 41.2702 132.081 41.3112 131.925 41.3112C131.786 41.3112 131.675 41.2825 131.594 41.2252C131.512 41.1596 131.43 41.0531 131.348 40.9056C131.02 40.242 130.483 39.9101 129.738 39.9101C128.714 39.9101 128.201 40.2706 128.201 40.9916C128.201 41.2293 128.251 41.4259 128.349 41.5816C128.447 41.729 128.619 41.8642 128.865 41.9871C129.111 42.11 129.471 42.2452 129.947 42.3927C130.791 42.6549 131.43 42.9007 131.864 43.1301C132.298 43.3513 132.605 43.5971 132.786 43.8675C132.966 44.1297 133.056 44.4656 133.056 44.8753C133.056 45.416 132.917 45.8953 132.638 46.3132C132.36 46.7229 131.962 47.0424 131.446 47.2718C130.938 47.5012 130.344 47.6159 129.664 47.6159ZM139.602 45.2317C139.602 45.8052 139.63 46.2272 139.688 46.4976C139.745 46.7679 139.852 47.0014 140.007 47.1981C139.868 47.3046 139.688 47.3947 139.466 47.4685C139.253 47.534 139.057 47.5668 138.877 47.5668C138.483 47.5668 138.246 47.2431 138.164 46.5959C137.713 47.2759 137.013 47.6159 136.062 47.6159C135.456 47.6159 134.964 47.4562 134.587 47.1366C134.219 46.8089 134.034 46.3828 134.034 45.8585C134.034 45.1129 134.366 44.5475 135.03 44.1625C135.693 43.7692 136.722 43.5357 138.115 43.4619V42.9089C138.115 42.1059 137.693 41.7045 136.849 41.7045C136.546 41.7045 136.259 41.7659 135.988 41.8888C135.718 42.0035 135.399 42.2043 135.03 42.491C134.972 42.532 134.915 42.5525 134.858 42.5525C134.727 42.5525 134.587 42.4787 134.44 42.3313C134.292 42.1756 134.161 41.9667 134.047 41.7045C134.383 41.3767 134.821 41.1145 135.362 40.9179C135.902 40.7131 136.451 40.6107 137.009 40.6107C137.836 40.6107 138.475 40.8114 138.926 41.2129C139.376 41.6143 139.602 42.1797 139.602 42.9089V45.2317ZM136.505 46.5959C137.135 46.5959 137.672 46.2026 138.115 45.416V44.3099C136.41 44.3837 135.558 44.8548 135.558 45.7233C135.558 46.0019 135.64 46.219 135.804 46.3747C135.968 46.5221 136.201 46.5959 136.505 46.5959ZM144.904 46.4238C144.978 46.4566 145.039 46.5139 145.088 46.5959C145.137 46.6696 145.162 46.7597 145.162 46.8663C145.162 47.0301 145.105 47.1612 144.99 47.2595C144.859 47.366 144.662 47.4521 144.4 47.5176C144.146 47.5832 143.863 47.6159 143.552 47.6159C142.995 47.6159 142.548 47.4644 142.212 47.1612C141.885 46.8499 141.721 46.4361 141.721 45.9199V41.729H140.602V40.7336H141.721V38.8901H143.208V40.7336H144.646V41.729H143.208V45.7602C143.208 46.0715 143.265 46.2968 143.38 46.4361C143.495 46.5672 143.679 46.6327 143.933 46.6327C144.244 46.6327 144.568 46.5631 144.904 46.4238ZM148.757 47.6159C147.774 47.6159 147.02 47.3128 146.496 46.7065C145.972 46.1002 145.709 45.2317 145.709 44.101C145.709 42.9703 145.972 42.1059 146.496 41.5078C147.02 40.9097 147.774 40.6107 148.757 40.6107C149.74 40.6107 150.49 40.9097 151.006 41.5078C151.531 42.1059 151.793 42.9703 151.793 44.101C151.793 45.2399 151.531 46.1125 151.006 46.7188C150.482 47.3169 149.732 47.6159 148.757 47.6159ZM148.757 46.5959C149.29 46.5959 149.675 46.3992 149.912 46.006C150.158 45.6045 150.281 44.9695 150.281 44.101C150.281 43.2407 150.158 42.6139 149.912 42.2206C149.675 41.8274 149.29 41.6307 148.757 41.6307C148.225 41.6307 147.835 41.8274 147.59 42.2206C147.352 42.6057 147.233 43.2325 147.233 44.101C147.233 44.9777 147.352 45.6127 147.59 46.006C147.835 46.3992 148.225 46.5959 148.757 46.5959ZM155.204 47.6159C154.72 47.6159 154.282 47.5586 153.889 47.4439C153.504 47.3292 153.197 47.1735 152.967 46.9769C152.746 46.772 152.635 46.5467 152.635 46.3009C152.635 46.1125 152.701 45.9527 152.832 45.8216C152.963 45.6823 153.147 45.6004 153.385 45.5758C153.59 45.9199 153.84 46.178 154.135 46.3501C154.438 46.5139 154.811 46.5959 155.253 46.5959C155.679 46.5959 155.99 46.5098 156.187 46.3378C156.392 46.1575 156.494 45.9199 156.494 45.625C156.494 45.3546 156.371 45.1498 156.126 45.0105C155.888 44.8712 155.515 44.7278 155.007 44.5803C154.54 44.441 154.155 44.3058 153.852 44.1747C153.549 44.0355 153.291 43.8306 153.078 43.5603C152.865 43.2899 152.758 42.9417 152.758 42.5156C152.758 42.1223 152.873 41.7823 153.102 41.4955C153.34 41.2006 153.647 40.9794 154.024 40.8319C154.409 40.6844 154.819 40.6107 155.253 40.6107C155.827 40.6107 156.33 40.7213 156.765 40.9425C157.207 41.1637 157.555 41.4669 157.809 41.8519C157.703 42.024 157.572 42.1715 157.416 42.2944C157.269 42.4091 157.133 42.4664 157.011 42.4664C156.871 42.4664 156.752 42.405 156.654 42.2821C156.277 41.8315 155.818 41.6061 155.278 41.6061C154.934 41.6061 154.663 41.6799 154.467 41.8274C154.27 41.9667 154.172 42.1838 154.172 42.4787C154.172 42.6754 154.237 42.8392 154.368 42.9703C154.499 43.0932 154.659 43.1916 154.847 43.2653C155.044 43.339 155.319 43.4251 155.671 43.5234C156.138 43.6545 156.519 43.7856 156.814 43.9167C157.117 44.0396 157.375 44.2321 157.588 44.4943C157.801 44.7565 157.908 45.1047 157.908 45.5389C157.908 46.1944 157.67 46.7065 157.195 47.0752C156.72 47.4357 156.056 47.6159 155.204 47.6159ZM162.984 40.6107C163.607 40.6107 164.102 40.7991 164.471 41.176C164.84 41.5529 165.024 42.065 165.024 42.7122V47.493H163.525V42.872C163.525 42.4787 163.439 42.1879 163.267 41.9994C163.103 41.8028 162.845 41.7045 162.492 41.7045C162.189 41.7045 161.874 41.77 161.546 41.9011C161.227 42.0322 160.911 42.2247 160.6 42.4787V47.493H159.1V37.7717H160.6V41.5201C160.919 41.2333 161.288 41.0121 161.706 40.8565C162.132 40.6926 162.558 40.6107 162.984 40.6107ZM167.075 40.7336H168.575V47.493H167.075V40.7336ZM167.751 39.4923C167.202 39.4923 166.928 39.2178 166.928 38.6688V38.5091C166.928 37.9601 167.202 37.6856 167.751 37.6856H167.899C168.448 37.6856 168.722 37.9601 168.722 38.5091V38.6688C168.722 39.2178 168.448 39.4923 167.899 39.4923H167.751ZM180.384 45.8093C180.384 46.0633 180.392 46.3624 180.409 46.7065C180.425 46.9359 180.433 47.0875 180.433 47.1612C180.433 47.3824 180.327 47.493 180.114 47.493H178.848V46.9892C178.848 46.5795 178.688 46.1248 178.368 45.625L175.198 41.0408V47.493H173.661V38.8901H175.026C175.132 38.8901 175.218 38.9064 175.284 38.9392C175.349 38.9638 175.419 39.0293 175.493 39.1359L178.848 43.9535V38.8901H180.384V45.8093ZM187.429 45.2317C187.429 45.8052 187.458 46.2272 187.515 46.4976C187.573 46.7679 187.679 47.0014 187.835 47.1981C187.696 47.3046 187.515 47.3947 187.294 47.4685C187.081 47.534 186.885 47.5668 186.704 47.5668C186.311 47.5668 186.073 47.2431 185.991 46.5959C185.541 47.2759 184.84 47.6159 183.89 47.6159C183.284 47.6159 182.792 47.4562 182.415 47.1366C182.046 46.8089 181.862 46.3828 181.862 45.8585C181.862 45.1129 182.194 44.5475 182.857 44.1625C183.521 43.7692 184.549 43.5357 185.942 43.4619V42.9089C185.942 42.1059 185.52 41.7045 184.676 41.7045C184.373 41.7045 184.086 41.7659 183.816 41.8888C183.546 42.0035 183.226 42.2043 182.857 42.491C182.8 42.532 182.743 42.5525 182.685 42.5525C182.554 42.5525 182.415 42.4787 182.268 42.3313C182.12 42.1756 181.989 41.9667 181.874 41.7045C182.21 41.3767 182.649 41.1145 183.189 40.9179C183.73 40.7131 184.279 40.6107 184.836 40.6107C185.664 40.6107 186.303 40.8114 186.753 41.2129C187.204 41.6143 187.429 42.1797 187.429 42.9089V45.2317ZM184.332 46.5959C184.963 46.5959 185.5 46.2026 185.942 45.416V44.3099C184.238 44.3837 183.386 44.8548 183.386 45.7233C183.386 46.0019 183.468 46.219 183.632 46.3747C183.796 46.5221 184.029 46.5959 184.332 46.5959ZM195.435 47.493C195.345 47.493 195.091 47.5053 194.673 47.5299C194.46 47.5463 194.329 47.5545 194.28 47.5545C194.108 47.5545 193.969 47.5217 193.862 47.4562C193.756 47.3906 193.662 47.2923 193.58 47.1612L192.412 45.1457C192.289 44.9326 192.134 44.7811 191.945 44.6909C191.757 44.5926 191.486 44.5557 191.134 44.5803L190.728 44.6049V47.493H189.241V37.7717H190.728V43.5111L191.072 43.4988C191.335 43.4824 191.531 43.4333 191.662 43.3513C191.802 43.2612 191.937 43.1014 192.068 42.872L193.334 40.7336H195.018L193.395 43.2407C193.289 43.421 193.19 43.5643 193.1 43.6709C193.018 43.7692 192.908 43.8552 192.768 43.9289C192.99 43.9863 193.17 44.0723 193.309 44.187C193.457 44.3017 193.588 44.4533 193.703 44.6418L195.435 47.493ZM201.676 45.2317C201.676 45.8052 201.704 46.2272 201.762 46.4976C201.819 46.7679 201.926 47.0014 202.081 47.1981C201.942 47.3046 201.762 47.3947 201.54 47.4685C201.327 47.534 201.131 47.5668 200.951 47.5668C200.557 47.5668 200.32 47.2431 200.238 46.5959C199.787 47.2759 199.087 47.6159 198.136 47.6159C197.53 47.6159 197.038 47.4562 196.661 47.1366C196.293 46.8089 196.108 46.3828 196.108 45.8585C196.108 45.1129 196.44 44.5475 197.104 44.1625C197.767 43.7692 198.796 43.5357 200.189 43.4619V42.9089C200.189 42.1059 199.767 41.7045 198.923 41.7045C198.62 41.7045 198.333 41.7659 198.062 41.8888C197.792 42.0035 197.472 42.2043 197.104 42.491C197.046 42.532 196.989 42.5525 196.932 42.5525C196.801 42.5525 196.661 42.4787 196.514 42.3313C196.366 42.1756 196.235 41.9667 196.121 41.7045C196.457 41.3767 196.895 41.1145 197.436 40.9179C197.976 40.7131 198.525 40.6107 199.082 40.6107C199.91 40.6107 200.549 40.8114 201 41.2129C201.45 41.6143 201.676 42.1797 201.676 42.9089V45.2317ZM198.579 46.5959C199.209 46.5959 199.746 46.2026 200.189 45.416V44.3099C198.484 44.3837 197.632 44.8548 197.632 45.7233C197.632 46.0019 197.714 46.219 197.878 46.3747C198.042 46.5221 198.275 46.5959 198.579 46.5959ZM210.739 40.6107C211.37 40.6107 211.865 40.8032 212.226 41.1883C212.594 41.5652 212.779 42.0773 212.779 42.7245V47.493H211.279V42.7614C211.279 42.3353 211.206 42.0363 211.058 41.8642C210.919 41.6922 210.673 41.6061 210.321 41.6061C209.78 41.6061 209.301 41.8478 208.883 42.3313C208.891 42.3722 208.895 42.4378 208.895 42.5279V47.493H207.396V42.6385C207.396 42.278 207.326 42.0158 207.187 41.8519C207.048 41.6881 206.83 41.6061 206.535 41.6061C206.265 41.6061 206.003 41.6758 205.749 41.8151C205.503 41.9462 205.249 42.1592 204.987 42.4542V47.493H203.5V43.1178C203.5 41.9298 203.451 41.2088 203.352 40.9548C203.492 40.8728 203.66 40.8073 203.856 40.7581C204.053 40.709 204.229 40.6844 204.385 40.6844C204.573 40.6844 204.717 40.7499 204.815 40.881C204.913 41.0121 204.966 41.217 204.975 41.4955C205.286 41.1842 205.601 40.9589 205.921 40.8196C206.249 40.6803 206.609 40.6107 207.002 40.6107C207.388 40.6107 207.724 40.6926 208.01 40.8565C208.297 41.0121 208.518 41.2374 208.674 41.5324C209.182 40.9179 209.87 40.6107 210.739 40.6107ZM217.192 47.6159C216.209 47.6159 215.455 47.3128 214.931 46.7065C214.406 46.1002 214.144 45.2317 214.144 44.101C214.144 42.9703 214.406 42.1059 214.931 41.5078C215.455 40.9097 216.209 40.6107 217.192 40.6107C218.175 40.6107 218.925 40.9097 219.441 41.5078C219.966 42.1059 220.228 42.9703 220.228 44.101C220.228 45.2399 219.966 46.1125 219.441 46.7188C218.917 47.3169 218.167 47.6159 217.192 47.6159ZM217.192 46.5959C217.725 46.5959 218.11 46.3992 218.347 46.006C218.593 45.6045 218.716 44.9695 218.716 44.101C218.716 43.2407 218.593 42.6139 218.347 42.2206C218.11 41.8274 217.725 41.6307 217.192 41.6307C216.66 41.6307 216.27 41.8274 216.025 42.2206C215.787 42.6057 215.668 43.2325 215.668 44.101C215.668 44.9777 215.787 45.6127 216.025 46.006C216.27 46.3992 216.66 46.5959 217.192 46.5959ZM225.077 46.4238C225.151 46.4566 225.212 46.5139 225.261 46.5959C225.31 46.6696 225.335 46.7597 225.335 46.8663C225.335 47.0301 225.278 47.1612 225.163 47.2595C225.032 47.366 224.835 47.4521 224.573 47.5176C224.319 47.5832 224.036 47.6159 223.725 47.6159C223.168 47.6159 222.721 47.4644 222.385 47.1612C222.058 46.8499 221.894 46.4361 221.894 45.9199V41.729H220.775V40.7336H221.894V38.8901H223.381V40.7336H224.819V41.729H223.381V45.7602C223.381 46.0715 223.438 46.2968 223.553 46.4361C223.668 46.5672 223.852 46.6327 224.106 46.6327C224.417 46.6327 224.741 46.5631 225.077 46.4238ZM228.93 47.6159C227.947 47.6159 227.193 47.3128 226.669 46.7065C226.144 46.1002 225.882 45.2317 225.882 44.101C225.882 42.9703 226.144 42.1059 226.669 41.5078C227.193 40.9097 227.947 40.6107 228.93 40.6107C229.913 40.6107 230.663 40.9097 231.179 41.5078C231.704 42.1059 231.966 42.9703 231.966 44.101C231.966 45.2399 231.704 46.1125 231.179 46.7188C230.655 47.3169 229.905 47.6159 228.93 47.6159ZM228.93 46.5959C229.463 46.5959 229.848 46.3992 230.085 46.006C230.331 45.6045 230.454 44.9695 230.454 44.101C230.454 43.2407 230.331 42.6139 230.085 42.2206C229.848 41.8274 229.463 41.6307 228.93 41.6307C228.398 41.6307 228.008 41.8274 227.763 42.2206C227.525 42.6057 227.406 43.2325 227.406 44.101C227.406 44.9777 227.525 45.6127 227.763 46.006C228.008 46.3992 228.398 46.5959 228.93 46.5959Z" fill="white"/>
<rect x="120.6" y="30.6" width="116.508" height="25.4806" rx="12.7403" stroke="white" stroke-width="1.2"/>
<path d="M133.991 17.6159C132.729 17.6159 131.758 17.235 131.078 16.473C130.398 15.7028 130.058 14.6131 130.058 13.2038C130.058 11.8028 130.402 10.7131 131.09 9.93471C131.778 9.15634 132.745 8.76716 133.991 8.76716C134.49 8.76716 134.966 8.85319 135.416 9.02525C135.875 9.19731 136.248 9.43082 136.535 9.72578C136.494 9.95519 136.403 10.16 136.264 10.3403C136.125 10.5205 135.99 10.6107 135.859 10.6107C135.744 10.6107 135.637 10.5738 135.539 10.5C135.277 10.3034 135.023 10.16 134.777 10.0699C134.531 9.97977 134.261 9.93471 133.966 9.93471C133.204 9.93471 132.626 10.2092 132.233 10.7581C131.848 11.3071 131.655 12.1223 131.655 13.2038C131.655 14.2772 131.848 15.0883 132.233 15.6373C132.626 16.178 133.204 16.4484 133.966 16.4484C134.728 16.4484 135.379 16.178 135.92 15.6373C136.084 15.7028 136.215 15.8011 136.313 15.9322C136.412 16.0633 136.461 16.2067 136.461 16.3624C136.461 16.5836 136.346 16.7925 136.117 16.9892C135.887 17.1776 135.584 17.3292 135.207 17.4439C134.83 17.5586 134.425 17.6159 133.991 17.6159ZM141.746 10.6107C142.369 10.6107 142.864 10.7991 143.233 11.176C143.602 11.5529 143.786 12.065 143.786 12.7122V17.493H142.287V12.872C142.287 12.4787 142.201 12.1879 142.029 11.9994C141.865 11.8028 141.607 11.7045 141.254 11.7045C140.951 11.7045 140.636 11.77 140.308 11.9011C139.989 12.0322 139.673 12.2247 139.362 12.4787V17.493H137.862V7.77167H139.362V11.5201C139.681 11.2333 140.05 11.0121 140.468 10.8565C140.894 10.6926 141.32 10.6107 141.746 10.6107ZM150.913 15.2317C150.913 15.8052 150.942 16.2272 150.999 16.4976C151.056 16.7679 151.163 17.0014 151.319 17.1981C151.179 17.3046 150.999 17.3947 150.778 17.4685C150.565 17.534 150.368 17.5668 150.188 17.5668C149.795 17.5668 149.557 17.2431 149.475 16.5959C149.024 17.2759 148.324 17.6159 147.373 17.6159C146.767 17.6159 146.276 17.4562 145.899 17.1366C145.53 16.8089 145.346 16.3828 145.346 15.8585C145.346 15.1129 145.677 14.5475 146.341 14.1625C147.005 13.7692 148.033 13.5357 149.426 13.4619V12.9089C149.426 12.1059 149.004 11.7045 148.16 11.7045C147.857 11.7045 147.57 11.7659 147.3 11.8888C147.029 12.0035 146.71 12.2043 146.341 12.491C146.284 12.532 146.226 12.5525 146.169 12.5525C146.038 12.5525 145.899 12.4787 145.751 12.3313C145.604 12.1756 145.473 11.9667 145.358 11.7045C145.694 11.3767 146.132 11.1145 146.673 10.9179C147.214 10.7131 147.763 10.6107 148.32 10.6107C149.147 10.6107 149.786 10.8114 150.237 11.2129C150.688 11.6143 150.913 12.1797 150.913 12.9089V15.2317ZM147.816 16.5959C148.447 16.5959 148.983 16.2026 149.426 15.416V14.3099C147.722 14.3837 146.87 14.8548 146.87 15.7233C146.87 16.0019 146.951 16.219 147.115 16.3747C147.279 16.5221 147.513 16.5959 147.816 16.5959ZM158.317 15.8339C158.317 16.2763 158.329 16.5959 158.354 16.7925C158.378 16.9892 158.431 17.1653 158.513 17.321C158.128 17.4767 157.723 17.5545 157.297 17.5545C157.125 17.5545 157.002 17.4603 156.928 17.2718C156.862 17.0752 156.83 16.7311 156.83 16.2395V12.9949C156.83 12.5197 156.752 12.1838 156.596 11.9871C156.441 11.7823 156.178 11.6799 155.81 11.6799C155.277 11.6799 154.712 11.9421 154.114 12.4664V17.493H152.627V12.9703C152.627 11.9052 152.577 11.2252 152.479 10.9302C152.954 10.7663 153.356 10.6844 153.683 10.6844C153.839 10.6844 153.95 10.7417 154.015 10.8565C154.081 10.9712 154.114 11.1514 154.114 11.3972V11.5447C154.523 11.2006 154.888 10.9589 155.207 10.8196C155.527 10.6803 155.863 10.6107 156.215 10.6107C156.92 10.6107 157.444 10.8032 157.788 11.1883C158.141 11.5652 158.317 12.1428 158.317 12.9212V15.8339ZM165.695 10.1313C165.957 10.1313 166.138 10.2215 166.236 10.4017C166.334 10.582 166.379 10.8892 166.371 11.3235C165.789 11.3235 165.376 11.3931 165.13 11.5324C165.425 11.9175 165.572 12.364 165.572 12.872C165.572 13.6422 165.326 14.228 164.835 14.6295C164.351 15.031 163.639 15.2317 162.696 15.2317C162.254 15.2317 161.943 15.2645 161.762 15.33C161.582 15.3874 161.492 15.4939 161.492 15.6495C161.492 15.8052 161.598 15.9117 161.811 15.9691C162.033 16.0264 162.451 16.0551 163.065 16.0551C164.024 16.0551 164.761 16.219 165.277 16.5467C165.802 16.8744 166.064 17.3374 166.064 17.9355C166.064 18.5828 165.773 19.0907 165.191 19.4594C164.618 19.8281 163.827 20.0125 162.819 20.0125C161.82 20.0125 161.054 19.8527 160.521 19.5332C159.988 19.2218 159.722 18.7753 159.722 18.1936C159.722 17.8249 159.849 17.5258 160.103 17.2964C160.365 17.067 160.746 16.9113 161.246 16.8294V16.7925C160.935 16.727 160.693 16.6123 160.521 16.4484C160.349 16.2763 160.263 16.0674 160.263 15.8216C160.263 15.6086 160.349 15.4201 160.521 15.2563C160.701 15.0924 160.939 14.9736 161.234 14.8999C160.849 14.695 160.546 14.4287 160.324 14.101C160.103 13.7733 159.993 13.4128 159.993 13.0195C159.993 12.2411 160.242 11.6471 160.742 11.2374C161.25 10.8196 161.979 10.6107 162.93 10.6107C163.446 10.6107 163.905 10.7049 164.306 10.8933C164.503 10.6639 164.728 10.4796 164.982 10.3403C165.236 10.201 165.474 10.1313 165.695 10.1313ZM162.77 14.2116C163.213 14.2116 163.536 14.1092 163.741 13.9044C163.946 13.6995 164.048 13.3718 164.048 12.9212C164.048 12.4623 163.946 12.1305 163.741 11.9257C163.536 11.7127 163.213 11.6061 162.77 11.6061C162.336 11.6061 162.016 11.7127 161.811 11.9257C161.607 12.1387 161.504 12.4705 161.504 12.9212C161.504 13.3554 161.607 13.6791 161.811 13.8921C162.024 14.1051 162.344 14.2116 162.77 14.2116ZM162.868 17.0629C161.787 17.0629 161.246 17.3783 161.246 18.0092C161.246 18.3451 161.373 18.595 161.627 18.7589C161.889 18.9228 162.287 19.0047 162.819 19.0047C163.401 19.0047 163.843 18.9187 164.147 18.7466C164.458 18.5828 164.614 18.337 164.614 18.0092C164.614 17.6815 164.47 17.4439 164.183 17.2964C163.905 17.1407 163.467 17.0629 162.868 17.0629ZM170.697 10.6107C171.582 10.6107 172.253 10.9015 172.712 11.4832C173.179 12.0568 173.413 12.9007 173.413 14.015C173.413 14.736 173.282 15.3669 173.019 15.9076C172.765 16.4484 172.401 16.8704 171.926 17.1735C171.45 17.4685 170.901 17.6159 170.279 17.6159C169.828 17.6159 169.349 17.5299 168.841 17.3579V20.2583H167.354V13.2161C167.354 12.5852 167.329 12.1059 167.28 11.7782C167.239 11.4505 167.157 11.2006 167.034 11.0285C167.231 10.922 167.432 10.8401 167.636 10.7827C167.849 10.7172 168.042 10.6844 168.214 10.6844C168.37 10.6844 168.493 10.7417 168.583 10.8565C168.681 10.9712 168.751 11.1514 168.792 11.3972C169.291 10.8728 169.926 10.6107 170.697 10.6107ZM170.107 16.5959C170.68 16.5959 171.119 16.3747 171.422 15.9322C171.733 15.4898 171.889 14.8507 171.889 14.015C171.889 13.1956 171.77 12.5893 171.532 12.1961C171.295 11.8028 170.926 11.6061 170.426 11.6061C170.123 11.6061 169.828 11.6758 169.541 11.8151C169.263 11.9544 169.029 12.1387 168.841 12.3681V16.3255C169.226 16.5057 169.648 16.5959 170.107 16.5959ZM180.438 13.6586C180.438 13.7979 180.422 14.0314 180.389 14.3591H175.866C175.907 15.0637 176.071 15.6086 176.358 15.9937C176.645 16.3788 177.034 16.5713 177.526 16.5713C177.862 16.5713 178.136 16.5057 178.349 16.3747C178.57 16.2354 178.82 15.9691 179.099 15.5758C179.148 15.5021 179.234 15.4652 179.357 15.4652C179.586 15.4652 179.902 15.6086 180.303 15.8953C180.074 16.4525 179.717 16.8785 179.234 17.1735C178.759 17.4685 178.189 17.6159 177.526 17.6159C176.534 17.6159 175.752 17.3046 175.178 16.6819C174.613 16.051 174.33 15.1907 174.33 14.101C174.33 13.0195 174.617 12.1674 175.191 11.5447C175.764 10.922 176.551 10.6107 177.55 10.6107C178.468 10.6107 179.177 10.8769 179.676 11.4095C180.184 11.9421 180.438 12.6918 180.438 13.6586ZM178.927 13.4496C178.927 12.2288 178.456 11.6184 177.513 11.6184C177.046 11.6184 176.674 11.7741 176.395 12.0855C176.125 12.3886 175.957 12.8433 175.891 13.4496H178.927ZM187.397 15.8339C187.397 16.2763 187.41 16.5959 187.434 16.7925C187.459 16.9892 187.512 17.1653 187.594 17.321C187.209 17.4767 186.803 17.5545 186.377 17.5545C186.205 17.5545 186.082 17.4603 186.009 17.2718C185.943 17.0752 185.91 16.7311 185.91 16.2395V12.9949C185.91 12.5197 185.833 12.1838 185.677 11.9871C185.521 11.7823 185.259 11.6799 184.89 11.6799C184.358 11.6799 183.792 11.9421 183.194 12.4664V17.493H181.707V12.9703C181.707 11.9052 181.658 11.2252 181.56 10.9302C182.035 10.7663 182.436 10.6844 182.764 10.6844C182.92 10.6844 183.03 10.7417 183.096 10.8565C183.162 10.9712 183.194 11.1514 183.194 11.3972V11.5447C183.604 11.2006 183.969 10.9589 184.288 10.8196C184.608 10.6803 184.944 10.6107 185.296 10.6107C186 10.6107 186.525 10.8032 186.869 11.1883C187.221 11.5652 187.397 12.1428 187.397 12.9212V15.8339ZM194.776 10.1313C195.038 10.1313 195.218 10.2215 195.317 10.4017C195.415 10.582 195.46 10.8892 195.452 11.3235C194.87 11.3235 194.456 11.3931 194.21 11.5324C194.505 11.9175 194.653 12.364 194.653 12.872C194.653 13.6422 194.407 14.228 193.915 14.6295C193.432 15.031 192.719 15.2317 191.777 15.2317C191.335 15.2317 191.023 15.2645 190.843 15.33C190.663 15.3874 190.573 15.4939 190.573 15.6495C190.573 15.8052 190.679 15.9117 190.892 15.9691C191.113 16.0264 191.531 16.0551 192.146 16.0551C193.104 16.0551 193.842 16.219 194.358 16.5467C194.882 16.8744 195.144 17.3374 195.144 17.9355C195.144 18.5828 194.854 19.0907 194.272 19.4594C193.698 19.8281 192.908 20.0125 191.9 20.0125C190.9 20.0125 190.134 19.8527 189.602 19.5332C189.069 19.2218 188.803 18.7753 188.803 18.1936C188.803 17.8249 188.93 17.5258 189.184 17.2964C189.446 17.067 189.827 16.9113 190.327 16.8294V16.7925C190.015 16.727 189.774 16.6123 189.602 16.4484C189.43 16.2763 189.344 16.0674 189.344 15.8216C189.344 15.6086 189.43 15.4201 189.602 15.2563C189.782 15.0924 190.02 14.9736 190.314 14.8999C189.929 14.695 189.626 14.4287 189.405 14.101C189.184 13.7733 189.073 13.4128 189.073 13.0195C189.073 12.2411 189.323 11.6471 189.823 11.2374C190.331 10.8196 191.06 10.6107 192.011 10.6107C192.527 10.6107 192.986 10.7049 193.387 10.8933C193.584 10.6639 193.809 10.4796 194.063 10.3403C194.317 10.201 194.555 10.1313 194.776 10.1313ZM191.851 14.2116C192.293 14.2116 192.617 14.1092 192.822 13.9044C193.026 13.6995 193.129 13.3718 193.129 12.9212C193.129 12.4623 193.026 12.1305 192.822 11.9257C192.617 11.7127 192.293 11.6061 191.851 11.6061C191.416 11.6061 191.097 11.7127 190.892 11.9257C190.687 12.1387 190.585 12.4705 190.585 12.9212C190.585 13.3554 190.687 13.6791 190.892 13.8921C191.105 14.1051 191.425 14.2116 191.851 14.2116ZM191.949 17.0629C190.868 17.0629 190.327 17.3783 190.327 18.0092C190.327 18.3451 190.454 18.595 190.708 18.7589C190.97 18.9228 191.367 19.0047 191.9 19.0047C192.482 19.0047 192.924 18.9187 193.227 18.7466C193.539 18.5828 193.694 18.337 193.694 18.0092C193.694 17.6815 193.551 17.4439 193.264 17.2964C192.986 17.1407 192.547 17.0629 191.949 17.0629ZM205.281 16.4238V17.493H199.283V16.4238L203.499 9.95929H199.259V8.89006H205.183V10.0084L201.029 16.4238H205.281ZM210.505 10.6107C211.128 10.6107 211.623 10.7991 211.992 11.176C212.361 11.5529 212.545 12.065 212.545 12.7122V17.493H211.046V12.872C211.046 12.4787 210.96 12.1879 210.788 11.9994C210.624 11.8028 210.366 11.7045 210.013 11.7045C209.71 11.7045 209.395 11.77 209.067 11.9011C208.748 12.0322 208.432 12.2247 208.121 12.4787V17.493H206.621V7.77167H208.121V11.5201C208.44 11.2333 208.809 11.0121 209.227 10.8565C209.653 10.6926 210.079 10.6107 210.505 10.6107ZM219.672 15.2317C219.672 15.8052 219.701 16.2272 219.758 16.4976C219.815 16.7679 219.922 17.0014 220.078 17.1981C219.938 17.3046 219.758 17.3947 219.537 17.4685C219.324 17.534 219.127 17.5668 218.947 17.5668C218.554 17.5668 218.316 17.2431 218.234 16.5959C217.783 17.2759 217.083 17.6159 216.132 17.6159C215.526 17.6159 215.035 17.4562 214.658 17.1366C214.289 16.8089 214.105 16.3828 214.105 15.8585C214.105 15.1129 214.436 14.5475 215.1 14.1625C215.764 13.7692 216.792 13.5357 218.185 13.4619V12.9089C218.185 12.1059 217.763 11.7045 216.919 11.7045C216.616 11.7045 216.329 11.7659 216.059 11.8888C215.788 12.0035 215.469 12.2043 215.1 12.491C215.043 12.532 214.985 12.5525 214.928 12.5525C214.797 12.5525 214.658 12.4787 214.51 12.3313C214.363 12.1756 214.232 11.9667 214.117 11.7045C214.453 11.3767 214.891 11.1145 215.432 10.9179C215.973 10.7131 216.522 10.6107 217.079 10.6107C217.906 10.6107 218.545 10.8114 218.996 11.2129C219.447 11.6143 219.672 12.1797 219.672 12.9089V15.2317ZM216.575 16.5959C217.206 16.5959 217.742 16.2026 218.185 15.416V14.3099C216.481 14.3837 215.629 14.8548 215.629 15.7233C215.629 16.0019 215.711 16.219 215.874 16.3747C216.038 16.5221 216.272 16.5959 216.575 16.5959ZM223.979 17.6159C222.996 17.6159 222.242 17.3128 221.717 16.7065C221.193 16.1002 220.931 15.2317 220.931 14.101C220.931 12.9703 221.193 12.1059 221.717 11.5078C222.242 10.9097 222.996 10.6107 223.979 10.6107C224.962 10.6107 225.712 10.9097 226.228 11.5078C226.752 12.1059 227.014 12.9703 227.014 14.101C227.014 15.2399 226.752 16.1125 226.228 16.7188C225.703 17.3169 224.954 17.6159 223.979 17.6159ZM223.979 16.5959C224.511 16.5959 224.896 16.3992 225.134 16.006C225.38 15.6045 225.503 14.9695 225.503 14.101C225.503 13.2407 225.38 12.6139 225.134 12.2206C224.896 11.8274 224.511 11.6307 223.979 11.6307C223.446 11.6307 223.057 11.8274 222.811 12.2206C222.574 12.6057 222.455 13.2325 222.455 14.101C222.455 14.9777 222.574 15.6127 222.811 16.006C223.057 16.3992 223.446 16.5959 223.979 16.5959Z" fill="white"/>
<rect x="120.6" y="0.6" width="116.508" height="25.4806" rx="12.7403" stroke="white" stroke-width="1.2"/>
</svg>
