<svg width="244" height="50" viewBox="0 0 244 50" fill="none" xmlns="http://www.w3.org/2000/svg">
<path d="M9.58026 18H3.86278L0.127368 3.51573H5.00628L6.93752 14.1629H7.06457L9.12286 3.51573H13.9001L16.0092 14.1629H16.0855L18.0421 3.51573H22.7177L18.9823 18H13.2903L11.5623 8.7504H11.4099L9.58026 18ZM35.423 7.04786C35.5755 7.23421 35.6856 7.70008 35.7534 8.44546C35.8381 9.19085 35.8804 10.3259 35.8804 11.8505V18H31.5352V11.9014C31.5352 11.8336 31.5352 11.5033 31.5352 10.9103C31.5352 10.3005 31.4928 9.92777 31.4081 9.79225C31.3573 9.72448 31.2302 9.67366 31.0269 9.63978C30.8406 9.6059 30.6204 9.58896 30.3663 9.58896L29.9343 9.61437C29.4599 9.63131 28.9687 9.74143 28.4604 9.94471V18H24.1152V2.7534L28.4604 2.57552V5.54861C28.4604 6.76834 28.4181 7.58149 28.3334 7.98807L28.3588 8.01348C29.5108 6.70905 30.8914 6.05683 32.5008 6.05683C33.1106 6.05683 33.6782 6.14153 34.2033 6.31094C34.7454 6.48035 35.152 6.72599 35.423 7.04786ZM43.529 18.3303C41.4961 18.3303 39.9714 17.856 38.955 16.9073C37.9555 15.9417 37.4557 14.4255 37.4557 12.3588C37.4557 11.2237 37.5574 10.2327 37.7607 9.38567C37.9809 8.5217 38.2435 7.9203 38.5484 7.58149C38.938 7.14103 39.6495 6.77681 40.6829 6.48882C41.7332 6.20083 42.7158 6.05683 43.6306 6.05683C45.8159 6.05683 47.3745 6.5227 48.3062 7.45444C49.238 8.38617 49.7038 9.87695 49.7038 11.9268C49.7038 14.1291 49.2041 15.7469 48.2046 16.7803C47.2051 17.8137 45.6465 18.3303 43.529 18.3303ZM43.6052 15.3573C44.2659 15.3573 44.6979 15.1286 44.9011 14.6712C45.1044 14.1968 45.2061 13.3667 45.2061 12.1809C45.2061 11.3508 45.1637 10.7155 45.079 10.2751C44.9943 9.81766 44.8334 9.48732 44.5962 9.28403C44.376 9.0638 44.0287 8.95368 43.5544 8.95368C42.8767 8.95368 42.4871 9.01298 42.3855 9.13156C42.2499 9.25015 42.1398 9.62284 42.0551 10.2496C41.9704 10.8765 41.9281 11.5287 41.9281 12.2063C41.9281 13.3583 42.0382 14.1714 42.2584 14.6457C42.4956 15.1201 42.9445 15.3573 43.6052 15.3573ZM65.0181 17.6442C63.6459 18.1016 62.1128 18.3303 60.4187 18.3303C58.5214 18.3303 57.0984 17.856 56.1497 16.9073C55.2179 15.9417 54.7521 14.4425 54.7521 12.4096C54.7521 11.4101 54.8876 10.4275 55.1587 9.4619C55.4297 8.47935 55.7177 7.81866 56.0226 7.47985C56.3784 7.09021 57.0729 6.75987 58.1063 6.48882C59.1566 6.21777 60.2409 6.08224 61.3589 6.08224C62.5278 6.08224 63.7052 6.18389 64.8911 6.38717C64.8572 6.81069 64.7979 7.31044 64.7132 7.88642C64.6454 8.44546 64.5692 8.94521 64.4845 9.38567C63.4342 9.31791 62.4431 9.28403 61.5114 9.28403C60.5966 9.28403 60.0122 9.33485 59.758 9.43649C59.6225 9.48732 59.4955 9.8346 59.3769 10.4783C59.2752 11.1221 59.2244 11.7235 59.2244 12.2825C59.2244 13.0279 59.3261 13.6039 59.5293 14.0105C59.7496 14.4001 60.0884 14.6712 60.5458 14.8236C61.0032 14.9761 61.6215 15.0523 62.4008 15.0523C62.7396 15.0523 63.485 15.0184 64.637 14.9507L65.0181 17.6442ZM72.1163 18.3303C70.0834 18.3303 68.5588 17.856 67.5423 16.9073C66.5428 15.9417 66.0431 14.4255 66.0431 12.3588C66.0431 11.2237 66.1447 10.2327 66.348 9.38567C66.5683 8.5217 66.8308 7.9203 67.1358 7.58149C67.5254 7.14103 68.2369 6.77681 69.2703 6.48882C70.3206 6.20083 71.3032 6.05683 72.218 6.05683C74.4033 6.05683 75.9619 6.5227 76.8936 7.45444C77.8253 8.38617 78.2912 9.87695 78.2912 11.9268C78.2912 14.1291 77.7915 15.7469 76.792 16.7803C75.7925 17.8137 74.2339 18.3303 72.1163 18.3303ZM72.1926 15.3573C72.8532 15.3573 73.2852 15.1286 73.4885 14.6712C73.6918 14.1968 73.7935 13.3667 73.7935 12.1809C73.7935 11.3508 73.7511 10.7155 73.6664 10.2751C73.5817 9.81766 73.4208 9.48732 73.1836 9.28403C72.9634 9.0638 72.6161 8.95368 72.1417 8.95368C71.4641 8.95368 71.0745 9.01298 70.9728 9.13156C70.8373 9.25015 70.7272 9.62284 70.6425 10.2496C70.5578 10.8765 70.5154 11.5287 70.5154 12.2063C70.5154 13.3583 70.6255 14.1714 70.8458 14.6457C71.0829 15.1201 71.5319 15.3573 72.1926 15.3573ZM79.772 9.63978H87.3953V13.2736H79.772V9.63978ZM91.5669 4.86251C90.9909 4.86251 90.4911 4.6677 90.0676 4.27806C89.661 3.88843 89.4577 3.42256 89.4577 2.88046C89.4577 2.33835 89.661 1.87249 90.0676 1.48285C90.4911 1.09322 90.9909 0.898398 91.5669 0.898398C92.1428 0.898398 92.6341 1.09322 93.0407 1.48285C93.4473 1.87249 93.6506 2.33835 93.6506 2.88046C93.6506 3.42256 93.4473 3.88843 93.0407 4.27806C92.6341 4.6677 92.1428 4.86251 91.5669 4.86251ZM89.3815 6.31094H93.7268V18H89.3815V6.31094ZM107.189 7.04786C107.342 7.23421 107.452 7.70008 107.52 8.44546C107.604 9.19085 107.647 10.3259 107.647 11.8505V18H103.301V11.9014V10.8595C103.301 10.3174 103.259 9.97859 103.174 9.84307C103.039 9.67366 102.725 9.58896 102.234 9.58896C101.997 9.58896 101.819 9.59743 101.7 9.61437C101.226 9.63131 100.735 9.74143 100.227 9.94471V18H95.8814V6.31094H99.4135L99.8963 8.26759C101.116 6.79375 102.573 6.05683 104.267 6.05683C104.877 6.05683 105.444 6.14153 105.97 6.31094C106.512 6.48035 106.918 6.72599 107.189 7.04786ZM117.176 6.31094H121.724L118.167 18H112.144L108.587 6.31094H113.135L115.041 15.281H115.295L117.176 6.31094ZM129.821 14.9507C130.245 14.9507 131.033 14.9083 132.185 14.8236C132.337 14.8236 132.617 14.8067 133.023 14.7728L133.404 17.3901C132.1 18 130.406 18.3049 128.322 18.3049C126.374 18.3049 124.875 17.8137 123.824 16.8311C122.791 15.8485 122.274 14.3662 122.274 12.3842C122.274 11.3677 122.401 10.3852 122.655 9.43649C122.926 8.48782 123.231 7.82713 123.57 7.45444C123.926 7.08174 124.587 6.75987 125.552 6.48882C126.518 6.21777 127.475 6.08224 128.424 6.08224C129.948 6.08224 131.092 6.35329 131.854 6.89539C132.617 7.43749 133.116 8.19135 133.353 9.15697C133.591 10.1056 133.709 11.3847 133.709 12.994C132.557 13.0618 131.431 13.0957 130.33 13.0957H126.721C126.721 13.6378 126.831 14.0444 127.052 14.3154C127.289 14.5865 127.619 14.7643 128.043 14.849C128.466 14.9168 129.059 14.9507 129.821 14.9507ZM126.975 9.10615C126.874 9.15697 126.797 9.3772 126.747 9.76684C126.696 10.1565 126.662 10.5969 126.645 11.0882H127.966C128.763 11.0882 129.339 11.0797 129.694 11.0628C129.694 10.2496 129.576 9.67366 129.339 9.33485C129.118 8.99604 128.729 8.82663 128.17 8.82663C127.712 8.82663 127.314 8.9198 126.975 9.10615ZM146.547 7.04786C146.699 7.23421 146.809 7.70008 146.877 8.44546C146.962 9.19085 147.004 10.3259 147.004 11.8505V18H142.659V11.9014V10.8595C142.659 10.3174 142.616 9.97859 142.532 9.84307C142.396 9.67366 142.083 9.58896 141.591 9.58896C141.354 9.58896 141.176 9.59743 141.058 9.61437C140.583 9.63131 140.092 9.74143 139.584 9.94471V18H135.239V6.31094H138.771L139.254 8.26759C140.473 6.79375 141.93 6.05683 143.624 6.05683C144.234 6.05683 144.802 6.14153 145.327 6.31094C145.869 6.48035 146.275 6.72599 146.547 7.04786ZM154.398 13.1973C154.398 13.5023 154.407 13.8241 154.424 14.1629C154.441 14.4848 154.492 14.6881 154.576 14.7728C154.695 14.8914 155.11 14.9507 155.821 14.9507L156.685 14.9253C156.838 15.7384 156.914 16.6786 156.914 17.7459C156.592 17.8645 156.118 17.9746 155.491 18.0762C154.881 18.1779 154.297 18.2287 153.738 18.2287C152.569 18.2287 151.662 17.9746 151.019 17.4664C150.392 16.9412 150.078 16.1365 150.078 15.0523V8.80122H148.173V6.48882L150.078 6.31094L151.222 3.51573L154.398 3.33785V6.31094H157.092V8.80122H154.398V13.1973ZM165.481 14.9507C165.905 14.9507 166.692 14.9083 167.844 14.8236C167.997 14.8236 168.276 14.8067 168.683 14.7728L169.064 17.3901C167.76 18 166.066 18.3049 163.982 18.3049C162.034 18.3049 160.534 17.8137 159.484 16.8311C158.451 15.8485 157.934 14.3662 157.934 12.3842C157.934 11.3677 158.061 10.3852 158.315 9.43649C158.586 8.48782 158.891 7.82713 159.23 7.45444C159.586 7.08174 160.246 6.75987 161.212 6.48882C162.178 6.21777 163.135 6.08224 164.083 6.08224C165.608 6.08224 166.752 6.35329 167.514 6.89539C168.276 7.43749 168.776 8.19135 169.013 9.15697C169.25 10.1056 169.369 11.3847 169.369 12.994C168.217 13.0618 167.09 13.0957 165.989 13.0957H162.381C162.381 13.6378 162.491 14.0444 162.711 14.3154C162.948 14.5865 163.279 14.7643 163.702 14.849C164.126 14.9168 164.719 14.9507 165.481 14.9507ZM162.635 9.10615C162.533 9.15697 162.457 9.3772 162.406 9.76684C162.356 10.1565 162.322 10.5969 162.305 11.0882H163.626C164.422 11.0882 164.998 11.0797 165.354 11.0628C165.354 10.2496 165.235 9.67366 164.998 9.33485C164.778 8.99604 164.388 8.82663 163.829 8.82663C163.372 8.82663 162.974 8.9198 162.635 9.10615ZM182.537 2.57552V18H178.954L178.598 16.0434C178.259 16.704 177.759 17.2292 177.099 17.6188C176.438 18.0085 175.693 18.2033 174.863 18.2033C173.541 18.2033 172.482 17.7289 171.686 16.7803C170.907 15.8316 170.517 14.4086 170.517 12.5112C170.517 11.0713 170.687 9.88542 171.025 8.95368C171.364 8.02195 171.762 7.35279 172.22 6.94622C172.508 6.69211 173.092 6.48035 173.973 6.31094C174.871 6.14153 175.667 6.05683 176.362 6.05683C176.972 6.05683 177.598 6.11612 178.242 6.23471C178.191 5.42156 178.166 4.97263 178.166 4.88792V2.7534L182.537 2.57552ZM176.768 14.7982C177.226 14.7982 177.7 14.722 178.191 14.5695V9.05533C177.7 8.98757 177.158 8.95368 176.565 8.95368C176.057 8.95368 175.735 8.99604 175.599 9.08074C175.413 9.21626 175.261 9.6059 175.142 10.2496C175.04 10.8765 174.99 11.5371 174.99 12.2317C174.99 13.2651 175.142 13.9512 175.447 14.29C175.769 14.6288 176.209 14.7982 176.768 14.7982ZM198.582 15.154V18H188.087V15.0777L193.728 9.08074H188.24V6.31094H198.455V9.20779L192.839 15.154H198.582ZM207.394 14.9507C207.818 14.9507 208.606 14.9083 209.758 14.8236C209.91 14.8236 210.19 14.8067 210.596 14.7728L210.977 17.3901C209.673 18 207.979 18.3049 205.895 18.3049C203.947 18.3049 202.448 17.8137 201.397 16.8311C200.364 15.8485 199.847 14.3662 199.847 12.3842C199.847 11.3677 199.974 10.3852 200.228 9.43649C200.5 8.48782 200.804 7.82713 201.143 7.45444C201.499 7.08174 202.16 6.75987 203.125 6.48882C204.091 6.21777 205.048 6.08224 205.997 6.08224C207.521 6.08224 208.665 6.35329 209.427 6.89539C210.19 7.43749 210.689 8.19135 210.926 9.15697C211.164 10.1056 211.282 11.3847 211.282 12.994C210.13 13.0618 209.004 13.0957 207.903 13.0957H204.294C204.294 13.6378 204.404 14.0444 204.625 14.3154C204.862 14.5865 205.192 14.7643 205.616 14.849C206.039 14.9168 206.632 14.9507 207.394 14.9507ZM204.548 9.10615C204.447 9.15697 204.37 9.3772 204.32 9.76684C204.269 10.1565 204.235 10.5969 204.218 11.0882H205.539C206.336 11.0882 206.912 11.0797 207.267 11.0628C207.267 10.2496 207.149 9.67366 206.912 9.33485C206.691 8.99604 206.302 8.82663 205.743 8.82663C205.285 8.82663 204.887 8.9198 204.548 9.10615ZM220.054 6.05683C220.274 6.05683 220.503 6.08224 220.74 6.13306C220.994 6.18389 221.18 6.24318 221.299 6.31094C221.299 6.68364 221.257 7.30197 221.172 8.16594C221.087 9.01298 221.011 9.61437 220.943 9.97012C220.774 9.95318 220.46 9.94471 220.003 9.94471C218.936 9.94471 217.987 10.004 217.157 10.1226V18H212.812V6.31094H216.445L216.954 8.19135H216.979C217.47 7.54761 217.996 7.03092 218.555 6.64128C219.114 6.25165 219.613 6.05683 220.054 6.05683ZM228.081 18.3303C226.048 18.3303 224.524 17.856 223.507 16.9073C222.508 15.9417 222.008 14.4255 222.008 12.3588C222.008 11.2237 222.11 10.2327 222.313 9.38567C222.533 8.5217 222.796 7.9203 223.101 7.58149C223.49 7.14103 224.202 6.77681 225.235 6.48882C226.286 6.20083 227.268 6.05683 228.183 6.05683C230.368 6.05683 231.927 6.5227 232.859 7.45444C233.79 8.38617 234.256 9.87695 234.256 11.9268C234.256 14.1291 233.756 15.7469 232.757 16.7803C231.757 17.8137 230.199 18.3303 228.081 18.3303ZM228.158 15.3573C228.818 15.3573 229.25 15.1286 229.453 14.6712C229.657 14.1968 229.758 13.3667 229.758 12.1809C229.758 11.3508 229.716 10.7155 229.631 10.2751C229.547 9.81766 229.386 9.48732 229.149 9.28403C228.928 9.0638 228.581 8.95368 228.107 8.95368C227.429 8.95368 227.039 9.01298 226.938 9.13156C226.802 9.25015 226.692 9.62284 226.607 10.2496C226.523 10.8765 226.48 11.5287 226.48 12.2063C226.48 13.3583 226.591 14.1714 226.811 14.6457C227.048 15.1201 227.497 15.3573 228.158 15.3573ZM235.737 9.63978H243.36V13.2736H235.737V9.63978ZM34.8289 44H30.1024L27.6884 39.2481C27.4512 38.7569 27.1378 38.4435 26.7482 38.3079V44H22.4029V28.7534L26.7482 28.5755V37.2407C27.1547 37.0713 27.502 36.724 27.79 36.1988L29.95 32.3109L34.7018 32.2855L32.2369 36.2496C31.8473 36.8765 31.4238 37.3762 30.9664 37.7489C31.356 38.1724 31.7965 38.8162 32.2878 39.6801L34.8289 44ZM47.0615 33.0479C47.214 33.2342 47.3241 33.7001 47.3918 34.4455C47.4765 35.1909 47.5189 36.3259 47.5189 37.8505V44H43.1736V37.9014V36.8595C43.1736 36.3174 43.1312 35.9786 43.0465 35.8431C42.911 35.6737 42.5976 35.589 42.1063 35.589C41.8692 35.589 41.6913 35.5974 41.5727 35.6144C41.0984 35.6313 40.6071 35.7414 40.0989 35.9447V44H35.7536V32.3109H39.2857L39.7685 34.2676C40.9883 32.7937 42.4452 32.0568 44.1392 32.0568C44.7491 32.0568 45.3166 32.1415 45.8418 32.3109C46.3839 32.4803 46.7904 32.726 47.0615 33.0479ZM55.1674 44.3303C53.1345 44.3303 51.6099 43.856 50.5934 42.9073C49.5939 41.9417 49.0942 40.4255 49.0942 38.3588C49.0942 37.2237 49.1958 36.2327 49.3991 35.3857C49.6193 34.5217 49.8819 33.9203 50.1868 33.5815C50.5765 33.141 51.288 32.7768 52.3214 32.4888C53.3717 32.2008 54.3542 32.0568 55.269 32.0568C57.4544 32.0568 59.0129 32.5227 59.9447 33.4544C60.8764 34.3862 61.3423 35.877 61.3423 37.9268C61.3423 40.1291 60.8425 41.7469 59.843 42.7803C58.8435 43.8137 57.285 44.3303 55.1674 44.3303ZM55.2436 41.3573C55.9043 41.3573 56.3363 41.1286 56.5396 40.6712C56.7429 40.1968 56.8445 39.3667 56.8445 38.1809C56.8445 37.3508 56.8022 36.7155 56.7175 36.2751C56.6328 35.8177 56.4718 35.4873 56.2347 35.284C56.0144 35.0638 55.6671 34.9537 55.1928 34.9537C54.5152 34.9537 54.1255 35.013 54.0239 35.1316C53.8884 35.2501 53.7783 35.6228 53.6936 36.2496C53.6089 36.8765 53.5665 37.5287 53.5665 38.2063C53.5665 39.3583 53.6766 40.1714 53.8968 40.6457C54.134 41.1201 54.5829 41.3573 55.2436 41.3573ZM69.9441 44H64.4553L61.8634 32.3109H66.3103L67.4538 41.0015H67.53L68.826 32.3109H73.527L74.8992 40.9761H75.0009L76.0681 32.3109H80.5405L77.9486 44H72.4344L71.2146 36.9357H71.1384L69.9441 44ZM81.8128 28.7534L86.1581 28.5755V44H81.8128V28.7534ZM95.4023 40.9507C95.8258 40.9507 96.6136 40.9083 97.7656 40.8236C97.918 40.8236 98.1975 40.8067 98.6041 40.7728L98.9853 43.3901C97.6809 44 95.9868 44.3049 93.9031 44.3049C91.9549 44.3049 90.4557 43.8137 89.4053 42.8311C88.372 41.8485 87.8553 40.3662 87.8553 38.3842C87.8553 37.3677 87.9823 36.3852 88.2364 35.4365C88.5075 34.4878 88.8124 33.8271 89.1512 33.4544C89.507 33.0817 90.1677 32.7599 91.1333 32.4888C92.0989 32.2178 93.0561 32.0822 94.0047 32.0822C95.5294 32.0822 96.6729 32.3533 97.4352 32.8954C98.1975 33.4375 98.6973 34.1914 98.9345 35.157C99.1716 36.1056 99.2902 37.3847 99.2902 38.994C98.1383 39.0618 97.0117 39.0957 95.9106 39.0957H92.3022C92.3022 39.6378 92.4123 40.0444 92.6325 40.3154C92.8697 40.5865 93.2 40.7643 93.6236 40.849C94.0471 40.9168 94.64 40.9507 95.4023 40.9507ZM92.5563 35.1062C92.4547 35.157 92.3784 35.3772 92.3276 35.7668C92.2768 36.1565 92.2429 36.5969 92.226 37.0882H93.5473C94.3435 37.0882 94.9195 37.0797 95.2753 37.0628C95.2753 36.2496 95.1567 35.6737 94.9195 35.3348C94.6993 34.996 94.3097 34.8266 93.7506 34.8266C93.2932 34.8266 92.8951 34.9198 92.5563 35.1062ZM112.458 28.5755V44H108.875L108.519 42.0434C108.18 42.704 107.681 43.2292 107.02 43.6188C106.359 44.0085 105.614 44.2033 104.784 44.2033C103.462 44.2033 102.404 43.7289 101.607 42.7803C100.828 41.8316 100.438 40.4086 100.438 38.5112C100.438 37.0713 100.608 35.8854 100.947 34.9537C101.286 34.0219 101.684 33.3528 102.141 32.9462C102.429 32.6921 103.013 32.4803 103.894 32.3109C104.792 32.1415 105.588 32.0568 106.283 32.0568C106.893 32.0568 107.52 32.1161 108.163 32.2347C108.113 31.4216 108.087 30.9726 108.087 30.8879V28.7534L112.458 28.5755ZM106.69 40.7982C107.147 40.7982 107.621 40.722 108.113 40.5695V35.0553C107.621 34.9876 107.079 34.9537 106.486 34.9537C105.978 34.9537 105.656 34.996 105.521 35.0807C105.334 35.2163 105.182 35.6059 105.063 36.2496C104.962 36.8765 104.911 37.5371 104.911 38.2317C104.911 39.2651 105.063 39.9512 105.368 40.29C105.69 40.6288 106.131 40.7982 106.69 40.7982ZM120.641 32.1077C121.437 32.1077 122.268 32.1669 123.131 32.2855C123.995 32.3872 125.003 32.5312 126.155 32.7175V42.8311C126.155 45.2536 125.351 47.134 123.741 48.4723C123.538 48.6417 123.081 48.7857 122.369 48.9043C121.658 49.0229 120.853 49.0822 119.955 49.0822C118.007 49.0822 116.465 48.8281 115.33 48.3199C115.313 47.9472 115.339 47.4559 115.407 46.846C115.491 46.2362 115.576 45.7534 115.661 45.3976C116.88 45.584 118.075 45.6771 119.244 45.6771C119.837 45.6771 120.336 45.6432 120.743 45.5755C121.166 45.5247 121.429 45.44 121.531 45.3214C121.666 45.1858 121.768 44.6776 121.836 43.7967C121.852 43.5595 121.861 43.2123 121.861 42.7549V42.1196C121.437 42.7464 120.895 43.1953 120.235 43.4664C119.574 43.7374 118.981 43.8729 118.456 43.8729C117.033 43.8729 115.957 43.4071 115.229 42.4753C114.5 41.5436 114.136 40.1799 114.136 38.3842C114.136 37.1983 114.297 36.0887 114.619 35.0553C114.958 34.005 115.415 33.2766 115.991 32.87C116.364 32.6159 116.965 32.4295 117.795 32.3109C118.642 32.1754 119.591 32.1077 120.641 32.1077ZM120.108 40.6966C120.734 40.6966 121.302 40.5949 121.81 40.3916V35.0807C121.624 35.0469 121.344 35.013 120.972 34.9791C120.802 34.9622 120.548 34.9537 120.209 34.9537C119.684 34.9537 119.354 35.0045 119.218 35.1062C119.032 35.2417 118.879 35.6228 118.761 36.2496C118.659 36.8595 118.608 37.5033 118.608 38.1809C118.608 39.1126 118.71 39.7648 118.913 40.1375C119.133 40.5102 119.532 40.6966 120.108 40.6966ZM135.306 40.9507C135.729 40.9507 136.517 40.9083 137.669 40.8236C137.821 40.8236 138.101 40.8067 138.507 40.7728L138.888 43.3901C137.584 44 135.89 44.3049 133.806 44.3049C131.858 44.3049 130.359 43.8137 129.309 42.8311C128.275 41.8485 127.758 40.3662 127.758 38.3842C127.758 37.3677 127.886 36.3852 128.14 35.4365C128.411 34.4878 128.716 33.8271 129.054 33.4544C129.41 33.0817 130.071 32.7599 131.036 32.4888C132.002 32.2178 132.959 32.0822 133.908 32.0822C135.433 32.0822 136.576 32.3533 137.338 32.8954C138.101 33.4375 138.6 34.1914 138.838 35.157C139.075 36.1056 139.193 37.3847 139.193 38.994C138.041 39.0618 136.915 39.0957 135.814 39.0957H132.205C132.205 39.6378 132.316 40.0444 132.536 40.3154C132.773 40.5865 133.103 40.7643 133.527 40.849C133.95 40.9168 134.543 40.9507 135.306 40.9507ZM132.459 35.1062C132.358 35.157 132.282 35.3772 132.231 35.7668C132.18 36.1565 132.146 36.5969 132.129 37.0882H133.451C134.247 37.0882 134.823 37.0797 135.178 37.0628C135.178 36.2496 135.06 35.6737 134.823 35.3348C134.602 34.996 134.213 34.8266 133.654 34.8266C133.196 34.8266 132.798 34.9198 132.459 35.1062ZM152.574 32.0568C153.794 32.0568 154.76 32.4634 155.471 33.2766C156.2 34.0728 156.564 35.4704 156.564 37.4694C156.564 38.9602 156.42 40.1799 156.132 41.1286C155.844 42.0603 155.513 42.6786 155.141 42.9836C154.768 43.2885 154.116 43.5341 153.184 43.7205C152.269 43.9068 151.321 44 150.338 44C150.05 44 149.567 43.9831 148.89 43.9492V47.5575L144.544 47.7354V32.3109H148.102L148.534 34.1151C148.974 33.4883 149.533 32.9886 150.211 32.6159C150.906 32.2432 151.693 32.0568 152.574 32.0568ZM151.558 40.8999C151.744 40.7643 151.88 40.3832 151.964 39.7564C152.049 39.1126 152.091 38.5028 152.091 37.9268C152.091 36.9781 151.973 36.2751 151.736 35.8177C151.499 35.3603 151.024 35.1316 150.313 35.1316C149.804 35.1316 149.33 35.1824 148.89 35.284V40.9253L149.601 41.0015C149.821 41.0184 150.135 41.0269 150.541 41.0269C151.117 41.0269 151.456 40.9846 151.558 40.8999ZM165.509 32.0568C165.73 32.0568 165.958 32.0822 166.196 32.1331C166.45 32.1839 166.636 32.2432 166.755 32.3109C166.755 32.6836 166.712 33.302 166.628 34.1659C166.543 35.013 166.467 35.6144 166.399 35.9701C166.229 35.9532 165.916 35.9447 165.459 35.9447C164.391 35.9447 163.443 36.004 162.613 36.1226V44H158.267V32.3109H161.901L162.409 34.1914H162.435C162.926 33.5476 163.451 33.0309 164.01 32.6413C164.569 32.2516 165.069 32.0568 165.509 32.0568ZM173.537 44.3303C171.504 44.3303 169.979 43.856 168.963 42.9073C167.963 41.9417 167.464 40.4255 167.464 38.3588C167.464 37.2237 167.565 36.2327 167.769 35.3857C167.989 34.5217 168.251 33.9203 168.556 33.5815C168.946 33.141 169.658 32.7768 170.691 32.4888C171.741 32.2008 172.724 32.0568 173.639 32.0568C175.824 32.0568 177.383 32.5227 178.314 33.4544C179.246 34.3862 179.712 35.877 179.712 37.9268C179.712 40.1291 179.212 41.7469 178.213 42.7803C177.213 43.8137 175.655 44.3303 173.537 44.3303ZM173.613 41.3573C174.274 41.3573 174.706 41.1286 174.909 40.6712C175.112 40.1968 175.214 39.3667 175.214 38.1809C175.214 37.3508 175.172 36.7155 175.087 36.2751C175.002 35.8177 174.841 35.4873 174.604 35.284C174.384 35.0638 174.037 34.9537 173.562 34.9537C172.885 34.9537 172.495 35.013 172.393 35.1316C172.258 35.2501 172.148 35.6228 172.063 36.2496C171.978 36.8765 171.936 37.5287 171.936 38.2063C171.936 39.3583 172.046 40.1714 172.266 40.6457C172.504 41.1201 172.953 41.3573 173.613 41.3573ZM187.012 44.3303C184.979 44.3303 183.454 43.856 182.438 42.9073C181.438 41.9417 180.939 40.4255 180.939 38.3588C180.939 37.2237 181.04 36.2327 181.243 35.3857C181.464 34.5217 181.726 33.9203 182.031 33.5815C182.421 33.141 183.132 32.7768 184.166 32.4888C185.216 32.2008 186.199 32.0568 187.113 32.0568C189.299 32.0568 190.857 32.5227 191.789 33.4544C192.721 34.3862 193.187 35.877 193.187 37.9268C193.187 40.1291 192.687 41.7469 191.687 42.7803C190.688 43.8137 189.129 44.3303 187.012 44.3303ZM187.088 41.3573C187.749 41.3573 188.181 41.1286 188.384 40.6712C188.587 40.1968 188.689 39.3667 188.689 38.1809C188.689 37.3508 188.647 36.7155 188.562 36.2751C188.477 35.8177 188.316 35.4873 188.079 35.284C187.859 35.0638 187.512 34.9537 187.037 34.9537C186.36 34.9537 185.97 35.013 185.868 35.1316C185.733 35.2501 185.623 35.6228 185.538 36.2496C185.453 36.8765 185.411 37.5287 185.411 38.2063C185.411 39.3583 185.521 40.1714 185.741 40.6457C185.978 41.1201 186.427 41.3573 187.088 41.3573ZM200.385 30.9896C200.266 31.1082 200.207 31.4724 200.207 32.0822V32.3109H202.901V34.8012H200.207V44H195.862V34.8012H193.956V32.5396L195.862 32.3109V31.9298C195.862 31.1844 195.963 30.4729 196.167 29.7953C196.37 29.1176 196.556 28.711 196.726 28.5755C197.251 28.1351 198.369 27.9148 200.08 27.9148C201.012 27.9148 202.054 27.9826 203.206 28.1181C203.206 28.3214 203.172 28.728 203.104 29.3379C203.053 29.9477 203.002 30.4644 202.951 30.8879L201.859 30.8625C200.961 30.8625 200.47 30.9049 200.385 30.9896ZM213.455 40.0359C213.455 41.5436 212.972 42.6278 212.007 43.2885C211.058 43.9492 209.703 44.2795 207.941 44.2795C206.704 44.2795 205.281 44.1016 203.672 43.7459C203.706 43.4071 203.782 42.9243 203.901 42.2975C204.036 41.6537 204.146 41.1624 204.231 40.8236C204.841 40.9253 205.518 41.01 206.264 41.0777C207.009 41.1286 207.644 41.154 208.17 41.154C208.627 41.154 208.907 41.1286 209.008 41.0777C209.025 41.0608 209.042 41.0184 209.059 40.9507C209.093 40.866 209.11 40.7813 209.11 40.6966C209.11 40.3578 208.898 40.1291 208.475 40.0105C208.339 39.9766 207.822 39.8326 206.924 39.5785C206.027 39.3244 205.29 38.867 204.714 38.2063C204.155 37.5287 203.875 36.6901 203.875 35.6906C203.875 35.1654 203.994 34.581 204.231 33.9372C204.468 33.2935 204.722 32.8869 204.993 32.7175C205.196 32.582 205.688 32.4465 206.467 32.3109C207.246 32.1585 207.966 32.0822 208.627 32.0822C210.033 32.0822 211.448 32.1839 212.871 32.3872C212.871 32.6921 212.828 33.2088 212.744 33.9372C212.659 34.6488 212.583 35.0977 212.515 35.284C211.075 35.0977 209.914 35.0045 209.034 35.0045C208.576 35.0045 208.28 35.0299 208.144 35.0807C208.11 35.0977 208.076 35.1485 208.043 35.2332C208.009 35.301 207.992 35.3941 207.992 35.5127C207.992 35.7499 208.068 35.9193 208.22 36.0209C208.373 36.1395 208.771 36.2835 209.415 36.4529C210.177 36.6732 210.829 36.9019 211.371 37.139C211.93 37.3762 212.413 37.732 212.82 38.2063C213.243 38.6806 213.455 39.2905 213.455 40.0359ZM218.632 38.8924C217.361 38.8754 216.234 38.6383 215.252 38.1809C215.252 37.4186 215.21 36.563 215.125 35.6144C215.057 34.6488 214.93 33.7424 214.744 32.8954L214.947 32.7937C215.879 32.9801 216.751 33.0733 217.564 33.0733C218.225 33.0733 218.75 33.014 219.14 32.8954C219.529 32.7599 219.724 32.5651 219.724 32.3109C219.724 32.0568 219.496 31.8705 219.038 31.7519C218.598 31.6333 218.013 31.574 217.285 31.574C216.861 31.574 216.243 31.6079 215.43 31.6757L214.871 28.5755C215.26 28.2028 215.642 27.9572 216.014 27.8386C216.404 27.7031 216.819 27.6353 217.259 27.6353C218.293 27.6353 219.174 27.8725 219.902 28.3468C220.648 28.8212 221.207 29.4395 221.579 30.2018C221.952 30.9642 222.138 31.7604 222.138 32.5905C222.138 33.878 221.842 34.8944 221.249 35.6398C220.673 36.3682 219.834 36.8087 218.733 36.9612L218.759 38.7653L218.632 38.8924ZM217.082 44.1525C216.489 44.1525 216.014 43.9746 215.658 43.6188C215.303 43.2461 215.125 42.7464 215.125 42.1196C215.125 41.5775 215.303 41.1201 215.658 40.7474C216.031 40.3747 216.489 40.1884 217.031 40.1884C217.59 40.1884 218.056 40.3747 218.428 40.7474C218.818 41.1201 219.013 41.5775 219.013 42.1196C219.013 42.7464 218.826 43.2461 218.454 43.6188C218.098 43.9746 217.641 44.1525 217.082 44.1525Z" fill="#DBFF00"/>
</svg>
