<svg width="80" height="13" viewBox="0 0 80 13" fill="none" xmlns="http://www.w3.org/2000/svg">
<path d="M8.5627 9.86334V12H0.683769V9.80611L4.91893 5.30387H0.798233V3.22444H8.46731V5.39925L4.25122 9.86334H8.5627ZM19.1849 12H15.6365L13.8242 8.43254C13.6461 8.06372 13.4108 7.82843 13.1183 7.72668V12H9.85608V0.553619L13.1183 0.420077V6.92544C13.4235 6.79826 13.6843 6.53753 13.9005 6.14327L15.522 3.22444L19.0895 3.20536L17.239 6.18142C16.9465 6.652 16.6285 7.02718 16.2851 7.30698C16.5776 7.62494 16.9083 8.10823 17.2771 8.75686L19.1849 12ZM26.3463 9.61534H23.1795L22.6072 12H19.0969L22.6072 1.12594H27.0903L30.4479 12H26.9186L26.3463 9.61534ZM24.7438 3.47245L23.6183 7.49776H25.8885L24.8201 3.47245H24.7438ZM39.7143 3.77768C39.8288 3.91758 39.9114 4.26733 39.9623 4.82693C40.0259 5.38654 40.0577 6.23865 40.0577 7.38329V12H36.7955V7.42145V6.63928C36.7955 6.2323 36.7637 5.97793 36.7001 5.87619C36.5983 5.749 36.363 5.68541 35.9942 5.68541C35.8162 5.68541 35.6826 5.69177 35.5936 5.70449C35.2375 5.71721 34.8687 5.79988 34.4871 5.9525V12H31.2249V3.22444H33.8766L34.2391 4.69339C35.1548 3.58691 36.2486 3.03367 37.5204 3.03367C37.9783 3.03367 38.4043 3.09726 38.7986 3.22444C39.2056 3.35162 39.5108 3.53604 39.7143 3.77768ZM48.6614 9.02394C48.6614 10.1559 48.2989 10.9698 47.574 11.4658C46.8618 11.9618 45.8443 12.2099 44.5216 12.2099C43.5932 12.2099 42.5249 12.0763 41.3166 11.8092C41.3421 11.5549 41.3993 11.1924 41.4883 10.7218C41.5901 10.2385 41.6727 9.8697 41.7363 9.61534C42.1942 9.69165 42.7029 9.75524 43.2625 9.80611C43.8221 9.84426 44.299 9.86334 44.6933 9.86334C45.0367 9.86334 45.2466 9.84426 45.3229 9.80611C45.3356 9.79339 45.3483 9.7616 45.361 9.71072C45.3865 9.64713 45.3992 9.58354 45.3992 9.51995C45.3992 9.26559 45.2402 9.09389 44.9222 9.00486C44.8205 8.97943 44.4326 8.87132 43.7585 8.68055C43.0845 8.48978 42.5312 8.14638 42.0988 7.65038C41.6791 7.14165 41.4692 6.5121 41.4692 5.76172C41.4692 5.36746 41.5583 4.92868 41.7363 4.44539C41.9144 3.9621 42.1052 3.65686 42.3087 3.52968C42.4613 3.42793 42.8301 3.32619 43.4151 3.22444C44.0002 3.10998 44.5407 3.05275 45.0367 3.05275C46.0923 3.05275 47.1543 3.12905 48.2226 3.28167C48.2226 3.5106 48.1908 3.89851 48.1272 4.44539C48.0636 4.97955 48.0064 5.31659 47.9555 5.45649C46.8745 5.31659 46.0033 5.24664 45.3419 5.24664C44.9986 5.24664 44.776 5.26571 44.6742 5.30387C44.6488 5.31659 44.6234 5.35474 44.5979 5.41833C44.5725 5.4692 44.5598 5.53915 44.5598 5.62818C44.5598 5.80624 44.617 5.93342 44.7315 6.00973C44.8459 6.09875 45.1448 6.20686 45.6281 6.33404C46.2004 6.49938 46.6901 6.67107 47.0971 6.84913C47.5168 7.02718 47.8792 7.29427 48.1845 7.65038C48.5024 8.00648 48.6614 8.46434 48.6614 9.02394ZM55.1422 12H51.0215L49.0756 3.22444H52.4141L53.2726 9.74888H53.3298L54.3028 3.22444H57.8321L58.8622 9.7298H58.9385L59.7398 3.22444H63.0974L61.1515 12H57.0117L56.096 6.69651H56.0388L55.1422 12ZM69.3179 9.71072C69.6359 9.71072 70.2273 9.67893 71.0921 9.61534C71.2066 9.61534 71.4164 9.60262 71.7217 9.57718L72.0078 11.5421C71.0285 12 69.7567 12.2289 68.1924 12.2289C66.7298 12.2289 65.6042 11.8601 64.8157 11.1224C64.0399 10.3848 63.652 9.27195 63.652 7.78392C63.652 7.02082 63.7474 6.28317 63.9381 5.57095C64.1416 4.85873 64.3706 4.36272 64.6249 4.08292C64.892 3.80312 65.388 3.56147 66.1129 3.35798C66.8379 3.15449 67.5565 3.05275 68.2687 3.05275C69.4133 3.05275 70.2718 3.25624 70.8441 3.66322C71.4164 4.0702 71.7916 4.63616 71.9697 5.3611C72.1477 6.07332 72.2368 7.03354 72.2368 8.24177C71.3719 8.29264 70.5262 8.31808 69.6995 8.31808H66.9905C66.9905 8.72506 67.0732 9.0303 67.2385 9.23379C67.4166 9.43728 67.6646 9.57082 67.9825 9.63441C68.3005 9.68529 68.7456 9.71072 69.3179 9.71072ZM67.1813 5.32294C67.105 5.3611 67.0477 5.52644 67.0096 5.81895C66.9714 6.11147 66.946 6.44215 66.9333 6.81097H67.9253C68.523 6.81097 68.9555 6.80461 69.2225 6.7919C69.2225 6.18142 69.1335 5.749 68.9555 5.49464C68.7901 5.24028 68.4976 5.11309 68.0779 5.11309C67.7345 5.11309 67.4356 5.18304 67.1813 5.32294ZM78.822 3.03367C78.9874 3.03367 79.159 3.05275 79.3371 3.0909C79.5279 3.12905 79.6678 3.17357 79.7568 3.22444C79.7568 3.50424 79.725 3.96846 79.6614 4.61708C79.5978 5.25299 79.5406 5.70449 79.4897 5.97157C79.3625 5.95885 79.1273 5.9525 78.7839 5.9525C77.9826 5.9525 77.2704 5.99701 76.6472 6.08604V12H73.385V3.22444H76.113L76.4946 4.63616H76.5137C76.8825 4.15287 77.2768 3.76496 77.6965 3.47245C78.1162 3.17993 78.4913 3.03367 78.822 3.03367Z" fill="#A23EE0"/>
</svg>
